%TF.GenerationSoftware,Altium Limited,Altium Designer,24.8.2 (39)*%
G04 Layer_Color=2752767*
%FSLAX45Y45*%
%MOMM*%
%TF.SameCoordinates,62BC436B-7982-48EA-BC41-0FA37A5750A2*%
%TF.FilePolarity,Positive*%
%TF.FileFunction,Drawing*%
%TF.Part,Single*%
G01*
G75*
%TA.AperFunction,NonConductor*%
%ADD59C,0.12700*%
D59*
X4319125Y8644789D02*
Y8746389D01*
X4420725D01*
Y8644789D01*
X4319125D01*
X4649200Y8269200D02*
Y8370800D01*
X4750800D01*
Y8269200D01*
X4649200D01*
X4620523Y8556874D02*
Y8658474D01*
X4722123D01*
Y8556874D01*
X4620523D01*
X4809200Y8429200D02*
Y8530800D01*
X4910800D01*
Y8429200D01*
X4809200D01*
X4559200D02*
Y8530800D01*
X4660800D01*
Y8429200D01*
X4559200D01*
X4436700Y8291700D02*
Y8393300D01*
X4538300D01*
Y8291700D01*
X4436700D01*
X5169200Y8604200D02*
Y8705800D01*
X5270800D01*
Y8604200D01*
X5169200D01*
Y9054200D02*
Y9155800D01*
X5270800D01*
Y9054200D01*
X5169200D01*
X4924200Y8949200D02*
Y9050800D01*
X5025800D01*
Y8949200D01*
X4924200D01*
X4441700Y8799200D02*
Y8900800D01*
X4543300D01*
Y8799200D01*
X4441700D01*
X4716700Y8639200D02*
Y8740800D01*
X4818300D01*
Y8639200D01*
X4716700D01*
X4749200Y8269200D02*
Y8370800D01*
X4850800D01*
Y8269200D01*
X4749200D01*
X4769200Y9029200D02*
Y9130800D01*
X4870800D01*
Y9029200D01*
X4769200D01*
X4499200Y8556700D02*
Y8658300D01*
X4600800D01*
Y8556700D01*
X4499200D01*
X4749200Y8380700D02*
Y8482300D01*
X4850800D01*
Y8380700D01*
X4749200D01*
X4699200Y8327700D02*
Y8429300D01*
X4800800D01*
Y8327700D01*
X4699200D01*
X4649200Y8327699D02*
Y8429299D01*
X4750800D01*
Y8327699D01*
X4649200D01*
X5024201Y8649200D02*
Y8750800D01*
X5125801D01*
Y8649200D01*
X5024201D01*
X4870516Y9071471D02*
Y9173071D01*
X4972116D01*
Y9071471D01*
X4870516D01*
X4824200Y8649200D02*
Y8750800D01*
X4925800D01*
Y8649200D01*
X4824200D01*
X4293220Y8594196D02*
Y8695796D01*
X4394820D01*
Y8594196D01*
X4293220D01*
Y8844196D02*
Y8945796D01*
X4394820D01*
Y8844196D01*
X4293220D01*
%TF.MD5,b2ac36254c5f6da5b664d7435bd3d3f8*%
M02*
