%TF.GenerationSoftware,Altium Limited,Altium Designer,24.8.2 (39)*%
G04 Layer_Physical_Order=1*
G04 Layer_Color=255*
%FSLAX45Y45*%
%MOMM*%
%TF.SameCoordinates,62BC436B-7982-48EA-BC41-0FA37A5750A2*%
%TF.FilePolarity,Positive*%
%TF.FileFunction,Copper,L1,Top,Signal*%
%TF.Part,Single*%
G01*
G75*
%TA.AperFunction,SMDPad,CuDef*%
%ADD10R,0.55000X0.60000*%
%ADD11R,0.30000X0.27000*%
%ADD12R,0.27000X0.30000*%
%ADD13R,0.60000X0.50000*%
%AMCUSTOMSHAPE14*
4,1,5,-0.90000,-1.15000,-0.90000,0.77044,-0.52044,1.15000,0.90000,1.15000,0.90000,-1.15000,-0.90000,-1.15000,0.0*%
%ADD14CUSTOMSHAPE14*%

G04:AMPARAMS|DCode=15|XSize=0.3mm|YSize=0.45mm|CornerRadius=0.075mm|HoleSize=0mm|Usage=FLASHONLY|Rotation=0.000|XOffset=0mm|YOffset=0mm|HoleType=Round|Shape=RoundedRectangle|*
%AMROUNDEDRECTD15*
21,1,0.30000,0.30000,0,0,0.0*
21,1,0.15000,0.45000,0,0,0.0*
1,1,0.15000,0.07500,-0.15000*
1,1,0.15000,-0.07500,-0.15000*
1,1,0.15000,-0.07500,0.15000*
1,1,0.15000,0.07500,0.15000*
%
%ADD15ROUNDEDRECTD15*%
G04:AMPARAMS|DCode=16|XSize=0.3mm|YSize=0.45mm|CornerRadius=0.075mm|HoleSize=0mm|Usage=FLASHONLY|Rotation=90.000|XOffset=0mm|YOffset=0mm|HoleType=Round|Shape=RoundedRectangle|*
%AMROUNDEDRECTD16*
21,1,0.30000,0.30000,0,0,90.0*
21,1,0.15000,0.45000,0,0,90.0*
1,1,0.15000,0.15000,0.07500*
1,1,0.15000,0.15000,-0.07500*
1,1,0.15000,-0.15000,-0.07500*
1,1,0.15000,-0.15000,0.07500*
%
%ADD16ROUNDEDRECTD16*%
%TA.AperFunction,ConnectorPad*%
%ADD17R,1.00000X1.10000*%
%TA.AperFunction,SMDPad,CuDef*%
%ADD18R,0.85000X1.40000*%
%ADD19R,1.30000X0.42000*%
%ADD20R,0.80000X1.70000*%
%ADD21R,0.50000X0.60000*%
G04:AMPARAMS|DCode=22|XSize=1.10712mm|YSize=0.53583mm|CornerRadius=0.26791mm|HoleSize=0mm|Usage=FLASHONLY|Rotation=270.000|XOffset=0mm|YOffset=0mm|HoleType=Round|Shape=RoundedRectangle|*
%AMROUNDEDRECTD22*
21,1,1.10712,0.00000,0,0,270.0*
21,1,0.57129,0.53583,0,0,270.0*
1,1,0.53583,0.00000,-0.28565*
1,1,0.53583,0.00000,0.28565*
1,1,0.53583,0.00000,0.28565*
1,1,0.53583,0.00000,-0.28565*
%
%ADD22ROUNDEDRECTD22*%
%ADD23R,0.53583X1.10712*%
%TA.AperFunction,ConnectorPad*%
%ADD24R,1.00000X1.18000*%
%ADD25R,1.50000X0.35000*%
%TA.AperFunction,Conductor*%
%ADD26C,0.30000*%
%ADD27C,0.15240*%
%ADD28C,0.20000*%
%TA.AperFunction,ViaPad*%
%ADD29C,0.25000*%
G36*
X7663403Y11509324D02*
Y11505973D01*
X7670105D01*
Y11502622D01*
X7676806D01*
Y11499271D01*
X7686859D01*
Y11495921D01*
X7693560D01*
Y11492570D01*
X7703613D01*
Y11489219D01*
X7710315D01*
Y11485868D01*
X7720367D01*
Y11482518D01*
X7727069D01*
Y11479167D01*
X7733770D01*
Y11475816D01*
X7743823D01*
Y11472465D01*
X7750524D01*
Y11469114D01*
X7760577D01*
Y11465763D01*
X7767278D01*
Y11462412D01*
X7777331D01*
Y11459062D01*
X7784032D01*
Y11455711D01*
X7794085D01*
Y11452360D01*
X7800787D01*
Y11449009D01*
X7807488D01*
Y11445659D01*
X7817541D01*
Y11442308D01*
X7824242D01*
Y11438957D01*
X7834295D01*
Y11435606D01*
X7851049D01*
Y11438957D01*
X7857750D01*
Y11442308D01*
X7861101D01*
Y11445659D01*
X7864452D01*
Y11449009D01*
X7871154D01*
Y11452360D01*
X7874504D01*
Y11455711D01*
X7881206D01*
Y11459062D01*
X7884557D01*
Y11462412D01*
X7891259D01*
Y11465763D01*
X7894609D01*
Y11469114D01*
X7901311D01*
Y11472465D01*
X7904662D01*
Y11475816D01*
X7911363D01*
Y11479167D01*
X7914714D01*
Y11482518D01*
X7921416D01*
Y11485868D01*
X7924767D01*
Y11489219D01*
X7928117D01*
Y11492570D01*
X7934819D01*
Y11495921D01*
X7938170D01*
Y11499271D01*
X7944872D01*
Y11502622D01*
X7948222D01*
Y11505973D01*
X7954924D01*
Y11509324D01*
X7958275D01*
Y11512675D01*
X7964976D01*
Y11516025D01*
X7968327D01*
Y11519377D01*
X7975029D01*
Y11522727D01*
X7978380D01*
Y11526078D01*
X7981731D01*
Y11529429D01*
X7988432D01*
Y11532780D01*
X7991783D01*
Y11536130D01*
X7998485D01*
Y11539481D01*
X8001835D01*
Y11542832D01*
X8008537D01*
Y11546183D01*
X8011888D01*
Y11549534D01*
X8018590D01*
Y11552884D01*
X8021940D01*
Y11556235D01*
X8028642D01*
Y11559586D01*
X8031993D01*
Y11562937D01*
X8035344D01*
Y11566288D01*
X8042045D01*
Y11569639D01*
X8045396D01*
Y11572989D01*
X8052098D01*
Y11576340D01*
X8055448D01*
Y11579691D01*
X8062150D01*
Y11583042D01*
X8078904D01*
Y11579691D01*
X8082255D01*
Y11576340D01*
X8085606D01*
Y11572989D01*
X8088957D01*
Y11569639D01*
X8092307D01*
Y11566288D01*
X8095658D01*
Y11562937D01*
X8099009D01*
Y11559586D01*
X8102360D01*
Y11556235D01*
X8105710D01*
Y11552884D01*
X8109062D01*
Y11549534D01*
X8112412D01*
Y11546183D01*
X8115763D01*
Y11542832D01*
X8119114D01*
Y11539481D01*
X8122465D01*
Y11536130D01*
X8125816D01*
Y11532780D01*
X8129166D01*
Y11529429D01*
X8132517D01*
Y11526078D01*
X8135868D01*
Y11522727D01*
X8139219D01*
Y11519377D01*
X8142569D01*
Y11516025D01*
X8145920D01*
Y11512675D01*
X8149271D01*
Y11509324D01*
X8152622D01*
Y11505973D01*
X8155973D01*
Y11502622D01*
X8159324D01*
Y11499271D01*
X8162675D01*
Y11495921D01*
X8166025D01*
Y11492570D01*
X8169376D01*
Y11489219D01*
X8172727D01*
Y11485868D01*
X8176078D01*
Y11482518D01*
X8179428D01*
Y11479167D01*
X8182779D01*
Y11475816D01*
X8186130D01*
Y11472465D01*
X8189481D01*
Y11469114D01*
X8192832D01*
Y11465763D01*
X8196182D01*
Y11462412D01*
X8199534D01*
Y11459062D01*
X8202884D01*
Y11455711D01*
X8206235D01*
Y11452360D01*
X8209586D01*
Y11449009D01*
X8212937D01*
Y11445659D01*
X8216287D01*
Y11442308D01*
X8219638D01*
Y11438957D01*
X8222989D01*
Y11435606D01*
X8226340D01*
Y11432255D01*
X8229691D01*
Y11428904D01*
X8233041D01*
Y11425553D01*
X8236392D01*
Y11422203D01*
X8239743D01*
Y11418852D01*
X8243094D01*
Y11415501D01*
X8246445D01*
Y11412150D01*
X8249796D01*
Y11408800D01*
X8253147D01*
Y11405449D01*
X8256497D01*
Y11402098D01*
X8259848D01*
Y11385344D01*
X8256497D01*
Y11378642D01*
X8253147D01*
Y11375291D01*
X8249796D01*
Y11368590D01*
X8246445D01*
Y11365239D01*
X8243094D01*
Y11358537D01*
X8239743D01*
Y11355187D01*
X8236392D01*
Y11351836D01*
X8233041D01*
Y11345134D01*
X8229691D01*
Y11341783D01*
X8226340D01*
Y11335082D01*
X8222989D01*
Y11331731D01*
X8219638D01*
Y11325029D01*
X8216287D01*
Y11321678D01*
X8212937D01*
Y11314977D01*
X8209586D01*
Y11311626D01*
X8206235D01*
Y11304924D01*
X8202884D01*
Y11301574D01*
X8199534D01*
Y11298223D01*
X8196182D01*
Y11291521D01*
X8192832D01*
Y11288170D01*
X8189481D01*
Y11281469D01*
X8186130D01*
Y11278118D01*
X8182779D01*
Y11271416D01*
X8179428D01*
Y11268065D01*
X8176078D01*
Y11261364D01*
X8172727D01*
Y11258013D01*
X8169376D01*
Y11251311D01*
X8166025D01*
Y11247960D01*
X8162675D01*
Y11241259D01*
X8159324D01*
Y11237908D01*
X8155973D01*
Y11234557D01*
X8152622D01*
Y11227856D01*
X8149271D01*
Y11224505D01*
X8145920D01*
Y11217803D01*
X8142569D01*
Y11214452D01*
X8139219D01*
Y11207751D01*
X8135868D01*
Y11204400D01*
X8132517D01*
Y11197698D01*
X8129166D01*
Y11194347D01*
X8125816D01*
Y11187646D01*
X8122465D01*
Y11184295D01*
X8119114D01*
Y11180944D01*
X8115763D01*
Y11157488D01*
X8119114D01*
Y11150787D01*
X8122465D01*
Y11144085D01*
X8125816D01*
Y11134033D01*
X8129166D01*
Y11127331D01*
X8132517D01*
Y11120630D01*
X8135868D01*
Y11110577D01*
X8139219D01*
Y11103875D01*
X8142569D01*
Y11097174D01*
X8145920D01*
Y11087121D01*
X8149271D01*
Y11080420D01*
X8152622D01*
Y11073718D01*
X8155973D01*
Y11063666D01*
X8159324D01*
Y11056964D01*
X8162675D01*
Y11050262D01*
X8166025D01*
Y11040210D01*
X8169376D01*
Y11033508D01*
X8172727D01*
Y11026807D01*
X8176078D01*
Y11016754D01*
X8179428D01*
Y11010053D01*
X8182779D01*
Y11003351D01*
X8186130D01*
Y10993299D01*
X8189481D01*
Y10986597D01*
X8192832D01*
Y10983246D01*
X8196182D01*
Y10979895D01*
X8199534D01*
Y10976544D01*
X8206235D01*
Y10973194D01*
X8222989D01*
Y10969843D01*
X8239743D01*
Y10966492D01*
X8259848D01*
Y10963141D01*
X8276602D01*
Y10959790D01*
X8296707D01*
Y10956440D01*
X8313461D01*
Y10953089D01*
X8330215D01*
Y10949738D01*
X8350320D01*
Y10946387D01*
X8367074D01*
Y10943036D01*
X8383828D01*
Y10939686D01*
X8403933D01*
Y10936335D01*
X8420687D01*
Y10932984D01*
X8440792D01*
Y10929633D01*
X8454195D01*
Y10926282D01*
X8457546D01*
Y10919581D01*
X8460897D01*
Y10661568D01*
X8457546D01*
Y10654866D01*
X8450844D01*
Y10651515D01*
X8434090D01*
Y10648165D01*
X8417336D01*
Y10644814D01*
X8397231D01*
Y10641463D01*
X8380477D01*
Y10638112D01*
X8363723D01*
Y10634761D01*
X8343618D01*
Y10631411D01*
X8326864D01*
Y10628060D01*
X8310110D01*
Y10624709D01*
X8290006D01*
Y10621358D01*
X8273251D01*
Y10618007D01*
X8256497D01*
Y10614656D01*
X8236392D01*
Y10611306D01*
X8219638D01*
Y10607955D01*
X8206235D01*
Y10604604D01*
X8202884D01*
Y10601253D01*
X8199534D01*
Y10597902D01*
X8196182D01*
Y10587850D01*
X8192832D01*
Y10581148D01*
X8189481D01*
Y10571096D01*
X8186130D01*
Y10564394D01*
X8182779D01*
Y10554342D01*
X8179428D01*
Y10547640D01*
X8176078D01*
Y10537588D01*
X8172727D01*
Y10530886D01*
X8169376D01*
Y10520834D01*
X8166025D01*
Y10514132D01*
X8162675D01*
Y10504080D01*
X8159324D01*
Y10497378D01*
X8155973D01*
Y10487325D01*
X8152622D01*
Y10480624D01*
X8149271D01*
Y10470571D01*
X8145920D01*
Y10463870D01*
X8142569D01*
Y10453818D01*
X8139219D01*
Y10447116D01*
X8135868D01*
Y10437063D01*
X8132517D01*
Y10430362D01*
X8129166D01*
Y10420309D01*
X8125816D01*
Y10413608D01*
X8122465D01*
Y10393503D01*
X8125816D01*
Y10386801D01*
X8129166D01*
Y10383450D01*
X8132517D01*
Y10376749D01*
X8135868D01*
Y10373398D01*
X8139219D01*
Y10366696D01*
X8142569D01*
Y10363346D01*
X8145920D01*
Y10359995D01*
X8149271D01*
Y10353293D01*
X8152622D01*
Y10349942D01*
X8155973D01*
Y10343241D01*
X8159324D01*
Y10339890D01*
X8162675D01*
Y10333188D01*
X8166025D01*
Y10329837D01*
X8169376D01*
Y10323136D01*
X8172727D01*
Y10319785D01*
X8176078D01*
Y10313083D01*
X8179428D01*
Y10309732D01*
X8182779D01*
Y10306382D01*
X8186130D01*
Y10299680D01*
X8189481D01*
Y10296329D01*
X8192832D01*
Y10289628D01*
X8196182D01*
Y10286277D01*
X8199534D01*
Y10279575D01*
X8202884D01*
Y10276224D01*
X8206235D01*
Y10269523D01*
X8209586D01*
Y10266172D01*
X8212937D01*
Y10259470D01*
X8216287D01*
Y10256119D01*
X8219638D01*
Y10252769D01*
X8222989D01*
Y10246067D01*
X8226340D01*
Y10242716D01*
X8229691D01*
Y10236015D01*
X8233041D01*
Y10232664D01*
X8236392D01*
Y10225962D01*
X8239743D01*
Y10222611D01*
X8243094D01*
Y10215910D01*
X8246445D01*
Y10212559D01*
X8249796D01*
Y10205857D01*
X8253147D01*
Y10202506D01*
X8256497D01*
Y10195805D01*
X8259848D01*
Y10179051D01*
X8256497D01*
Y10175700D01*
X8253147D01*
Y10172349D01*
X8249796D01*
Y10168998D01*
X8246445D01*
Y10165647D01*
X8243094D01*
Y10162297D01*
X8239743D01*
Y10158946D01*
X8236392D01*
Y10155595D01*
X8233041D01*
Y10152244D01*
X8229691D01*
Y10148893D01*
X8226340D01*
Y10145543D01*
X8222989D01*
Y10142192D01*
X8219638D01*
Y10138841D01*
X8216287D01*
Y10135490D01*
X8212937D01*
Y10132139D01*
X8209586D01*
Y10128788D01*
X8206235D01*
Y10125438D01*
X8202884D01*
Y10122087D01*
X8199534D01*
Y10118736D01*
X8196182D01*
Y10115385D01*
X8192832D01*
Y10112034D01*
X8189481D01*
Y10108684D01*
X8186130D01*
Y10105333D01*
X8182779D01*
Y10101982D01*
X8179428D01*
Y10098631D01*
X8176078D01*
Y10095280D01*
X8172727D01*
Y10091930D01*
X8169376D01*
Y10088579D01*
X8166025D01*
Y10085228D01*
X8162675D01*
Y10081877D01*
X8159324D01*
Y10078526D01*
X8155973D01*
Y10075175D01*
X8152622D01*
Y10071825D01*
X8149271D01*
Y10068474D01*
X8145920D01*
Y10065123D01*
X8142569D01*
Y10061772D01*
X8139219D01*
Y10058421D01*
X8135868D01*
Y10055071D01*
X8132517D01*
Y10051720D01*
X8129166D01*
Y10048369D01*
X8125816D01*
Y10045018D01*
X8122465D01*
Y10041667D01*
X8119114D01*
Y10038316D01*
X8115763D01*
Y10034966D01*
X8112412D01*
Y10031615D01*
X8109062D01*
Y10028264D01*
X8105710D01*
Y10024913D01*
X8102360D01*
Y10021562D01*
X8099009D01*
Y10018212D01*
X8095658D01*
Y10014861D01*
X8092307D01*
Y10011510D01*
X8088957D01*
Y10008159D01*
X8085606D01*
Y10004808D01*
X8082255D01*
Y10001458D01*
X8078904D01*
Y9998107D01*
X8062150D01*
Y10001458D01*
X8058799D01*
Y10004808D01*
X8052098D01*
Y10008159D01*
X8048747D01*
Y10011510D01*
X8042045D01*
Y10014861D01*
X8038694D01*
Y10018212D01*
X8031993D01*
Y10021562D01*
X8028642D01*
Y10024913D01*
X8021940D01*
Y10028264D01*
X8018590D01*
Y10031615D01*
X8015239D01*
Y10034966D01*
X8008537D01*
Y10038316D01*
X8005186D01*
Y10041667D01*
X7998485D01*
Y10045018D01*
X7995134D01*
Y10048369D01*
X7988432D01*
Y10051720D01*
X7985081D01*
Y10055071D01*
X7978380D01*
Y10058421D01*
X7975029D01*
Y10061772D01*
X7968327D01*
Y10065123D01*
X7964976D01*
Y10068474D01*
X7961626D01*
Y10071825D01*
X7954924D01*
Y10075175D01*
X7951573D01*
Y10078526D01*
X7944872D01*
Y10081877D01*
X7941521D01*
Y10085228D01*
X7934819D01*
Y10088579D01*
X7931468D01*
Y10091930D01*
X7924767D01*
Y10095280D01*
X7921416D01*
Y10098631D01*
X7914714D01*
Y10101982D01*
X7911363D01*
Y10105333D01*
X7904662D01*
Y10108684D01*
X7901311D01*
Y10112034D01*
X7897960D01*
Y10115385D01*
X7891259D01*
Y10118736D01*
X7887908D01*
Y10122087D01*
X7881206D01*
Y10125438D01*
X7877855D01*
Y10128788D01*
X7871154D01*
Y10132139D01*
X7864452D01*
Y10135490D01*
X7854400D01*
Y10132139D01*
X7847698D01*
Y10128788D01*
X7840996D01*
Y10125438D01*
X7834295D01*
Y10122087D01*
X7830944D01*
Y10118736D01*
X7824242D01*
Y10115385D01*
X7817541D01*
Y10112034D01*
X7810839D01*
Y10108684D01*
X7804137D01*
Y10105333D01*
X7797436D01*
Y10101982D01*
X7790734D01*
Y10098631D01*
X7784032D01*
Y10095280D01*
X7780682D01*
Y10091930D01*
X7773980D01*
Y10088579D01*
X7767278D01*
Y10085228D01*
X7757226D01*
Y10088579D01*
X7753875D01*
Y10091930D01*
X7750524D01*
Y10101982D01*
X7747173D01*
Y10108684D01*
X7743823D01*
Y10115385D01*
X7740472D01*
Y10125438D01*
X7737121D01*
Y10132139D01*
X7733770D01*
Y10142192D01*
X7730419D01*
Y10148893D01*
X7727069D01*
Y10158946D01*
X7723718D01*
Y10165647D01*
X7720367D01*
Y10172349D01*
X7717016D01*
Y10182402D01*
X7713665D01*
Y10189103D01*
X7710315D01*
Y10199156D01*
X7706964D01*
Y10205857D01*
X7703613D01*
Y10212559D01*
X7700262D01*
Y10222611D01*
X7696911D01*
Y10229313D01*
X7693560D01*
Y10239365D01*
X7690210D01*
Y10246067D01*
X7686859D01*
Y10256119D01*
X7683508D01*
Y10262821D01*
X7680157D01*
Y10269523D01*
X7676806D01*
Y10279575D01*
X7673456D01*
Y10286277D01*
X7670105D01*
Y10296329D01*
X7666754D01*
Y10303031D01*
X7663403D01*
Y10309732D01*
X7660052D01*
Y10319785D01*
X7656701D01*
Y10326487D01*
X7653351D01*
Y10336539D01*
X7650000D01*
Y10343241D01*
X7646649D01*
Y10353293D01*
X7643298D01*
Y10359995D01*
X7639947D01*
Y10366696D01*
X7636597D01*
Y10376749D01*
X7633246D01*
Y10383450D01*
X7629895D01*
Y10393503D01*
X7626544D01*
Y10400204D01*
X7623193D01*
Y10406906D01*
X7619843D01*
Y10416959D01*
X7616492D01*
Y10423660D01*
X7613141D01*
Y10433712D01*
X7609790D01*
Y10440414D01*
X7606439D01*
Y10450467D01*
X7603088D01*
Y10457168D01*
X7599738D01*
Y10463870D01*
X7596387D01*
Y10473922D01*
X7593036D01*
Y10480624D01*
X7589685D01*
Y10490677D01*
X7586334D01*
Y10497378D01*
X7582984D01*
Y10504080D01*
X7579633D01*
Y10514132D01*
X7576282D01*
Y10527535D01*
X7579633D01*
Y10534237D01*
X7586334D01*
Y10537588D01*
X7593036D01*
Y10540939D01*
X7596387D01*
Y10544289D01*
X7603088D01*
Y10547640D01*
X7606439D01*
Y10550991D01*
X7613141D01*
Y10554342D01*
X7616492D01*
Y10557693D01*
X7619843D01*
Y10561043D01*
X7626544D01*
Y10564394D01*
X7629895D01*
Y10567745D01*
X7636597D01*
Y10571096D01*
X7639947D01*
Y10574447D01*
X7643298D01*
Y10577797D01*
X7646649D01*
Y10581148D01*
X7650000D01*
Y10584499D01*
X7656701D01*
Y10587850D01*
X7660052D01*
Y10591201D01*
X7663403D01*
Y10594552D01*
X7666754D01*
Y10597902D01*
X7670105D01*
Y10601253D01*
X7673456D01*
Y10607955D01*
X7676806D01*
Y10611306D01*
X7680157D01*
Y10614656D01*
X7683508D01*
Y10618007D01*
X7686859D01*
Y10621358D01*
X7690210D01*
Y10628060D01*
X7693560D01*
Y10631411D01*
X7696911D01*
Y10638112D01*
X7700262D01*
Y10641463D01*
X7703613D01*
Y10648165D01*
X7706964D01*
Y10654866D01*
X7710315D01*
Y10658217D01*
X7713665D01*
Y10664919D01*
X7717016D01*
Y10671620D01*
X7720367D01*
Y10681673D01*
X7723718D01*
Y10688374D01*
X7727069D01*
Y10698427D01*
X7730419D01*
Y10708479D01*
X7733770D01*
Y10718532D01*
X7737121D01*
Y10731935D01*
X7740472D01*
Y10752040D01*
X7743823D01*
Y10825758D01*
X7740472D01*
Y10845863D01*
X7737121D01*
Y10859266D01*
X7733770D01*
Y10872669D01*
X7730419D01*
Y10882722D01*
X7727069D01*
Y10889423D01*
X7723718D01*
Y10899476D01*
X7720367D01*
Y10906177D01*
X7717016D01*
Y10912879D01*
X7713665D01*
Y10919581D01*
X7710315D01*
Y10926282D01*
X7706964D01*
Y10932984D01*
X7703613D01*
Y10936335D01*
X7700262D01*
Y10943036D01*
X7696911D01*
Y10946387D01*
X7693560D01*
Y10953089D01*
X7690210D01*
Y10956440D01*
X7686859D01*
Y10959790D01*
X7683508D01*
Y10963141D01*
X7680157D01*
Y10969843D01*
X7676806D01*
Y10973194D01*
X7673456D01*
Y10976544D01*
X7670105D01*
Y10979895D01*
X7666754D01*
Y10983246D01*
X7663403D01*
Y10986597D01*
X7660052D01*
Y10989948D01*
X7656701D01*
Y10993299D01*
X7653351D01*
Y10996649D01*
X7650000D01*
Y11000000D01*
X7646649D01*
Y11003351D01*
X7639947D01*
Y11006702D01*
X7636597D01*
Y11010053D01*
X7633246D01*
Y11013403D01*
X7626544D01*
Y11016754D01*
X7623193D01*
Y11020105D01*
X7619843D01*
Y11023456D01*
X7613141D01*
Y11026807D01*
X7606439D01*
Y11030158D01*
X7603088D01*
Y11033508D01*
X7596387D01*
Y11036859D01*
X7589685D01*
Y11040210D01*
X7582984D01*
Y11043561D01*
X7572931D01*
Y11046912D01*
X7566229D01*
Y11050262D01*
X7556177D01*
Y11053613D01*
X7546125D01*
Y11056964D01*
X7532721D01*
Y11060315D01*
X7515967D01*
Y11063666D01*
X7492512D01*
Y11067016D01*
X7442249D01*
Y11063666D01*
X7418794D01*
Y11060315D01*
X7402040D01*
Y11056964D01*
X7391987D01*
Y11053613D01*
X7378584D01*
Y11050262D01*
X7371882D01*
Y11046912D01*
X7361830D01*
Y11043561D01*
X7355128D01*
Y11040210D01*
X7348427D01*
Y11036859D01*
X7341725D01*
Y11033508D01*
X7335023D01*
Y11030158D01*
X7328322D01*
Y11026807D01*
X7321620D01*
Y11023456D01*
X7318269D01*
Y11020105D01*
X7311568D01*
Y11016754D01*
X7308217D01*
Y11013403D01*
X7301515D01*
Y11010053D01*
X7298164D01*
Y11006702D01*
X7294813D01*
Y11003351D01*
X7291463D01*
Y11000000D01*
X7284761D01*
Y10996649D01*
X7281410D01*
Y10993299D01*
X7278059D01*
Y10989948D01*
X7274709D01*
Y10986597D01*
X7271358D01*
Y10983246D01*
X7268007D01*
Y10979895D01*
X7264656D01*
Y10976544D01*
X7261306D01*
Y10973194D01*
X7257954D01*
Y10966492D01*
X7254604D01*
Y10963141D01*
X7251253D01*
Y10959790D01*
X7247902D01*
Y10956440D01*
X7244551D01*
Y10949738D01*
X7241200D01*
Y10946387D01*
X7237850D01*
Y10939686D01*
X7234499D01*
Y10936335D01*
X7231148D01*
Y10929633D01*
X7227797D01*
Y10922931D01*
X7224447D01*
Y10919581D01*
X7221096D01*
Y10912879D01*
X7217745D01*
Y10906177D01*
X7214394D01*
Y10896125D01*
X7211043D01*
Y10889423D01*
X7207692D01*
Y10879371D01*
X7204341D01*
Y10869318D01*
X7200991D01*
Y10855915D01*
X7197640D01*
Y10842512D01*
X7194289D01*
Y10822407D01*
X7190938D01*
Y10758741D01*
X7194289D01*
Y10738637D01*
X7197640D01*
Y10721883D01*
X7200991D01*
Y10711830D01*
X7204341D01*
Y10698427D01*
X7207692D01*
Y10691725D01*
X7211043D01*
Y10681673D01*
X7214394D01*
Y10674971D01*
X7217745D01*
Y10668269D01*
X7221096D01*
Y10661568D01*
X7224447D01*
Y10654866D01*
X7227797D01*
Y10648165D01*
X7231148D01*
Y10644814D01*
X7234499D01*
Y10638112D01*
X7237850D01*
Y10634761D01*
X7241200D01*
Y10628060D01*
X7244551D01*
Y10624709D01*
X7247902D01*
Y10618007D01*
X7251253D01*
Y10614656D01*
X7254604D01*
Y10611306D01*
X7257954D01*
Y10607955D01*
X7261306D01*
Y10604604D01*
X7264656D01*
Y10601253D01*
X7268007D01*
Y10597902D01*
X7271358D01*
Y10594552D01*
X7274709D01*
Y10591201D01*
X7278059D01*
Y10587850D01*
X7281410D01*
Y10584499D01*
X7284761D01*
Y10581148D01*
X7288112D01*
Y10577797D01*
X7291463D01*
Y10574447D01*
X7294813D01*
Y10571096D01*
X7301515D01*
Y10567745D01*
X7304866D01*
Y10564394D01*
X7308217D01*
Y10561043D01*
X7314918D01*
Y10557693D01*
X7318269D01*
Y10554342D01*
X7324971D01*
Y10550991D01*
X7328322D01*
Y10547640D01*
X7331672D01*
Y10544289D01*
X7338374D01*
Y10540939D01*
X7345076D01*
Y10537588D01*
X7348427D01*
Y10534237D01*
X7355128D01*
Y10530886D01*
X7358479D01*
Y10510781D01*
X7355128D01*
Y10504080D01*
X7351777D01*
Y10494027D01*
X7348427D01*
Y10487325D01*
X7345076D01*
Y10480624D01*
X7341725D01*
Y10470571D01*
X7338374D01*
Y10463870D01*
X7335023D01*
Y10453818D01*
X7331672D01*
Y10447116D01*
X7328322D01*
Y10437063D01*
X7324971D01*
Y10430362D01*
X7321620D01*
Y10423660D01*
X7318269D01*
Y10413608D01*
X7314918D01*
Y10406906D01*
X7311568D01*
Y10396853D01*
X7308217D01*
Y10390152D01*
X7304866D01*
Y10383450D01*
X7301515D01*
Y10373398D01*
X7298164D01*
Y10366696D01*
X7294813D01*
Y10356644D01*
X7291463D01*
Y10349942D01*
X7288112D01*
Y10339890D01*
X7284761D01*
Y10333188D01*
X7281410D01*
Y10326487D01*
X7278059D01*
Y10316434D01*
X7274709D01*
Y10309732D01*
X7271358D01*
Y10299680D01*
X7268007D01*
Y10292978D01*
X7264656D01*
Y10286277D01*
X7261306D01*
Y10276224D01*
X7257954D01*
Y10269523D01*
X7254604D01*
Y10259470D01*
X7251253D01*
Y10252769D01*
X7247902D01*
Y10246067D01*
X7244551D01*
Y10236015D01*
X7241200D01*
Y10229313D01*
X7237850D01*
Y10219260D01*
X7234499D01*
Y10212559D01*
X7231148D01*
Y10202506D01*
X7227797D01*
Y10195805D01*
X7224447D01*
Y10189103D01*
X7221096D01*
Y10179051D01*
X7217745D01*
Y10172349D01*
X7214394D01*
Y10162297D01*
X7211043D01*
Y10155595D01*
X7207692D01*
Y10148893D01*
X7204341D01*
Y10138841D01*
X7200991D01*
Y10132139D01*
X7197640D01*
Y10122087D01*
X7194289D01*
Y10115385D01*
X7190938D01*
Y10105333D01*
X7187587D01*
Y10098631D01*
X7184237D01*
Y10091930D01*
X7180886D01*
Y10088579D01*
X7177535D01*
Y10085228D01*
X7167482D01*
Y10088579D01*
X7164132D01*
Y10091930D01*
X7157430D01*
Y10095280D01*
X7150728D01*
Y10098631D01*
X7144027D01*
Y10101982D01*
X7137325D01*
Y10105333D01*
X7130624D01*
Y10108684D01*
X7123922D01*
Y10112034D01*
X7117220D01*
Y10115385D01*
X7113869D01*
Y10118736D01*
X7107168D01*
Y10122087D01*
X7100466D01*
Y10125438D01*
X7093765D01*
Y10128788D01*
X7087063D01*
Y10132139D01*
X7080362D01*
Y10135490D01*
X7070309D01*
Y10132139D01*
X7063607D01*
Y10128788D01*
X7060257D01*
Y10125438D01*
X7053555D01*
Y10122087D01*
X7050204D01*
Y10118736D01*
X7043503D01*
Y10115385D01*
X7040152D01*
Y10112034D01*
X7033450D01*
Y10108684D01*
X7030099D01*
Y10105333D01*
X7023398D01*
Y10101982D01*
X7020047D01*
Y10098631D01*
X7013345D01*
Y10095280D01*
X7009994D01*
Y10091930D01*
X7003293D01*
Y10088579D01*
X6999942D01*
Y10085228D01*
X6996591D01*
Y10081877D01*
X6989889D01*
Y10078526D01*
X6986539D01*
Y10075175D01*
X6979837D01*
Y10071825D01*
X6976486D01*
Y10068474D01*
X6969785D01*
Y10065123D01*
X6966434D01*
Y10061772D01*
X6959732D01*
Y10058421D01*
X6956381D01*
Y10055071D01*
X6949680D01*
Y10051720D01*
X6946329D01*
Y10048369D01*
X6942978D01*
Y10045018D01*
X6936276D01*
Y10041667D01*
X6932926D01*
Y10038316D01*
X6926224D01*
Y10034966D01*
X6922873D01*
Y10031615D01*
X6916172D01*
Y10028264D01*
X6912821D01*
Y10024913D01*
X6906119D01*
Y10021562D01*
X6902768D01*
Y10018212D01*
X6896067D01*
Y10014861D01*
X6892716D01*
Y10011510D01*
X6889365D01*
Y10008159D01*
X6882663D01*
Y10004808D01*
X6879313D01*
Y10001458D01*
X6872611D01*
Y9998107D01*
X6855857D01*
Y10001458D01*
X6852506D01*
Y10004808D01*
X6849155D01*
Y10008159D01*
X6845804D01*
Y10011510D01*
X6842454D01*
Y10014861D01*
X6839103D01*
Y10018212D01*
X6835752D01*
Y10021562D01*
X6832401D01*
Y10024913D01*
X6829050D01*
Y10028264D01*
X6825700D01*
Y10031615D01*
X6822349D01*
Y10034966D01*
X6818998D01*
Y10038316D01*
X6815647D01*
Y10041667D01*
X6812296D01*
Y10045018D01*
X6808945D01*
Y10048369D01*
X6805595D01*
Y10051720D01*
X6802244D01*
Y10055071D01*
X6798893D01*
Y10058421D01*
X6795542D01*
Y10061772D01*
X6792191D01*
Y10065123D01*
X6788841D01*
Y10068474D01*
X6785490D01*
Y10071825D01*
X6782139D01*
Y10075175D01*
X6778788D01*
Y10078526D01*
X6775437D01*
Y10081877D01*
X6772087D01*
Y10085228D01*
X6768736D01*
Y10088579D01*
X6765385D01*
Y10091930D01*
X6762034D01*
Y10095280D01*
X6758683D01*
Y10098631D01*
X6755332D01*
Y10101982D01*
X6751982D01*
Y10105333D01*
X6748631D01*
Y10108684D01*
X6745280D01*
Y10112034D01*
X6741929D01*
Y10115385D01*
X6738578D01*
Y10118736D01*
X6735228D01*
Y10122087D01*
X6731877D01*
Y10125438D01*
X6728526D01*
Y10128788D01*
X6725175D01*
Y10132139D01*
X6721824D01*
Y10135490D01*
X6718473D01*
Y10138841D01*
X6715123D01*
Y10142192D01*
X6711772D01*
Y10145543D01*
X6708421D01*
Y10148893D01*
X6705070D01*
Y10152244D01*
X6701719D01*
Y10155595D01*
X6698369D01*
Y10158946D01*
X6695018D01*
Y10162297D01*
X6691667D01*
Y10165647D01*
X6688316D01*
Y10168998D01*
X6684965D01*
Y10172349D01*
X6681615D01*
Y10175700D01*
X6678264D01*
Y10179051D01*
X6674913D01*
Y10195805D01*
X6678264D01*
Y10202506D01*
X6681615D01*
Y10205857D01*
X6684965D01*
Y10209208D01*
X6688316D01*
Y10215910D01*
X6691667D01*
Y10219260D01*
X6695018D01*
Y10225962D01*
X6698369D01*
Y10229313D01*
X6701719D01*
Y10236015D01*
X6705070D01*
Y10239365D01*
X6708421D01*
Y10246067D01*
X6711772D01*
Y10249418D01*
X6715123D01*
Y10256119D01*
X6718473D01*
Y10259470D01*
X6721824D01*
Y10266172D01*
X6725175D01*
Y10269523D01*
X6728526D01*
Y10272874D01*
X6731877D01*
Y10279575D01*
X6735228D01*
Y10282926D01*
X6738578D01*
Y10289628D01*
X6741929D01*
Y10292978D01*
X6745280D01*
Y10299680D01*
X6748631D01*
Y10303031D01*
X6751982D01*
Y10309732D01*
X6755332D01*
Y10313083D01*
X6758683D01*
Y10319785D01*
X6762034D01*
Y10323136D01*
X6765385D01*
Y10326487D01*
X6768736D01*
Y10333188D01*
X6772087D01*
Y10336539D01*
X6775437D01*
Y10343241D01*
X6778788D01*
Y10346591D01*
X6782139D01*
Y10353293D01*
X6785490D01*
Y10356644D01*
X6788841D01*
Y10363346D01*
X6792191D01*
Y10366696D01*
X6795542D01*
Y10373398D01*
X6798893D01*
Y10376749D01*
X6802244D01*
Y10380100D01*
X6805595D01*
Y10386801D01*
X6808945D01*
Y10390152D01*
X6812296D01*
Y10400204D01*
X6815647D01*
Y10406906D01*
X6812296D01*
Y10413608D01*
X6808945D01*
Y10423660D01*
X6805595D01*
Y10430362D01*
X6802244D01*
Y10440414D01*
X6798893D01*
Y10447116D01*
X6795542D01*
Y10457168D01*
X6792191D01*
Y10463870D01*
X6788841D01*
Y10473922D01*
X6785490D01*
Y10480624D01*
X6782139D01*
Y10490677D01*
X6778788D01*
Y10497378D01*
X6775437D01*
Y10507430D01*
X6772087D01*
Y10514132D01*
X6768736D01*
Y10524184D01*
X6765385D01*
Y10530886D01*
X6762034D01*
Y10540939D01*
X6758683D01*
Y10547640D01*
X6755332D01*
Y10557693D01*
X6751982D01*
Y10564394D01*
X6748631D01*
Y10574447D01*
X6745280D01*
Y10581148D01*
X6741929D01*
Y10591201D01*
X6738578D01*
Y10597902D01*
X6735228D01*
Y10601253D01*
X6731877D01*
Y10604604D01*
X6728526D01*
Y10607955D01*
X6715123D01*
Y10611306D01*
X6698369D01*
Y10614656D01*
X6681615D01*
Y10618007D01*
X6661510D01*
Y10621358D01*
X6644756D01*
Y10624709D01*
X6628001D01*
Y10628060D01*
X6607897D01*
Y10631411D01*
X6591143D01*
Y10634761D01*
X6571038D01*
Y10638112D01*
X6554284D01*
Y10641463D01*
X6537529D01*
Y10644814D01*
X6517425D01*
Y10648165D01*
X6500671D01*
Y10651515D01*
X6483916D01*
Y10654866D01*
X6480566D01*
Y10658217D01*
X6477215D01*
Y10926282D01*
X6483916D01*
Y10929633D01*
X6497320D01*
Y10932984D01*
X6514074D01*
Y10936335D01*
X6530828D01*
Y10939686D01*
X6550933D01*
Y10943036D01*
X6567687D01*
Y10946387D01*
X6587792D01*
Y10949738D01*
X6604546D01*
Y10953089D01*
X6621300D01*
Y10956440D01*
X6641405D01*
Y10959790D01*
X6658159D01*
Y10963141D01*
X6674913D01*
Y10966492D01*
X6695018D01*
Y10969843D01*
X6711772D01*
Y10973194D01*
X6731877D01*
Y10976544D01*
X6738578D01*
Y10979895D01*
X6741929D01*
Y10986597D01*
X6745280D01*
Y10993299D01*
X6748631D01*
Y11000000D01*
X6751982D01*
Y11006702D01*
X6755332D01*
Y11016754D01*
X6758683D01*
Y11023456D01*
X6762034D01*
Y11030158D01*
X6765385D01*
Y11040210D01*
X6768736D01*
Y11046912D01*
X6772087D01*
Y11053613D01*
X6775437D01*
Y11063666D01*
X6778788D01*
Y11070367D01*
X6782139D01*
Y11077069D01*
X6785490D01*
Y11087121D01*
X6788841D01*
Y11093823D01*
X6792191D01*
Y11100525D01*
X6795542D01*
Y11110577D01*
X6798893D01*
Y11117279D01*
X6802244D01*
Y11123980D01*
X6805595D01*
Y11134033D01*
X6808945D01*
Y11140734D01*
X6812296D01*
Y11147436D01*
X6815647D01*
Y11157488D01*
X6818998D01*
Y11164190D01*
X6822349D01*
Y11174243D01*
X6818998D01*
Y11180944D01*
X6815647D01*
Y11184295D01*
X6812296D01*
Y11190997D01*
X6808945D01*
Y11194347D01*
X6805595D01*
Y11201049D01*
X6802244D01*
Y11204400D01*
X6798893D01*
Y11211102D01*
X6795542D01*
Y11214452D01*
X6792191D01*
Y11221154D01*
X6788841D01*
Y11224505D01*
X6785490D01*
Y11227856D01*
X6782139D01*
Y11234557D01*
X6778788D01*
Y11237908D01*
X6775437D01*
Y11244610D01*
X6772087D01*
Y11247960D01*
X6768736D01*
Y11254662D01*
X6765385D01*
Y11258013D01*
X6762034D01*
Y11264715D01*
X6758683D01*
Y11268065D01*
X6755332D01*
Y11274767D01*
X6751982D01*
Y11278118D01*
X6748631D01*
Y11284819D01*
X6745280D01*
Y11288170D01*
X6741929D01*
Y11291521D01*
X6738578D01*
Y11298223D01*
X6735228D01*
Y11301574D01*
X6731877D01*
Y11308275D01*
X6728526D01*
Y11311626D01*
X6725175D01*
Y11318328D01*
X6721824D01*
Y11321678D01*
X6718473D01*
Y11328380D01*
X6715123D01*
Y11331731D01*
X6711772D01*
Y11338432D01*
X6708421D01*
Y11341783D01*
X6705070D01*
Y11345134D01*
X6701719D01*
Y11351836D01*
X6698369D01*
Y11355187D01*
X6695018D01*
Y11361888D01*
X6691667D01*
Y11365239D01*
X6688316D01*
Y11371941D01*
X6684965D01*
Y11375291D01*
X6681615D01*
Y11381993D01*
X6678264D01*
Y11385344D01*
X6674913D01*
Y11402098D01*
X6678264D01*
Y11405449D01*
X6681615D01*
Y11408800D01*
X6684965D01*
Y11412150D01*
X6688316D01*
Y11415501D01*
X6691667D01*
Y11418852D01*
X6695018D01*
Y11422203D01*
X6698369D01*
Y11425553D01*
X6701719D01*
Y11428904D01*
X6705070D01*
Y11432255D01*
X6708421D01*
Y11435606D01*
X6711772D01*
Y11438957D01*
X6715123D01*
Y11442308D01*
X6718473D01*
Y11445659D01*
X6721824D01*
Y11449009D01*
X6725175D01*
Y11452360D01*
X6728526D01*
Y11455711D01*
X6731877D01*
Y11459062D01*
X6735228D01*
Y11462412D01*
X6738578D01*
Y11465763D01*
X6741929D01*
Y11469114D01*
X6745280D01*
Y11472465D01*
X6748631D01*
Y11475816D01*
X6751982D01*
Y11479167D01*
X6755332D01*
Y11482518D01*
X6758683D01*
Y11485868D01*
X6762034D01*
Y11489219D01*
X6765385D01*
Y11492570D01*
X6768736D01*
Y11495921D01*
X6772087D01*
Y11499271D01*
X6775437D01*
Y11502622D01*
X6778788D01*
Y11505973D01*
X6782139D01*
Y11509324D01*
X6785490D01*
Y11512675D01*
X6788841D01*
Y11516025D01*
X6792191D01*
Y11519377D01*
X6795542D01*
Y11522727D01*
X6798893D01*
Y11526078D01*
X6802244D01*
Y11529429D01*
X6805595D01*
Y11532780D01*
X6808945D01*
Y11536130D01*
X6812296D01*
Y11539481D01*
X6815647D01*
Y11542832D01*
X6818998D01*
Y11546183D01*
X6822349D01*
Y11549534D01*
X6825700D01*
Y11552884D01*
X6829050D01*
Y11556235D01*
X6832401D01*
Y11559586D01*
X6835752D01*
Y11562937D01*
X6839103D01*
Y11566288D01*
X6842454D01*
Y11569639D01*
X6845804D01*
Y11572989D01*
X6849155D01*
Y11576340D01*
X6852506D01*
Y11579691D01*
X6855857D01*
Y11583042D01*
X6872611D01*
Y11579691D01*
X6879313D01*
Y11576340D01*
X6882663D01*
Y11572989D01*
X6889365D01*
Y11569639D01*
X6892716D01*
Y11566288D01*
X6899417D01*
Y11562937D01*
X6902768D01*
Y11559586D01*
X6909470D01*
Y11556235D01*
X6912821D01*
Y11552884D01*
X6919522D01*
Y11549534D01*
X6922873D01*
Y11546183D01*
X6926224D01*
Y11542832D01*
X6932926D01*
Y11539481D01*
X6936276D01*
Y11536130D01*
X6942978D01*
Y11532780D01*
X6946329D01*
Y11529429D01*
X6953031D01*
Y11526078D01*
X6956381D01*
Y11522727D01*
X6963083D01*
Y11519377D01*
X6966434D01*
Y11516025D01*
X6973135D01*
Y11512675D01*
X6976486D01*
Y11509324D01*
X6983188D01*
Y11505973D01*
X6986539D01*
Y11502622D01*
X6989889D01*
Y11499271D01*
X6996591D01*
Y11495921D01*
X6999942D01*
Y11492570D01*
X7006644D01*
Y11489219D01*
X7009994D01*
Y11485868D01*
X7016696D01*
Y11482518D01*
X7020047D01*
Y11479167D01*
X7026748D01*
Y11475816D01*
X7030099D01*
Y11472465D01*
X7036801D01*
Y11469114D01*
X7040152D01*
Y11465763D01*
X7043503D01*
Y11462412D01*
X7050204D01*
Y11459062D01*
X7053555D01*
Y11455711D01*
X7060257D01*
Y11452360D01*
X7063607D01*
Y11449009D01*
X7070309D01*
Y11445659D01*
X7073660D01*
Y11442308D01*
X7080362D01*
Y11438957D01*
X7083712D01*
Y11435606D01*
X7103817D01*
Y11438957D01*
X7110519D01*
Y11442308D01*
X7117220D01*
Y11445659D01*
X7127273D01*
Y11449009D01*
X7133975D01*
Y11452360D01*
X7144027D01*
Y11455711D01*
X7150728D01*
Y11459062D01*
X7160781D01*
Y11462412D01*
X7167482D01*
Y11465763D01*
X7177535D01*
Y11469114D01*
X7184237D01*
Y11472465D01*
X7190938D01*
Y11475816D01*
X7200991D01*
Y11479167D01*
X7207692D01*
Y11482518D01*
X7217745D01*
Y11485868D01*
X7224447D01*
Y11489219D01*
X7234499D01*
Y11492570D01*
X7241200D01*
Y11495921D01*
X7247902D01*
Y11499271D01*
X7257954D01*
Y11502622D01*
X7264656D01*
Y11505973D01*
X7274709D01*
Y11509324D01*
X7278059D01*
Y11512675D01*
X7281410D01*
Y11522727D01*
X7284761D01*
Y11542832D01*
X7288112D01*
Y11559586D01*
X7291463D01*
Y11576340D01*
X7294813D01*
Y11596445D01*
X7298164D01*
Y11613199D01*
X7301515D01*
Y11633304D01*
X7304866D01*
Y11650058D01*
X7308217D01*
Y11666812D01*
X7311568D01*
Y11686917D01*
X7314918D01*
Y11703671D01*
X7318269D01*
Y11720425D01*
X7321620D01*
Y11740530D01*
X7324971D01*
Y11757284D01*
X7328322D01*
Y11774038D01*
X7331672D01*
Y11780740D01*
X7341725D01*
Y11784091D01*
X7596387D01*
Y11780740D01*
X7603088D01*
Y11777389D01*
X7606439D01*
Y11763986D01*
X7609790D01*
Y11743881D01*
X7613141D01*
Y11727127D01*
X7616492D01*
Y11707022D01*
X7619843D01*
Y11690268D01*
X7623193D01*
Y11673514D01*
X7626544D01*
Y11653409D01*
X7629895D01*
Y11636655D01*
X7633246D01*
Y11619901D01*
X7636597D01*
Y11599796D01*
X7639947D01*
Y11583042D01*
X7643298D01*
Y11562937D01*
X7646649D01*
Y11546183D01*
X7650000D01*
Y11529429D01*
X7653351D01*
Y11516025D01*
X7656701D01*
Y11512675D01*
X7660052D01*
Y11509324D01*
X7663403D01*
D02*
G37*
D10*
X4875000Y8875000D02*
D03*
Y8975000D02*
D03*
D11*
X4700000Y8321500D02*
D03*
Y8378499D02*
D03*
X4800000Y8378500D02*
D03*
Y8321500D02*
D03*
X4750000Y8488500D02*
D03*
Y8431500D02*
D03*
Y8321500D02*
D03*
Y8378500D02*
D03*
X4700000Y8488499D02*
D03*
Y8431500D02*
D03*
X4800000Y8488500D02*
D03*
Y8431500D02*
D03*
D12*
X4803500Y8550000D02*
D03*
X4746500D02*
D03*
X5171500Y8740000D02*
D03*
X5228500D02*
D03*
D13*
X5075001Y8700000D02*
D03*
X4975000D02*
D03*
X5075000Y9000000D02*
D03*
X4975000D02*
D03*
X5075000Y8925000D02*
D03*
X4975000D02*
D03*
X4975000Y8775000D02*
D03*
X5075001D02*
D03*
X4975000Y8850000D02*
D03*
X5075001D02*
D03*
D14*
X4630000Y8770000D02*
D03*
D15*
X4550000Y8607500D02*
D03*
X4630000D02*
D03*
X4710000D02*
D03*
X4710000Y8932500D02*
D03*
X4630000D02*
D03*
X4550000D02*
D03*
D16*
X4767500Y8690000D02*
D03*
Y8770000D02*
D03*
Y8850000D02*
D03*
X4492500Y8690000D02*
D03*
Y8770000D02*
D03*
Y8850000D02*
D03*
D17*
X4612500Y8342500D02*
D03*
Y8507500D02*
D03*
X4487500D02*
D03*
Y8342500D02*
D03*
D18*
X5096316Y9122271D02*
D03*
X4921316D02*
D03*
D19*
X5220000Y8655000D02*
D03*
Y8570000D02*
D03*
Y8485000D02*
D03*
Y8400000D02*
D03*
Y8850000D02*
D03*
Y8935000D02*
D03*
Y9020000D02*
D03*
Y9105000D02*
D03*
D20*
X4810000Y9115000D02*
D03*
X4470000D02*
D03*
D21*
X4875000Y8800000D02*
D03*
Y8700000D02*
D03*
D22*
X5095000Y8364945D02*
D03*
X4905000D02*
D03*
Y8585055D02*
D03*
X5000000D02*
D03*
D23*
X5095000D02*
D03*
D24*
X4369020Y9139000D02*
D03*
Y8401000D02*
D03*
D25*
X4344020Y8494996D02*
D03*
Y8544996D02*
D03*
Y8594996D02*
D03*
Y8644996D02*
D03*
Y8694996D02*
D03*
Y8744996D02*
D03*
Y8794996D02*
D03*
Y8844996D02*
D03*
Y8894996D02*
D03*
Y8944996D02*
D03*
Y8994996D02*
D03*
Y9044996D02*
D03*
D26*
X4404020Y9115980D02*
X4469021D01*
X4390000Y9130000D02*
X4404020Y9115980D01*
X4469021D02*
X4470000Y9115000D01*
X5095000Y8364945D02*
Y8395000D01*
X5050000Y8440000D02*
X5095000Y8395000D01*
X4671323Y8607674D02*
X4710000D01*
Y8607500D02*
Y8607674D01*
X4612500Y8507500D02*
X4630000Y8525000D01*
Y8607500D01*
Y8770000D01*
X4550000Y8690000D02*
X4630000Y8770000D01*
X5099513Y8408513D02*
X5176000Y8485000D01*
X5220000D01*
X5075000Y8925000D02*
Y9000000D01*
X4975000Y8700000D02*
Y8925000D01*
X5075001Y8700000D02*
X5080001D01*
X4971490Y8490000D02*
X5040000D01*
X5083208Y8533208D01*
X5095000Y8585055D02*
Y8680001D01*
X5083208Y8533208D02*
Y8573263D01*
X5095000Y8585055D01*
X4905000Y8556491D02*
X4971490Y8490000D01*
X4905000Y8556491D02*
Y8585055D01*
X4630000Y8851250D02*
Y8932500D01*
Y8770000D02*
Y8851250D01*
X4631250Y8850000D02*
X4767500D01*
X4630000Y8851250D02*
X4631250Y8850000D01*
X4550000D02*
X4630000Y8770000D01*
X4492500Y8850000D02*
X4550000D01*
X4492500Y8690000D02*
X4550000D01*
X4980000Y8700000D02*
X5000000Y8680000D01*
X4975000Y8700000D02*
X4980000D01*
X5000000Y8585055D02*
Y8680000D01*
X5075000Y9000000D02*
X5075658D01*
X5085658Y9111613D02*
X5096316Y9122271D01*
X5075658Y9000000D02*
X5085658Y9010000D01*
Y9111613D01*
X5090000Y8685000D02*
X5095000Y8680001D01*
X5080001Y8700000D02*
X5090000Y8690000D01*
Y8685000D02*
Y8690000D01*
X5075001Y8775000D02*
Y8850000D01*
X4975000Y8925000D02*
Y9000000D01*
Y8700000D02*
X4975000Y8700000D01*
X4875000Y8800000D02*
Y8875000D01*
D27*
X4950000Y8440000D02*
Y8440000D01*
X4840000Y8550000D02*
X4950000Y8440000D01*
X4717380Y8580620D02*
Y8600120D01*
X4860000Y8437000D02*
Y8480000D01*
X4750000Y8321500D02*
X4800000D01*
X5264000Y9020000D02*
X5320000Y8964000D01*
Y8456000D02*
Y8964000D01*
X5220000Y9020000D02*
X5264000D01*
Y8400000D02*
X5320000Y8456000D01*
X5220000Y8400000D02*
X5264000D01*
X4746500Y8550000D02*
Y8551500D01*
X4717380Y8580620D02*
X4746500Y8551500D01*
Y8548500D02*
X4782620Y8512380D01*
X4798500Y8488500D02*
X4800000D01*
X4782620Y8504380D02*
X4798500Y8488500D01*
X4782620Y8504380D02*
Y8512380D01*
X4746500Y8548500D02*
Y8550000D01*
X4803500D02*
X4840000D01*
X4801500Y8378500D02*
X4860000Y8437000D01*
X4800000Y8378500D02*
X4801500D01*
X4612500Y8342500D02*
X4648499Y8378499D01*
X4700000D01*
Y8431500D02*
X4750000D01*
X4558500D02*
X4700000D01*
X4487500Y8502500D02*
X4558500Y8431500D01*
X4487500Y8502500D02*
Y8507500D01*
X4748500Y8488500D02*
X4750000D01*
X5220000Y8850000D02*
X5228500Y8841500D01*
Y8740000D02*
Y8841500D01*
D28*
X4612500Y8507500D02*
X4631501Y8488499D01*
X4700000D01*
X5165000Y8924000D02*
X5176000Y8935000D01*
X5109747Y8865000D02*
X5165000Y8920253D01*
X5090000Y8865000D02*
X5109747D01*
X5165000Y8920253D02*
Y8924000D01*
X5176000Y8935000D02*
X5220000D01*
X5075001Y8850000D02*
X5090000Y8865000D01*
D29*
X4369925Y8695589D02*
D03*
X4344020Y8894996D02*
D03*
Y8644996D02*
D03*
X4950000Y8440000D02*
D03*
X5050000Y8440000D02*
D03*
X4700000Y8320000D02*
D03*
X4671323Y8607674D02*
D03*
X5230000Y8930000D02*
D03*
X4860000Y8480000D02*
D03*
X4610000D02*
D03*
X4487500Y8342500D02*
D03*
X5220000Y8655000D02*
D03*
Y9105000D02*
D03*
X4975000Y9000000D02*
D03*
X4492500Y8850000D02*
D03*
X4767500Y8690000D02*
D03*
X4800000Y8320000D02*
D03*
X4890000Y8960000D02*
D03*
X4940000Y8810000D02*
D03*
X4820000Y9080000D02*
D03*
X4698702Y8701298D02*
D03*
X4550000Y8607500D02*
D03*
X4800000Y8431500D02*
D03*
X4750000Y8378500D02*
D03*
X4700000Y8378499D02*
D03*
X4750000Y8488500D02*
D03*
X4700000Y8810000D02*
D03*
X5075001Y8700000D02*
D03*
X4921316Y9122271D02*
D03*
X4875000Y8700000D02*
D03*
X4344020Y8744996D02*
D03*
Y8794996D02*
D03*
X5080000Y8930000D02*
D03*
X4627500Y9032500D02*
D03*
X5165000Y8735000D02*
D03*
X4547500Y9032500D02*
D03*
X4940000Y8690000D02*
D03*
X4350000Y8360000D02*
D03*
X4400000D02*
D03*
Y8410000D02*
D03*
X4350000D02*
D03*
X4344020Y8494996D02*
D03*
Y8644996D02*
D03*
Y8894996D02*
D03*
Y9044996D02*
D03*
X4340000Y9130000D02*
D03*
X4390000D02*
D03*
Y9180000D02*
D03*
X4340000D02*
D03*
%TF.MD5,291f71df8cd3b78c3e81c0ba4a10a2a0*%
M02*
