%TF.GenerationSoftware,Altium Limited,Altium Designer,24.8.2 (39)*%
G04 Layer_Color=255*
%FSLAX45Y45*%
%MOMM*%
%TF.SameCoordinates,62BC436B-7982-48EA-BC41-0FA37A5750A2*%
%TF.FilePolarity,Positive*%
%TF.FileFunction,Pads,Bot*%
%TF.Part,Single*%
G01*
G75*
%TA.AperFunction,SMDPad,CuDef*%
%ADD11R,0.30000X0.27000*%
%TA.AperFunction,ConnectorPad*%
%ADD25R,1.50000X0.35000*%
%TA.AperFunction,SMDPad,CuDef*%
%ADD30O,0.70000X0.20000*%
%ADD31O,0.20000X0.70000*%
%ADD32R,3.40000X3.40000*%
%ADD33C,1.00000*%
%TA.AperFunction,ConnectorPad*%
%ADD34R,1.00000X0.90000*%
D11*
X4525000Y9121500D02*
D03*
Y9178500D02*
D03*
X5075000Y9121500D02*
D03*
Y9178500D02*
D03*
X4875000D02*
D03*
Y9121501D02*
D03*
X4725000Y9178500D02*
D03*
Y9121501D02*
D03*
X4775000Y9178500D02*
D03*
Y9121501D02*
D03*
X5025000Y9178500D02*
D03*
Y9121501D02*
D03*
X4925000Y9178500D02*
D03*
Y9121501D02*
D03*
X4825000Y9178499D02*
D03*
Y9121500D02*
D03*
X4625000D02*
D03*
Y9178499D02*
D03*
X5175000Y9121500D02*
D03*
Y9178499D02*
D03*
X4475000Y9178500D02*
D03*
Y9121500D02*
D03*
X4675000Y9178500D02*
D03*
Y9121501D02*
D03*
X4575000Y9178500D02*
D03*
Y9121501D02*
D03*
X4975000Y9178500D02*
D03*
Y9121501D02*
D03*
X5125000Y9178500D02*
D03*
Y9121501D02*
D03*
D25*
X4344020Y8494996D02*
D03*
Y8544996D02*
D03*
Y8594996D02*
D03*
Y8644996D02*
D03*
Y8694996D02*
D03*
Y8844996D02*
D03*
Y8894996D02*
D03*
Y8944996D02*
D03*
Y8994996D02*
D03*
Y9044996D02*
D03*
D30*
X5165000Y8975000D02*
D03*
Y8935000D02*
D03*
Y8895000D02*
D03*
Y8855000D02*
D03*
Y8815000D02*
D03*
Y8775000D02*
D03*
Y8735000D02*
D03*
Y8695000D02*
D03*
Y8655000D02*
D03*
Y8615000D02*
D03*
Y8575000D02*
D03*
Y8535000D02*
D03*
Y8495000D02*
D03*
Y8455000D02*
D03*
Y8415000D02*
D03*
X4490000D02*
D03*
Y8455000D02*
D03*
Y8495000D02*
D03*
Y8535000D02*
D03*
Y8575000D02*
D03*
Y8615000D02*
D03*
Y8655000D02*
D03*
Y8695000D02*
D03*
Y8735000D02*
D03*
Y8775000D02*
D03*
Y8815000D02*
D03*
Y8855000D02*
D03*
Y8895000D02*
D03*
Y8935000D02*
D03*
Y8975000D02*
D03*
D31*
X5107500Y8357500D02*
D03*
X5067500D02*
D03*
X5027500D02*
D03*
X4987500D02*
D03*
X4947500D02*
D03*
X4907500D02*
D03*
X4867500D02*
D03*
X4827500D02*
D03*
X4787500D02*
D03*
X4747500D02*
D03*
X4707500D02*
D03*
X4667500D02*
D03*
X4627500D02*
D03*
X4587500D02*
D03*
X4547500D02*
D03*
Y9032500D02*
D03*
X4587500D02*
D03*
X4627500D02*
D03*
X4667500D02*
D03*
X4707500D02*
D03*
X4747500D02*
D03*
X4787500D02*
D03*
X4827500D02*
D03*
X4867500D02*
D03*
X4907500D02*
D03*
X4947500D02*
D03*
X4987500D02*
D03*
X5027500D02*
D03*
X5067500D02*
D03*
X5107500D02*
D03*
D32*
X4827500Y8695000D02*
D03*
D33*
X5300000Y8825000D02*
D03*
Y9125000D02*
D03*
Y8375000D02*
D03*
Y8975000D02*
D03*
Y8525000D02*
D03*
Y8675000D02*
D03*
D34*
X4369020Y8387500D02*
D03*
Y9152500D02*
D03*
%TF.MD5,1dea5ab80b37c0e3781da0da9e462c34*%
M02*
