%TF.GenerationSoftware,Altium Limited,Altium Designer,24.8.2 (39)*%
G04 Layer_Physical_Order=4*
G04 Layer_Color=16440176*
%FSLAX45Y45*%
%MOMM*%
%TF.SameCoordinates,62BC436B-7982-48EA-BC41-0FA37A5750A2*%
%TF.FilePolarity,Positive*%
%TF.FileFunction,Copper,L4,Inr,Signal*%
%TF.Part,Single*%
G01*
G75*
%TA.AperFunction,Conductor*%
%ADD26C,0.30000*%
%ADD27C,0.15240*%
%TA.AperFunction,ViaPad*%
%ADD29C,0.25000*%
G36*
X5374451Y8275549D02*
X4250549D01*
Y8364676D01*
X4309020D01*
X4316674Y8367846D01*
X4319844Y8375500D01*
Y8462500D01*
X4316674Y8470154D01*
X4309020Y8473324D01*
X4250549D01*
Y9067176D01*
X4309020D01*
X4316674Y9070346D01*
X4319844Y9078000D01*
Y9128000D01*
X4316674Y9135654D01*
X4309020Y9138824D01*
X4250549D01*
Y9224451D01*
X5374451D01*
Y8275549D01*
D02*
G37*
%LPC*%
G36*
X4925792Y9144771D02*
X4916841D01*
X4908571Y9141345D01*
X4902242Y9135016D01*
X4898816Y9126746D01*
Y9117795D01*
X4902242Y9109526D01*
X4908571Y9103196D01*
X4916841Y9099771D01*
X4925792D01*
X4934061Y9103196D01*
X4940390Y9109526D01*
X4943816Y9117795D01*
Y9126746D01*
X4940390Y9135016D01*
X4934061Y9141345D01*
X4925792Y9144771D01*
D02*
G37*
G36*
X4479476Y9144000D02*
X4470525D01*
X4462255Y9140575D01*
X4455926Y9134245D01*
X4452500Y9125976D01*
Y9117025D01*
X4455926Y9108755D01*
X4462255Y9102426D01*
X4470525Y9099000D01*
X4479476D01*
X4487745Y9102426D01*
X4494075Y9108755D01*
X4497500Y9117025D01*
Y9125976D01*
X4494075Y9134245D01*
X4487745Y9140575D01*
X4479476Y9144000D01*
D02*
G37*
G36*
X5111976Y9055000D02*
X5103025D01*
X5094755Y9051574D01*
X5088426Y9045245D01*
X5085000Y9036976D01*
Y9028025D01*
X5088426Y9019755D01*
X5094755Y9013426D01*
X5103025Y9010000D01*
X5111976D01*
X5120245Y9013426D01*
X5126574Y9019755D01*
X5130000Y9028025D01*
Y9036976D01*
X5126574Y9045245D01*
X5120245Y9051574D01*
X5111976Y9055000D01*
D02*
G37*
G36*
X4631975D02*
X4623025D01*
X4614755Y9051574D01*
X4608426Y9045245D01*
X4605000Y9036976D01*
Y9028025D01*
X4608426Y9019755D01*
X4614755Y9013426D01*
X4623025Y9010000D01*
X4631975D01*
X4640245Y9013426D01*
X4646574Y9019755D01*
X4650000Y9028025D01*
Y9036976D01*
X4646574Y9045245D01*
X4640245Y9051574D01*
X4631975Y9055000D01*
D02*
G37*
G36*
X4551976D02*
X4543025D01*
X4534755Y9051574D01*
X4528426Y9045245D01*
X4525000Y9036976D01*
Y9028025D01*
X4528426Y9019755D01*
X4534755Y9013426D01*
X4543025Y9010000D01*
X4551976D01*
X4560245Y9013426D01*
X4566575Y9019755D01*
X4570000Y9028025D01*
Y9036976D01*
X4566575Y9045245D01*
X4560245Y9051574D01*
X4551976Y9055000D01*
D02*
G37*
G36*
X4894476Y8982500D02*
X4885525D01*
X4877255Y8979074D01*
X4870926Y8972745D01*
X4867500Y8964476D01*
Y8955525D01*
X4870926Y8947255D01*
X4877255Y8940926D01*
X4885525Y8937500D01*
X4894476D01*
X4902745Y8940926D01*
X4909075Y8947255D01*
X4912500Y8955525D01*
Y8964476D01*
X4909075Y8972745D01*
X4902745Y8979074D01*
X4894476Y8982500D01*
D02*
G37*
G36*
X5234475Y8952500D02*
X5225524D01*
X5217255Y8949074D01*
X5210926Y8942745D01*
X5207500Y8934475D01*
Y8925524D01*
X5210926Y8917255D01*
X5217255Y8910926D01*
X5225524Y8907500D01*
X5234475D01*
X5242745Y8910926D01*
X5249074Y8917255D01*
X5252500Y8925524D01*
Y8934475D01*
X5249074Y8942745D01*
X5242745Y8949074D01*
X5234475Y8952500D01*
D02*
G37*
G36*
X5084475D02*
X5075525D01*
X5067255Y8949074D01*
X5060926Y8942745D01*
X5057500Y8934475D01*
Y8925524D01*
X5060926Y8917255D01*
X5067255Y8910926D01*
X5075525Y8907500D01*
X5084475D01*
X5092745Y8910926D01*
X5099074Y8917255D01*
X5102500Y8925524D01*
Y8934475D01*
X5099074Y8942745D01*
X5092745Y8949074D01*
X5084475Y8952500D01*
D02*
G37*
G36*
X5169476Y8957500D02*
X5160525D01*
X5152255Y8954075D01*
X5145926Y8947745D01*
X5142500Y8939476D01*
Y8930525D01*
X5145926Y8922255D01*
X5147871Y8920310D01*
X5151604Y8915000D01*
X5147871Y8909690D01*
X5145926Y8907745D01*
X5142500Y8899475D01*
Y8890525D01*
X5145926Y8882255D01*
X5152255Y8875926D01*
X5160525Y8872500D01*
X5169476D01*
X5177745Y8875926D01*
X5184074Y8882255D01*
X5187500Y8890525D01*
Y8899475D01*
X5184074Y8907745D01*
X5182129Y8909690D01*
X5178396Y8915000D01*
X5182129Y8920310D01*
X5184074Y8922255D01*
X5187500Y8930525D01*
Y8939476D01*
X5184074Y8947745D01*
X5177745Y8954075D01*
X5169476Y8957500D01*
D02*
G37*
G36*
X4348496Y8917496D02*
X4339545D01*
X4331275Y8914070D01*
X4324946Y8907741D01*
X4321520Y8899471D01*
Y8890520D01*
X4324946Y8882251D01*
X4331275Y8875922D01*
X4339545Y8872496D01*
X4348496D01*
X4356765Y8875922D01*
X4363095Y8882251D01*
X4366520Y8890520D01*
Y8899471D01*
X4363095Y8907741D01*
X4356765Y8914070D01*
X4348496Y8917496D01*
D02*
G37*
G36*
Y8817496D02*
X4339545D01*
X4331275Y8814070D01*
X4324946Y8807741D01*
X4321520Y8799471D01*
Y8790520D01*
X4324946Y8782251D01*
X4331275Y8775921D01*
X4334961Y8774395D01*
Y8765597D01*
X4331275Y8764070D01*
X4324946Y8757741D01*
X4321520Y8749471D01*
Y8740520D01*
X4324946Y8732251D01*
X4331275Y8725922D01*
X4339545Y8722496D01*
X4348496D01*
X4356765Y8725922D01*
X4363095Y8732251D01*
X4366520Y8740520D01*
Y8749471D01*
X4363095Y8757741D01*
X4356765Y8764070D01*
X4353080Y8765597D01*
Y8774395D01*
X4356765Y8775921D01*
X4363095Y8782251D01*
X4366520Y8790520D01*
Y8799471D01*
X4363095Y8807741D01*
X4356765Y8814070D01*
X4348496Y8817496D01*
D02*
G37*
G36*
X5169476Y8757500D02*
X5160525D01*
X5152255Y8754074D01*
X5145926Y8747745D01*
X5142500Y8739476D01*
Y8730525D01*
X5145926Y8722255D01*
X5152255Y8715926D01*
X5160525Y8712500D01*
X5169476D01*
X5177745Y8715926D01*
X5184074Y8722255D01*
X5187500Y8730525D01*
Y8739476D01*
X5184074Y8747745D01*
X5177745Y8754074D01*
X5169476Y8757500D01*
D02*
G37*
G36*
X5079476Y8722500D02*
X5070525D01*
X5062256Y8719075D01*
X5055926Y8712745D01*
X5052501Y8704476D01*
Y8695525D01*
X5055926Y8687255D01*
X5062256Y8680926D01*
X5070525Y8677500D01*
X5079476D01*
X5087745Y8680926D01*
X5094075Y8687255D01*
X5097500Y8695525D01*
Y8704476D01*
X5094075Y8712745D01*
X5087745Y8719075D01*
X5079476Y8722500D01*
D02*
G37*
G36*
X4879475Y8722499D02*
X4870524D01*
X4862255Y8719074D01*
X4855926Y8712745D01*
X4852500Y8704475D01*
Y8695524D01*
X4855926Y8687255D01*
X4862255Y8680925D01*
X4870524Y8677500D01*
X4879475D01*
X4887745Y8680925D01*
X4894074Y8687255D01*
X4897500Y8695524D01*
Y8704475D01*
X4894074Y8712745D01*
X4887745Y8719074D01*
X4879475Y8722499D01*
D02*
G37*
G36*
X4374401Y8718089D02*
X4365450D01*
X4357180Y8714664D01*
X4350851Y8708334D01*
X4347425Y8700065D01*
Y8691114D01*
X4350851Y8682844D01*
X4357180Y8676515D01*
X4365450Y8673090D01*
X4374401D01*
X4382670Y8676515D01*
X4389000Y8682844D01*
X4392425Y8691114D01*
Y8700065D01*
X4389000Y8708334D01*
X4382670Y8714664D01*
X4374401Y8718089D01*
D02*
G37*
G36*
X4348496Y8667496D02*
X4339545D01*
X4331275Y8664070D01*
X4324946Y8657741D01*
X4321520Y8649471D01*
Y8640520D01*
X4324946Y8632251D01*
X4331275Y8625922D01*
X4339545Y8622496D01*
X4348496D01*
X4356765Y8625922D01*
X4363095Y8632251D01*
X4366520Y8640520D01*
Y8649471D01*
X4363095Y8657741D01*
X4356765Y8664070D01*
X4348496Y8667496D01*
D02*
G37*
G36*
X4536998Y8720490D02*
X4490000D01*
X4480246Y8718549D01*
X4471976Y8713024D01*
X4466451Y8704754D01*
X4464511Y8695000D01*
X4466451Y8685246D01*
X4471976Y8676976D01*
X4480246Y8671451D01*
X4490000Y8669510D01*
X4526440D01*
X4559047Y8636904D01*
X4554514Y8630057D01*
X4554456Y8630000D01*
X4545525D01*
X4537255Y8626574D01*
X4530926Y8620245D01*
X4527500Y8611975D01*
Y8603024D01*
X4530926Y8594755D01*
X4537255Y8588426D01*
X4545525Y8585000D01*
X4547093D01*
X4730167Y8401926D01*
Y8389415D01*
X4729399Y8387559D01*
X4720601D01*
X4719074Y8391244D01*
X4712745Y8397574D01*
X4704475Y8400999D01*
X4695525D01*
X4687255Y8397574D01*
X4680926Y8391244D01*
X4677500Y8382975D01*
Y8374024D01*
X4680926Y8365754D01*
X4687255Y8359425D01*
X4695525Y8356000D01*
X4704475D01*
X4712745Y8359425D01*
X4719074Y8365754D01*
X4720601Y8369440D01*
X4729399D01*
X4730926Y8365755D01*
X4737255Y8359425D01*
X4745524Y8356000D01*
X4754475D01*
X4762745Y8359425D01*
X4769074Y8365755D01*
X4772500Y8374024D01*
Y8382975D01*
X4769074Y8391245D01*
X4766098Y8394221D01*
Y8409367D01*
X4764730Y8416243D01*
X4760836Y8422071D01*
X4577421Y8605485D01*
X4577563Y8606893D01*
X4586036Y8609915D01*
X4606301Y8589650D01*
X4614570Y8584125D01*
X4624325Y8582184D01*
X4671323D01*
X4681077Y8584125D01*
X4689346Y8589650D01*
X4694872Y8597920D01*
X4696812Y8607674D01*
X4694872Y8617428D01*
X4689346Y8625698D01*
X4681077Y8631223D01*
X4671323Y8633164D01*
X4634883D01*
X4555022Y8713024D01*
X4546753Y8718549D01*
X4536998Y8720490D01*
D02*
G37*
G36*
X4824475Y9102500D02*
X4815525D01*
X4807255Y9099074D01*
X4800926Y9092745D01*
X4797500Y9084475D01*
Y9075524D01*
X4800926Y9067255D01*
X4802035Y9066146D01*
Y8967441D01*
X4720924Y8886330D01*
X4717030Y8880502D01*
X4715662Y8873627D01*
Y8681277D01*
X4717030Y8674402D01*
X4720924Y8668573D01*
X4723095Y8666402D01*
Y8622571D01*
X4724463Y8615696D01*
X4724655Y8615409D01*
Y8561685D01*
X4726022Y8554810D01*
X4729917Y8548982D01*
X4762372Y8516526D01*
X4757768Y8509636D01*
X4754475Y8511000D01*
X4745524D01*
X4737255Y8507574D01*
X4730926Y8501245D01*
X4727500Y8492975D01*
Y8484024D01*
X4730926Y8475755D01*
X4737255Y8469426D01*
X4745524Y8466000D01*
X4754475D01*
X4762745Y8469426D01*
X4769074Y8475755D01*
X4772500Y8484024D01*
Y8490285D01*
X4778870Y8494773D01*
X4780009Y8495095D01*
X4782035Y8493775D01*
Y8445354D01*
X4780926Y8444245D01*
X4777500Y8435976D01*
Y8427025D01*
X4780926Y8418755D01*
X4787255Y8412426D01*
X4795525Y8409000D01*
X4804476D01*
X4812745Y8412426D01*
X4819074Y8418755D01*
X4822500Y8427025D01*
Y8435976D01*
X4819074Y8444245D01*
X4817965Y8445354D01*
Y8486008D01*
X4825475Y8489119D01*
X4837500Y8477093D01*
Y8475525D01*
X4840926Y8467255D01*
X4847255Y8460926D01*
X4855524Y8457500D01*
X4864475D01*
X4872745Y8460926D01*
X4879074Y8467255D01*
X4882500Y8475525D01*
Y8484476D01*
X4879074Y8492745D01*
X4872745Y8499074D01*
X4864475Y8502500D01*
X4862907D01*
X4785825Y8579582D01*
Y8631466D01*
X4785465Y8633276D01*
Y8676146D01*
X4786574Y8677255D01*
X4790000Y8685525D01*
Y8694476D01*
X4786574Y8702745D01*
X4780245Y8709075D01*
X4771975Y8712500D01*
X4763025D01*
X4759721Y8711131D01*
X4751592Y8716532D01*
Y8866186D01*
X4832703Y8947297D01*
X4836598Y8953125D01*
X4837965Y8960000D01*
Y9066146D01*
X4839074Y9067255D01*
X4842500Y9075524D01*
Y9084475D01*
X4839074Y9092745D01*
X4832745Y9099074D01*
X4824475Y9102500D01*
D02*
G37*
G36*
X4954475Y8462500D02*
X4945525D01*
X4937255Y8459075D01*
X4930926Y8452745D01*
X4927500Y8444476D01*
Y8435525D01*
X4930926Y8427255D01*
X4937255Y8420926D01*
X4945525Y8417500D01*
X4954475D01*
X4962745Y8420926D01*
X4969074Y8427255D01*
X4972500Y8435525D01*
Y8444476D01*
X4969074Y8452745D01*
X4962745Y8459075D01*
X4954475Y8462500D01*
D02*
G37*
G36*
X5054476Y8462500D02*
X5045525D01*
X5037255Y8459074D01*
X5030926Y8452745D01*
X5027500Y8444475D01*
Y8435524D01*
X5030926Y8427255D01*
X5037255Y8420925D01*
X5045525Y8417500D01*
X5054476D01*
X5062745Y8420925D01*
X5069074Y8427255D01*
X5072500Y8435524D01*
Y8444475D01*
X5069074Y8452745D01*
X5062745Y8459074D01*
X5054476Y8462500D01*
D02*
G37*
G36*
X4911975Y8380000D02*
X4903024D01*
X4894755Y8376575D01*
X4888426Y8370245D01*
X4885000Y8361976D01*
Y8353025D01*
X4888426Y8344755D01*
X4894755Y8338426D01*
X4903024Y8335000D01*
X4911975D01*
X4920245Y8338426D01*
X4926574Y8344755D01*
X4930000Y8353025D01*
Y8361976D01*
X4926574Y8370245D01*
X4920245Y8376575D01*
X4911975Y8380000D01*
D02*
G37*
G36*
X4804476Y8342500D02*
X4795525D01*
X4787255Y8339075D01*
X4780926Y8332745D01*
X4777500Y8324476D01*
Y8315525D01*
X4780926Y8307255D01*
X4787255Y8300926D01*
X4795525Y8297500D01*
X4804476D01*
X4812745Y8300926D01*
X4819074Y8307255D01*
X4822500Y8315525D01*
Y8324476D01*
X4819074Y8332745D01*
X4812745Y8339075D01*
X4804476Y8342500D01*
D02*
G37*
%LPD*%
D26*
X4536998Y8695000D02*
X4624325Y8607674D01*
X4671323D01*
X4490000Y8695000D02*
X4536998D01*
D27*
X4767860Y8572140D02*
X4860000Y8480000D01*
X4767860Y8572140D02*
Y8631466D01*
X4742620Y8561685D02*
Y8621011D01*
X4748132Y8380367D02*
X4750000Y8378500D01*
X4748132Y8380367D02*
Y8409367D01*
X4550000Y8607500D02*
X4748132Y8409367D01*
X4742620Y8561685D02*
X4800000Y8504305D01*
X4741060Y8622571D02*
X4742620Y8621011D01*
X4767500Y8631826D02*
X4767860Y8631466D01*
X4741060Y8622571D02*
Y8673844D01*
X4767500Y8631826D02*
Y8690000D01*
X4800000Y8431500D02*
Y8504305D01*
X4733627Y8681277D02*
Y8873627D01*
X4820000Y8960000D01*
X4733627Y8681277D02*
X4741060Y8673844D01*
X4820000Y8960000D02*
Y9080000D01*
D29*
X4475000Y9121500D02*
D03*
X4369925Y8695589D02*
D03*
X4344020Y8894996D02*
D03*
Y8644996D02*
D03*
X4950000Y8440000D02*
D03*
X5050000Y8440000D02*
D03*
X4700000Y8320000D02*
D03*
X4671323Y8607674D02*
D03*
X5230000Y8930000D02*
D03*
X4860000Y8480000D02*
D03*
X4610000D02*
D03*
X4487500Y8342500D02*
D03*
X5220000Y8655000D02*
D03*
Y9105000D02*
D03*
X4975000Y9000000D02*
D03*
X4492500Y8850000D02*
D03*
X4767500Y8690000D02*
D03*
X4800000Y8320000D02*
D03*
X4890000Y8960000D02*
D03*
X4940000Y8810000D02*
D03*
X4820000Y9080000D02*
D03*
X4698702Y8701298D02*
D03*
X4550000Y8607500D02*
D03*
X4800000Y8431500D02*
D03*
X4750000Y8378500D02*
D03*
X4700000Y8378499D02*
D03*
X4750000Y8488500D02*
D03*
X4700000Y8810000D02*
D03*
X5075001Y8700000D02*
D03*
X4921316Y9122271D02*
D03*
X4875000Y8700000D02*
D03*
X4344020Y8744996D02*
D03*
Y8794996D02*
D03*
X5080000Y8930000D02*
D03*
X4907500Y8357500D02*
D03*
X4627500Y9032500D02*
D03*
X5165000Y8735000D02*
D03*
Y8895000D02*
D03*
Y8935000D02*
D03*
X5107500Y9032500D02*
D03*
X4547500D02*
D03*
X4940000Y8690000D02*
D03*
X4490000Y8695000D02*
D03*
X4350000Y8360000D02*
D03*
X4400000D02*
D03*
Y8410000D02*
D03*
X4350000D02*
D03*
X4344020Y8494996D02*
D03*
Y8644996D02*
D03*
Y8894996D02*
D03*
Y9044996D02*
D03*
X4340000Y9130000D02*
D03*
X4390000D02*
D03*
Y9180000D02*
D03*
X4340000D02*
D03*
%TF.MD5,821ada06adb884b1cc3009deb6432627*%
M02*
