%TF.GenerationSoftware,Altium Limited,Altium Designer,24.8.2 (39)*%
G04 Layer_Color=32768*
%FSLAX45Y45*%
%MOMM*%
%TF.SameCoordinates,62BC436B-7982-48EA-BC41-0FA37A5750A2*%
%TF.FilePolarity,Positive*%
%TF.FileFunction,Other,Mechanical_15*%
%TF.Part,Single*%
G01*
G75*
%TA.AperFunction,NonConductor*%
%ADD60C,0.05000*%
%ADD61C,0.10000*%
D60*
X5210000Y8312500D02*
Y9077500D01*
X4445000Y8312500D02*
Y9077500D01*
X5210000D01*
X4445000Y8312500D02*
X5210000D01*
D61*
X4912500Y8837500D02*
Y9012500D01*
X4837500Y8837500D02*
Y9012500D01*
X4912500D01*
X4837500Y8837500D02*
X4912500D01*
X4875000Y8897500D02*
Y8952500D01*
X4847500Y8925000D02*
X4902500D01*
X4677000Y8400000D02*
X4723000D01*
X4677000Y8300000D02*
X4723000D01*
Y8400000D01*
X4677000Y8300000D02*
Y8400000D01*
X4700000Y8333500D02*
Y8366500D01*
X4683500Y8350000D02*
X4716500D01*
X4783500Y8350000D02*
X4816500D01*
X4800000Y8333500D02*
Y8366500D01*
X4777000Y8300000D02*
Y8400000D01*
X4823000Y8300000D02*
Y8400000D01*
X4777000Y8300000D02*
X4823000D01*
X4777000Y8400000D02*
X4823000D01*
X4733500Y8460000D02*
X4766500D01*
X4750000Y8443500D02*
Y8476500D01*
X4727000Y8410000D02*
Y8510000D01*
X4773000Y8410000D02*
Y8510000D01*
X4727000Y8410000D02*
X4773000D01*
X4727000Y8510000D02*
X4773000D01*
X4725000Y8527000D02*
Y8573000D01*
X4825000Y8527000D02*
Y8573000D01*
X4725000D02*
X4825000D01*
X4725000Y8527000D02*
X4825000D01*
X4758500Y8550000D02*
X4791500D01*
X4775000Y8533500D02*
Y8566500D01*
X5025000Y8672500D02*
Y8727500D01*
X4997501Y8700000D02*
X5052500D01*
X4935001Y8665000D02*
Y8735000D01*
X5115000Y8665000D02*
Y8735000D01*
X4935001D02*
X5115000D01*
X4935001Y8665000D02*
X5115000D01*
X5025000Y8972500D02*
Y9027500D01*
X4997500Y9000000D02*
X5052500D01*
X4935000Y8965000D02*
Y9035000D01*
X5115000Y8965000D02*
Y9035000D01*
X4935000D02*
X5115000D01*
X4935000Y8965000D02*
X5115000D01*
X4508500Y9150000D02*
X4541500D01*
X4525000Y9133500D02*
Y9166500D01*
X4502000Y9100000D02*
Y9200000D01*
X4548000Y9100000D02*
Y9200000D01*
X4502000D02*
X4548000D01*
X4502000Y9100000D02*
X4548000D01*
X4727000Y8400000D02*
X4773000D01*
X4727000Y8300000D02*
X4773000D01*
Y8400000D01*
X4727000Y8300000D02*
Y8400000D01*
X4750000Y8333500D02*
Y8366500D01*
X4733500Y8350000D02*
X4766500D01*
X5250000Y8717000D02*
Y8763000D01*
X5150000Y8717000D02*
Y8763000D01*
Y8717000D02*
X5250000D01*
X5150000Y8763000D02*
X5250000D01*
X5183500Y8740000D02*
X5216500D01*
X5200000Y8723500D02*
Y8756500D01*
X5058500Y9150000D02*
X5091500D01*
X5075000Y9133500D02*
Y9166500D01*
X5052000Y9100000D02*
Y9200000D01*
X5098000Y9100000D02*
Y9200000D01*
X5052000D02*
X5098000D01*
X5052000Y9100000D02*
X5098000D01*
X4777500Y8695000D02*
X4877500D01*
X4827500Y8645000D02*
Y8745000D01*
X4683500Y8460000D02*
X4716500D01*
X4700000Y8443500D02*
Y8476500D01*
X4677000Y8410000D02*
Y8510000D01*
X4723000Y8410000D02*
Y8510000D01*
X4677000Y8410000D02*
X4723000D01*
X4677000Y8510000D02*
X4723000D01*
X4783500Y8460000D02*
X4816500D01*
X4800000Y8443500D02*
Y8476500D01*
X4777000Y8410000D02*
Y8510000D01*
X4823000Y8410000D02*
Y8510000D01*
X4777000Y8410000D02*
X4823000D01*
X4777000Y8510000D02*
X4823000D01*
X5025000Y8897500D02*
Y8952500D01*
X4997500Y8925000D02*
X5052500D01*
X4935000Y8890000D02*
Y8960000D01*
X5115000Y8890000D02*
Y8960000D01*
X4935000D02*
X5115000D01*
X4935000Y8890000D02*
X5115000D01*
X4840000Y8660000D02*
Y8840000D01*
X4910000Y8660000D02*
Y8840000D01*
X4840000Y8660000D02*
X4910000D01*
X4840000Y8840000D02*
X4910000D01*
X4875000Y8722500D02*
Y8777500D01*
X4847500Y8750000D02*
X4902500D01*
X4852000Y9100000D02*
X4898000D01*
X4852000Y9200000D02*
X4898000D01*
Y9100000D02*
Y9200000D01*
X4852000Y9100000D02*
Y9200000D01*
X4875000Y9133500D02*
Y9166500D01*
X4858500Y9150000D02*
X4891500D01*
X4702000Y9100000D02*
X4748000D01*
X4702000Y9200000D02*
X4748000D01*
Y9100000D02*
Y9200000D01*
X4702000Y9100000D02*
Y9200000D01*
X4725000Y9133500D02*
Y9166500D01*
X4708500Y9150000D02*
X4741500D01*
X4752000Y9100000D02*
X4798000D01*
X4752000Y9200000D02*
X4798000D01*
Y9100000D02*
Y9200000D01*
X4752000Y9100000D02*
Y9200000D01*
X4775000Y9133500D02*
Y9166500D01*
X4758500Y9150000D02*
X4791500D01*
X5002000Y9100000D02*
X5048000D01*
X5002000Y9200000D02*
X5048000D01*
Y9100000D02*
Y9200000D01*
X5002000Y9100000D02*
Y9200000D01*
X5025000Y9133500D02*
Y9166500D01*
X5008500Y9150000D02*
X5041500D01*
X4902000Y9100000D02*
X4948000D01*
X4902000Y9200000D02*
X4948000D01*
Y9100000D02*
Y9200000D01*
X4902000Y9100000D02*
Y9200000D01*
X4925000Y9133500D02*
Y9166500D01*
X4908500Y9150000D02*
X4941500D01*
X4808500D02*
X4841500D01*
X4825000Y9133500D02*
Y9166500D01*
X4848000Y9100000D02*
Y9200000D01*
X4802000Y9100000D02*
Y9200000D01*
Y9100000D02*
X4848000D01*
X4802000Y9200000D02*
X4848000D01*
X4602000D02*
X4648000D01*
X4602000Y9100000D02*
X4648000D01*
X4602000D02*
Y9200000D01*
X4648000Y9100000D02*
Y9200000D01*
X4625000Y9133500D02*
Y9166500D01*
X4608500Y9150000D02*
X4641500D01*
X5152000Y9200000D02*
X5198000D01*
X5152000Y9100000D02*
X5198000D01*
X5152000D02*
Y9200000D01*
X5198000Y9100000D02*
Y9200000D01*
X5175000Y9133500D02*
Y9166500D01*
X5158500Y9150000D02*
X5191500D01*
X4452000Y9100000D02*
X4498000D01*
X4452000Y9200000D02*
X4498000D01*
Y9100000D02*
Y9200000D01*
X4452000Y9100000D02*
Y9200000D01*
X4475000Y9133500D02*
Y9166500D01*
X4458500Y9150000D02*
X4491500D01*
X4652000Y9100000D02*
X4698000D01*
X4652000Y9200000D02*
X4698000D01*
Y9100000D02*
Y9200000D01*
X4652000Y9100000D02*
Y9200000D01*
X4675000Y9133500D02*
Y9166500D01*
X4658500Y9150000D02*
X4691500D01*
X4552000Y9100000D02*
X4598000D01*
X4552000Y9200000D02*
X4598000D01*
Y9100000D02*
Y9200000D01*
X4552000Y9100000D02*
Y9200000D01*
X4575000Y9133500D02*
Y9166500D01*
X4558500Y9150000D02*
X4591500D01*
X4952000Y9100000D02*
X4998000D01*
X4952000Y9200000D02*
X4998000D01*
Y9100000D02*
Y9200000D01*
X4952000Y9100000D02*
Y9200000D01*
X4975000Y9133500D02*
Y9166500D01*
X4958500Y9150000D02*
X4991500D01*
X5102000Y9100000D02*
X5148000D01*
X5102000Y9200000D02*
X5148000D01*
Y9100000D02*
Y9200000D01*
X5102000Y9100000D02*
Y9200000D01*
X5125000Y9133500D02*
Y9166500D01*
X5108500Y9150000D02*
X5141500D01*
X4935001Y8740000D02*
X5115000D01*
X4935001Y8810000D02*
X5115000D01*
Y8740000D02*
Y8810000D01*
X4935001Y8740000D02*
Y8810000D01*
X4997501Y8775000D02*
X5052500D01*
X5025000Y8747500D02*
Y8802500D01*
X4935001Y8815000D02*
X5115000D01*
X4935001Y8885000D02*
X5115000D01*
Y8815000D02*
Y8885000D01*
X4935001Y8815000D02*
Y8885000D01*
X4997501Y8850000D02*
X5052500D01*
X5025000Y8822500D02*
Y8877500D01*
%TF.MD5,897cb8586387a6ca9b46db13bfbcbcd7*%
M02*
