%TF.GenerationSoftware,Altium Limited,Altium Designer,24.8.2 (39)*%
G04 Layer_Color=2752767*
%FSLAX45Y45*%
%MOMM*%
%TF.SameCoordinates,62BC436B-7982-48EA-BC41-0FA37A5750A2*%
%TF.FilePolarity,Positive*%
%TF.FileFunction,Drawing*%
%TF.Part,Single*%
G01*
G75*
%TA.AperFunction,NonConductor*%
%ADD59C,0.12700*%
D59*
X4698828Y8284200D02*
Y8385800D01*
X4800428D01*
Y8284200D01*
X4698828D01*
X5119200Y8289200D02*
Y8390800D01*
X5220800D01*
Y8289200D01*
X5119200D01*
X4496700Y8306700D02*
Y8408300D01*
X4598300D01*
Y8306700D01*
X4496700D01*
X4779200Y8759200D02*
Y8860800D01*
X4880800D01*
Y8759200D01*
X4779200D01*
X5249200Y8924200D02*
Y9025800D01*
X5350800D01*
Y8924200D01*
X5249200D01*
Y8474200D02*
Y8575800D01*
X5350800D01*
Y8474200D01*
X5249200D01*
Y8624200D02*
Y8725800D01*
X5350800D01*
Y8624200D01*
X5249200D01*
X4736700Y8306700D02*
Y8408300D01*
X4838300D01*
Y8306700D01*
X4736700D01*
X4896700D02*
Y8408300D01*
X4998300D01*
Y8306700D01*
X4896700D01*
X4776700D02*
Y8408300D01*
X4878300D01*
Y8306700D01*
X4776700D01*
X5016700Y8981700D02*
Y9083300D01*
X5118300D01*
Y8981700D01*
X5016700D01*
X5249200Y8324200D02*
Y8425800D01*
X5350800D01*
Y8324200D01*
X5249200D01*
Y9074200D02*
Y9175800D01*
X5350800D01*
Y9074200D01*
X5249200D01*
Y8774200D02*
Y8875800D01*
X5350800D01*
Y8774200D01*
X5249200D01*
X5114200Y8524200D02*
Y8625800D01*
X5215800D01*
Y8524200D01*
X5114200D01*
Y8724200D02*
Y8825800D01*
X5215800D01*
Y8724200D01*
X5114200D01*
Y8924200D02*
Y9025800D01*
X5215800D01*
Y8924200D01*
X5114200D01*
X4736700Y8981700D02*
Y9083300D01*
X4838300D01*
Y8981700D01*
X4736700D01*
X4696700D02*
Y9083300D01*
X4798300D01*
Y8981700D01*
X4696700D01*
X4889200Y8559200D02*
Y8660800D01*
X4990800D01*
Y8559200D01*
X4889200D01*
X4779200D02*
Y8660800D01*
X4880800D01*
Y8559200D01*
X4779200D01*
X4776700Y8644200D02*
Y8745800D01*
X4878300D01*
Y8644200D01*
X4776700D01*
X4536700Y8981700D02*
Y9083300D01*
X4638300D01*
Y8981700D01*
X4536700D01*
X4439200Y8924200D02*
Y9025800D01*
X4540800D01*
Y8924200D01*
X4439200D01*
Y8884200D02*
Y8985800D01*
X4540800D01*
Y8884200D01*
X4439200D01*
Y8684200D02*
Y8785800D01*
X4540800D01*
Y8684200D01*
X4439200D01*
X4293220Y8794196D02*
Y8895796D01*
X4394820D01*
Y8794196D01*
X4293220D01*
X4474200Y9070700D02*
Y9172300D01*
X4575800D01*
Y9070700D01*
X4474200D01*
X4674200Y9070701D02*
Y9172301D01*
X4775800D01*
Y9070701D01*
X4674200D01*
X4724200D02*
Y9172301D01*
X4825800D01*
Y9070701D01*
X4724200D01*
X5124200Y9070700D02*
Y9172300D01*
X5225800D01*
Y9070700D01*
X5124200D01*
X5074200Y9127700D02*
Y9229300D01*
X5175800D01*
Y9127700D01*
X5074200D01*
X4974200D02*
Y9229300D01*
X5075800D01*
Y9127700D01*
X4974200D01*
X4874200D02*
Y9229300D01*
X4975800D01*
Y9127700D01*
X4874200D01*
X4924200Y9070701D02*
Y9172301D01*
X5025800D01*
Y9070701D01*
X4924200D01*
X4824200D02*
Y9172301D01*
X4925800D01*
Y9070701D01*
X4824200D01*
X4624200D02*
Y9172301D01*
X4725800D01*
Y9070701D01*
X4624200D01*
X4524200D02*
Y9172301D01*
X4625800D01*
Y9070701D01*
X4524200D01*
X4774200Y9127699D02*
Y9229299D01*
X4875800D01*
Y9127699D01*
X4774200D01*
X4674200Y9127700D02*
Y9229300D01*
X4775800D01*
Y9127700D01*
X4674200D01*
X4574200Y9127699D02*
Y9229299D01*
X4675800D01*
Y9127699D01*
X4574200D01*
X4474200Y9127700D02*
Y9229300D01*
X4575800D01*
Y9127700D01*
X4474200D01*
%TF.MD5,6fa7c11f99c2ac16bac5aed7077944d2*%
M02*
