%TF.GenerationSoftware,Altium Limited,Altium Designer,24.8.2 (39)*%
G04 Layer_Physical_Order=7*
G04 Layer_Color=16737945*
%FSLAX45Y45*%
%MOMM*%
%TF.SameCoordinates,62BC436B-7982-48EA-BC41-0FA37A5750A2*%
%TF.FilePolarity,Positive*%
%TF.FileFunction,Copper,L7,Inr,Signal*%
%TF.Part,Single*%
G01*
G75*
%TA.AperFunction,Conductor*%
%ADD26C,0.30000*%
%ADD27C,0.15240*%
%TA.AperFunction,ViaPad*%
%ADD29C,0.25000*%
G36*
X5374451Y8275549D02*
X4250549D01*
Y8364676D01*
X4309020D01*
X4316674Y8367846D01*
X4319844Y8375500D01*
Y8404385D01*
X4327500Y8405524D01*
X4330926Y8397255D01*
X4337255Y8390926D01*
X4340941Y8389399D01*
Y8380601D01*
X4337255Y8379074D01*
X4330926Y8372745D01*
X4327500Y8364476D01*
Y8355525D01*
X4330926Y8347255D01*
X4337255Y8340926D01*
X4345524Y8337500D01*
X4354475D01*
X4362745Y8340926D01*
X4369074Y8347255D01*
X4370601Y8350941D01*
X4379399D01*
X4380926Y8347255D01*
X4387255Y8340926D01*
X4395525Y8337500D01*
X4404476D01*
X4412745Y8340926D01*
X4419074Y8347255D01*
X4422500Y8355525D01*
Y8364476D01*
X4419074Y8372745D01*
X4412745Y8379074D01*
X4409060Y8380601D01*
Y8389399D01*
X4412745Y8390926D01*
X4419074Y8397255D01*
X4422500Y8405524D01*
Y8414475D01*
X4419074Y8422745D01*
X4412745Y8429074D01*
X4404476Y8432500D01*
X4395525D01*
X4387255Y8429074D01*
X4380926Y8422745D01*
X4379399Y8419059D01*
X4370601D01*
X4369074Y8422745D01*
X4362745Y8429074D01*
X4354475Y8432500D01*
X4345524D01*
X4337255Y8429074D01*
X4330926Y8422745D01*
X4327500Y8414476D01*
X4319844Y8415615D01*
Y8462500D01*
X4316674Y8470154D01*
X4309020Y8473324D01*
X4250549D01*
Y9067176D01*
X4309020D01*
X4316674Y9070346D01*
X4319844Y9078000D01*
Y9106842D01*
X4324383Y9109343D01*
X4327972Y9110628D01*
X4335524Y9107500D01*
X4344475D01*
X4352745Y9110926D01*
X4359074Y9117255D01*
X4360601Y9120941D01*
X4369399D01*
X4370926Y9117255D01*
X4377255Y9110926D01*
X4385525Y9107500D01*
X4394476D01*
X4402745Y9110926D01*
X4409074Y9117255D01*
X4412500Y9125525D01*
Y9134476D01*
X4409074Y9142745D01*
X4402745Y9149074D01*
X4399060Y9150601D01*
Y9159399D01*
X4402745Y9160926D01*
X4409074Y9167255D01*
X4412500Y9175524D01*
Y9184475D01*
X4409074Y9192745D01*
X4402745Y9199074D01*
X4394476Y9202500D01*
X4385525D01*
X4377255Y9199074D01*
X4370926Y9192745D01*
X4369399Y9189059D01*
X4360601D01*
X4359074Y9192745D01*
X4352745Y9199074D01*
X4344475Y9202500D01*
X4335524D01*
X4327255Y9199074D01*
X4320926Y9192745D01*
X4317500Y9184475D01*
Y9175524D01*
X4320926Y9167255D01*
X4327255Y9160926D01*
X4330941Y9159399D01*
Y9150601D01*
X4327255Y9149074D01*
X4320926Y9142745D01*
X4320714Y9142234D01*
X4316674Y9135654D01*
X4309020Y9138824D01*
X4250549D01*
Y9224451D01*
X5374451D01*
Y8275549D01*
D02*
G37*
%LPC*%
G36*
X5129476Y9201000D02*
X5120525D01*
X5112255Y9197574D01*
X5105926Y9191245D01*
X5102500Y9182975D01*
Y9174024D01*
X5105926Y9165755D01*
X5112255Y9159425D01*
X5120525Y9156000D01*
X5129476D01*
X5137745Y9159425D01*
X5144075Y9165755D01*
X5147500Y9174024D01*
Y9182975D01*
X5144075Y9191245D01*
X5137745Y9197574D01*
X5129476Y9201000D01*
D02*
G37*
G36*
X5029476D02*
X5020525D01*
X5012255Y9197574D01*
X5005926Y9191245D01*
X5002501Y9182975D01*
Y9174024D01*
X5005926Y9165755D01*
X5012255Y9159425D01*
X5020525Y9156000D01*
X5029476D01*
X5037745Y9159425D01*
X5044075Y9165755D01*
X5047500Y9174024D01*
Y9182975D01*
X5044075Y9191245D01*
X5037745Y9197574D01*
X5029476Y9201000D01*
D02*
G37*
G36*
X4929476D02*
X4920525D01*
X4912255Y9197574D01*
X4905926Y9191245D01*
X4902500Y9182975D01*
Y9174024D01*
X4905926Y9165755D01*
X4912255Y9159425D01*
X4920525Y9156000D01*
X4929476D01*
X4937745Y9159425D01*
X4944075Y9165755D01*
X4947500Y9174024D01*
Y9182975D01*
X4944075Y9191245D01*
X4937745Y9197574D01*
X4929476Y9201000D01*
D02*
G37*
G36*
X4729476D02*
X4720525D01*
X4712255Y9197574D01*
X4705926Y9191245D01*
X4702500Y9182975D01*
Y9174024D01*
X4705926Y9165755D01*
X4712255Y9159425D01*
X4720525Y9156000D01*
X4729476D01*
X4737745Y9159425D01*
X4744075Y9165755D01*
X4747500Y9174024D01*
Y9182975D01*
X4744075Y9191245D01*
X4737745Y9197574D01*
X4729476Y9201000D01*
D02*
G37*
G36*
X4529476D02*
X4520525D01*
X4512255Y9197574D01*
X4505926Y9191245D01*
X4502500Y9182975D01*
Y9174024D01*
X4505926Y9165755D01*
X4512255Y9159425D01*
X4520525Y9156000D01*
X4529476D01*
X4537745Y9159425D01*
X4544074Y9165755D01*
X4547500Y9174024D01*
Y9182975D01*
X4544074Y9191245D01*
X4537745Y9197574D01*
X4529476Y9201000D01*
D02*
G37*
G36*
X4829476Y9200999D02*
X4820525D01*
X4812255Y9197574D01*
X4805926Y9191244D01*
X4802500Y9182975D01*
Y9174024D01*
X4805926Y9165754D01*
X4812255Y9159425D01*
X4820525Y9155999D01*
X4829476D01*
X4837745Y9159425D01*
X4844075Y9165754D01*
X4847500Y9174024D01*
Y9182975D01*
X4844075Y9191244D01*
X4837745Y9197574D01*
X4829476Y9200999D01*
D02*
G37*
G36*
X4629476D02*
X4620525D01*
X4612255Y9197574D01*
X4605926Y9191244D01*
X4602500Y9182975D01*
Y9174024D01*
X4605926Y9165754D01*
X4612255Y9159425D01*
X4620525Y9155999D01*
X4629476D01*
X4637745Y9159425D01*
X4644075Y9165754D01*
X4647500Y9174024D01*
Y9182975D01*
X4644075Y9191244D01*
X4637745Y9197574D01*
X4629476Y9200999D01*
D02*
G37*
G36*
X4529476Y9144000D02*
X4520525D01*
X4512255Y9140575D01*
X4505926Y9134245D01*
X4504399Y9130560D01*
X4495601D01*
X4494075Y9134245D01*
X4487745Y9140575D01*
X4479476Y9144000D01*
X4470525D01*
X4462255Y9140575D01*
X4455926Y9134245D01*
X4452500Y9125976D01*
Y9117025D01*
X4455926Y9108755D01*
X4462255Y9102426D01*
X4470525Y9099000D01*
X4479476D01*
X4487745Y9102426D01*
X4494075Y9108755D01*
X4494150Y9108936D01*
X4503111Y9109900D01*
X4507035Y9105404D01*
Y9092441D01*
X4420241Y9005647D01*
X4416347Y8999819D01*
X4414979Y8992944D01*
Y8941361D01*
X4374030Y8900412D01*
X4365077Y8902954D01*
X4363095Y8907741D01*
X4356765Y8914070D01*
X4348496Y8917496D01*
X4339545D01*
X4331275Y8914070D01*
X4324946Y8907741D01*
X4321520Y8899471D01*
Y8890520D01*
X4324946Y8882251D01*
X4331275Y8875922D01*
X4334961Y8874395D01*
Y8865597D01*
X4331275Y8864070D01*
X4324946Y8857741D01*
X4321520Y8849471D01*
Y8840520D01*
X4324946Y8832251D01*
X4331275Y8825921D01*
X4334961Y8824395D01*
Y8815597D01*
X4331275Y8814070D01*
X4324946Y8807741D01*
X4321520Y8799471D01*
Y8790520D01*
X4324946Y8782251D01*
X4331275Y8775921D01*
X4334961Y8774395D01*
Y8765597D01*
X4331275Y8764070D01*
X4324946Y8757741D01*
X4321520Y8749471D01*
Y8740520D01*
X4324946Y8732251D01*
X4331275Y8725922D01*
X4339545Y8722496D01*
X4348496D01*
X4356765Y8725922D01*
X4363095Y8732251D01*
X4366520Y8740520D01*
Y8749471D01*
X4363095Y8757741D01*
X4356765Y8764070D01*
X4353080Y8765597D01*
Y8774395D01*
X4356765Y8775921D01*
X4363095Y8782251D01*
X4366520Y8790520D01*
Y8799471D01*
X4363095Y8807741D01*
X4356765Y8814070D01*
X4353080Y8815597D01*
Y8824395D01*
X4356765Y8825921D01*
X4363095Y8832251D01*
X4366520Y8840520D01*
Y8842089D01*
X4445647Y8921216D01*
X4449542Y8927045D01*
X4450909Y8933920D01*
Y8985502D01*
X4537703Y9072297D01*
X4541598Y9078125D01*
X4542965Y9085000D01*
Y9107646D01*
X4544074Y9108755D01*
X4547500Y9117025D01*
Y9125976D01*
X4544074Y9134245D01*
X4537745Y9140575D01*
X4529476Y9144000D01*
D02*
G37*
G36*
X5304476Y9147500D02*
X5295525D01*
X5287255Y9144074D01*
X5280926Y9137745D01*
X5277500Y9129476D01*
Y9120525D01*
X5280926Y9112255D01*
X5287255Y9105926D01*
X5295525Y9102500D01*
X5304476D01*
X5312745Y9105926D01*
X5319074Y9112255D01*
X5322500Y9120525D01*
Y9129476D01*
X5319074Y9137745D01*
X5312745Y9144074D01*
X5304476Y9147500D01*
D02*
G37*
G36*
X5111976Y9055000D02*
X5103025D01*
X5094755Y9051574D01*
X5092810Y9049629D01*
X5087500Y9045896D01*
X5082190Y9049629D01*
X5080245Y9051574D01*
X5071976Y9055000D01*
X5063025D01*
X5054755Y9051574D01*
X5048426Y9045245D01*
X5045000Y9036976D01*
Y9028025D01*
X5048426Y9019755D01*
X5054755Y9013426D01*
X5063025Y9010000D01*
X5071976D01*
X5080245Y9013426D01*
X5082190Y9015371D01*
X5087500Y9019104D01*
X5092810Y9015371D01*
X5094755Y9013426D01*
X5103025Y9010000D01*
X5111976D01*
X5120245Y9013426D01*
X5126574Y9019755D01*
X5130000Y9028025D01*
Y9036976D01*
X5126574Y9045245D01*
X5120245Y9051574D01*
X5111976Y9055000D01*
D02*
G37*
G36*
X4631975D02*
X4623025D01*
X4614755Y9051574D01*
X4612810Y9049629D01*
X4607500Y9045896D01*
X4602190Y9049629D01*
X4600245Y9051574D01*
X4591976Y9055000D01*
X4583025D01*
X4574755Y9051574D01*
X4572810Y9049629D01*
X4567500Y9045896D01*
X4562190Y9049629D01*
X4560245Y9051574D01*
X4551976Y9055000D01*
X4543025D01*
X4534755Y9051574D01*
X4528426Y9045245D01*
X4525000Y9036976D01*
Y9028025D01*
X4528426Y9019755D01*
X4534755Y9013426D01*
X4543025Y9010000D01*
X4551976D01*
X4560245Y9013426D01*
X4562190Y9015371D01*
X4567500Y9019104D01*
X4572810Y9015371D01*
X4574755Y9013426D01*
X4583025Y9010000D01*
X4591976D01*
X4600245Y9013426D01*
X4602190Y9015371D01*
X4607500Y9019104D01*
X4612810Y9015371D01*
X4614755Y9013426D01*
X4623025Y9010000D01*
X4631975D01*
X4640245Y9013426D01*
X4646574Y9019755D01*
X4650000Y9028025D01*
Y9036976D01*
X4646574Y9045245D01*
X4640245Y9051574D01*
X4631975Y9055000D01*
D02*
G37*
G36*
X4348496Y9067496D02*
X4339545D01*
X4331275Y9064070D01*
X4324946Y9057741D01*
X4321520Y9049471D01*
Y9040520D01*
X4324946Y9032251D01*
X4331275Y9025921D01*
X4339545Y9022496D01*
X4348496D01*
X4356765Y9025921D01*
X4363095Y9032251D01*
X4366520Y9040520D01*
Y9049471D01*
X4363095Y9057741D01*
X4356765Y9064070D01*
X4348496Y9067496D01*
D02*
G37*
G36*
X4775000Y9146990D02*
X4725000D01*
X4715246Y9145050D01*
X4706976Y9139525D01*
X4701451Y9131255D01*
X4699511Y9121501D01*
Y9098809D01*
X4681976Y9081274D01*
X4676451Y9073005D01*
X4674510Y9063250D01*
Y8950000D01*
X4676451Y8940246D01*
X4681976Y8931976D01*
X4744510Y8869442D01*
Y8785490D01*
X4718804D01*
X4715437Y8793618D01*
X4719074Y8797255D01*
X4722500Y8805524D01*
Y8814475D01*
X4719074Y8822745D01*
X4712745Y8829074D01*
X4704475Y8832500D01*
X4695525D01*
X4687255Y8829074D01*
X4680926Y8822745D01*
X4677500Y8814475D01*
Y8805524D01*
X4680926Y8797255D01*
X4684563Y8793618D01*
X4681196Y8785490D01*
X4642500D01*
X4632746Y8783549D01*
X4624476Y8778024D01*
X4606942Y8760490D01*
X4490000D01*
X4480246Y8758549D01*
X4471976Y8753024D01*
X4466451Y8744754D01*
X4464511Y8735000D01*
X4466451Y8725246D01*
X4471976Y8716976D01*
X4480246Y8711451D01*
X4490000Y8709510D01*
X4617500D01*
X4627255Y8711451D01*
X4635524Y8716976D01*
X4653058Y8734510D01*
X4744510D01*
Y8580000D01*
X4746451Y8570245D01*
X4751976Y8561976D01*
X4802010Y8511942D01*
Y8384641D01*
X4793882Y8379210D01*
X4791976Y8380000D01*
X4783025D01*
X4774755Y8376575D01*
X4768426Y8370245D01*
X4765000Y8361976D01*
Y8361784D01*
X4756872Y8356353D01*
X4754103Y8357500D01*
X4745152D01*
X4736883Y8354074D01*
X4730553Y8347745D01*
X4727128Y8339476D01*
Y8330525D01*
X4730553Y8322255D01*
X4736883Y8315926D01*
X4745152Y8312500D01*
X4754103D01*
X4762373Y8315926D01*
X4768702Y8322255D01*
X4772128Y8330525D01*
Y8330716D01*
X4780256Y8336147D01*
X4783025Y8335000D01*
X4791976D01*
X4800245Y8338426D01*
X4802029Y8340210D01*
X4809477Y8339476D01*
X4817746Y8333951D01*
X4827500Y8332011D01*
X4837254Y8333951D01*
X4845524Y8339476D01*
X4851049Y8347746D01*
X4852990Y8357500D01*
Y8522500D01*
X4851049Y8532254D01*
X4845524Y8540524D01*
X4795490Y8590558D01*
Y8734510D01*
X5136967D01*
X5137511Y8734619D01*
X5142500Y8730524D01*
X5145926Y8722255D01*
X5152255Y8715926D01*
X5160525Y8712500D01*
X5169476D01*
X5177745Y8715926D01*
X5184074Y8722255D01*
X5187500Y8730525D01*
Y8739476D01*
X5184074Y8747745D01*
X5184022Y8747797D01*
X5183024Y8756976D01*
X5188549Y8765246D01*
X5190490Y8775000D01*
X5188549Y8784755D01*
X5183024Y8793024D01*
X5174755Y8798549D01*
X5165000Y8800490D01*
X5155246Y8798549D01*
X5154408Y8797990D01*
X5149467D01*
X5139713Y8796049D01*
X5131443Y8790524D01*
X5126409Y8785490D01*
X4958804D01*
X4955437Y8793618D01*
X4959074Y8797255D01*
X4962500Y8805524D01*
Y8814475D01*
X4959074Y8822745D01*
X4952745Y8829074D01*
X4944476Y8832500D01*
X4935525D01*
X4927255Y8829074D01*
X4920926Y8822745D01*
X4917500Y8814475D01*
Y8805524D01*
X4920926Y8797255D01*
X4924563Y8793618D01*
X4921196Y8785490D01*
X4848804D01*
X4845437Y8793618D01*
X4849074Y8797255D01*
X4852500Y8805524D01*
Y8814475D01*
X4849074Y8822745D01*
X4842745Y8829074D01*
X4834475Y8832500D01*
X4825525D01*
X4817255Y8829074D01*
X4810926Y8822745D01*
X4807500Y8814475D01*
Y8805524D01*
X4810926Y8797255D01*
X4814563Y8793618D01*
X4811196Y8785490D01*
X4795490D01*
Y8854510D01*
X5030000D01*
X5039755Y8856451D01*
X5048024Y8861976D01*
X5098024Y8911976D01*
X5103549Y8920245D01*
X5105490Y8930000D01*
X5103549Y8939755D01*
X5098024Y8948024D01*
X5089755Y8953549D01*
X5080000Y8955490D01*
X5070245Y8953549D01*
X5061976Y8948024D01*
X5019442Y8905490D01*
X4780558D01*
X4725490Y8960558D01*
Y9011196D01*
X4733618Y9014563D01*
X4734755Y9013426D01*
X4743025Y9010000D01*
X4751976D01*
X4760245Y9013426D01*
X4762190Y9015371D01*
X4767500Y9019104D01*
X4772810Y9015371D01*
X4774755Y9013426D01*
X4783025Y9010000D01*
X4791976D01*
X4800245Y9013426D01*
X4806575Y9019755D01*
X4810000Y9028025D01*
Y9036976D01*
X4806575Y9045245D01*
X4800245Y9051574D01*
X4791976Y9055000D01*
X4783025D01*
X4774755Y9051574D01*
X4772810Y9049629D01*
X4767500Y9045896D01*
X4762190Y9049629D01*
X4760245Y9051574D01*
X4751976Y9055000D01*
X4743025D01*
X4736653Y9052361D01*
X4732049Y9059251D01*
X4743024Y9070226D01*
X4748550Y9078496D01*
X4750490Y9088250D01*
Y9096011D01*
X4775000D01*
X4784754Y9097951D01*
X4793024Y9103477D01*
X4798549Y9111746D01*
X4800490Y9121501D01*
X4798549Y9131255D01*
X4793024Y9139525D01*
X4784754Y9145050D01*
X4775000Y9146990D01*
D02*
G37*
G36*
X5304476Y8997500D02*
X5295525D01*
X5287255Y8994074D01*
X5280926Y8987745D01*
X5277500Y8979476D01*
Y8970525D01*
X5280926Y8962255D01*
X5287255Y8955926D01*
X5295525Y8952500D01*
X5304476D01*
X5312745Y8955926D01*
X5319074Y8962255D01*
X5322500Y8970525D01*
Y8979476D01*
X5319074Y8987745D01*
X5312745Y8994074D01*
X5304476Y8997500D01*
D02*
G37*
G36*
X5169476Y8957500D02*
X5160525D01*
X5152255Y8954075D01*
X5145926Y8947745D01*
X5142500Y8939476D01*
Y8930525D01*
X5145926Y8922255D01*
X5147871Y8920310D01*
X5151604Y8915000D01*
X5147871Y8909690D01*
X5145926Y8907745D01*
X5142500Y8899475D01*
Y8890525D01*
X5145926Y8882255D01*
X5152255Y8875926D01*
X5160525Y8872500D01*
X5169476D01*
X5177745Y8875926D01*
X5184074Y8882255D01*
X5187500Y8890525D01*
Y8899475D01*
X5184074Y8907745D01*
X5182129Y8909690D01*
X5178396Y8915000D01*
X5182129Y8920310D01*
X5184074Y8922255D01*
X5187500Y8930525D01*
Y8939476D01*
X5184074Y8947745D01*
X5177745Y8954075D01*
X5169476Y8957500D01*
D02*
G37*
G36*
X5304476Y8847500D02*
X5295525D01*
X5287255Y8844074D01*
X5280926Y8837745D01*
X5277500Y8829475D01*
Y8820524D01*
X5280926Y8812255D01*
X5287255Y8805925D01*
X5295525Y8802500D01*
X5304476D01*
X5312745Y8805925D01*
X5319074Y8812255D01*
X5322500Y8820524D01*
Y8829475D01*
X5319074Y8837745D01*
X5312745Y8844074D01*
X5304476Y8847500D01*
D02*
G37*
G36*
X4703177Y8723798D02*
X4694226D01*
X4685957Y8720372D01*
X4679627Y8714043D01*
X4676202Y8705774D01*
Y8696823D01*
X4679627Y8688553D01*
X4685957Y8682224D01*
X4694226Y8678798D01*
X4703177D01*
X4711447Y8682224D01*
X4717776Y8688553D01*
X4721202Y8696823D01*
Y8705774D01*
X4717776Y8714043D01*
X4711447Y8720372D01*
X4703177Y8723798D01*
D02*
G37*
G36*
X4831976Y8717500D02*
X4823025D01*
X4814755Y8714075D01*
X4808426Y8707745D01*
X4805000Y8699476D01*
Y8690525D01*
X4808426Y8682255D01*
X4814755Y8675926D01*
X4823025Y8672500D01*
X4831976D01*
X4840245Y8675926D01*
X4846575Y8682255D01*
X4850000Y8690525D01*
Y8699476D01*
X4846575Y8707745D01*
X4840245Y8714075D01*
X4831976Y8717500D01*
D02*
G37*
G36*
X4944476Y8712500D02*
X4935525D01*
X4927255Y8709074D01*
X4920926Y8702745D01*
X4917500Y8694475D01*
Y8685524D01*
X4920926Y8677255D01*
X4927255Y8670926D01*
X4935525Y8667500D01*
X4944476D01*
X4952745Y8670926D01*
X4959074Y8677255D01*
X4962500Y8685524D01*
Y8694475D01*
X4959074Y8702745D01*
X4952745Y8709074D01*
X4944476Y8712500D01*
D02*
G37*
G36*
X5304476Y8697500D02*
X5295525D01*
X5287255Y8694074D01*
X5280926Y8687745D01*
X5277500Y8679475D01*
Y8670524D01*
X5280926Y8662255D01*
X5287255Y8655926D01*
X5295525Y8652500D01*
X5304476D01*
X5312745Y8655926D01*
X5319074Y8662255D01*
X5322500Y8670524D01*
Y8679475D01*
X5319074Y8687745D01*
X5312745Y8694074D01*
X5304476Y8697500D01*
D02*
G37*
G36*
X4348496Y8667496D02*
X4339545D01*
X4331275Y8664070D01*
X4324946Y8657741D01*
X4321520Y8649471D01*
Y8640520D01*
X4324946Y8632251D01*
X4331275Y8625922D01*
X4339545Y8622496D01*
X4348496D01*
X4356765Y8625922D01*
X4363095Y8632251D01*
X4366520Y8640520D01*
Y8649471D01*
X4363095Y8657741D01*
X4356765Y8664070D01*
X4348496Y8667496D01*
D02*
G37*
G36*
X4944476Y8632500D02*
X4935525D01*
X4927255Y8629074D01*
X4920926Y8622745D01*
X4917500Y8614476D01*
Y8605525D01*
X4920926Y8597255D01*
X4927255Y8590926D01*
X4935525Y8587500D01*
X4944476D01*
X4952745Y8590926D01*
X4959074Y8597255D01*
X4962500Y8605525D01*
Y8614476D01*
X4959074Y8622745D01*
X4952745Y8629074D01*
X4944476Y8632500D01*
D02*
G37*
G36*
X4834475D02*
X4825525D01*
X4817255Y8629074D01*
X4810926Y8622745D01*
X4807500Y8614476D01*
Y8605525D01*
X4810926Y8597255D01*
X4817255Y8590926D01*
X4825525Y8587500D01*
X4834475D01*
X4842745Y8590926D01*
X4849074Y8597255D01*
X4852500Y8605525D01*
Y8614476D01*
X4849074Y8622745D01*
X4842745Y8629074D01*
X4834475Y8632500D01*
D02*
G37*
G36*
X5304476Y8547500D02*
X5295525D01*
X5287255Y8544074D01*
X5280926Y8537745D01*
X5277500Y8529475D01*
Y8520524D01*
X5280926Y8512255D01*
X5287255Y8505926D01*
X5295525Y8502500D01*
X5304476D01*
X5312745Y8505926D01*
X5319074Y8512255D01*
X5322500Y8520524D01*
Y8529475D01*
X5319074Y8537745D01*
X5312745Y8544074D01*
X5304476Y8547500D01*
D02*
G37*
G36*
X4348496Y8517496D02*
X4339545D01*
X4331275Y8514070D01*
X4324946Y8507741D01*
X4321520Y8499471D01*
Y8490520D01*
X4324946Y8482251D01*
X4331275Y8475922D01*
X4339545Y8472496D01*
X4348496D01*
X4356765Y8475922D01*
X4363095Y8482251D01*
X4366520Y8490520D01*
Y8499471D01*
X4363095Y8507741D01*
X4356765Y8514070D01*
X4348496Y8517496D01*
D02*
G37*
G36*
X4754475Y8511000D02*
X4745524D01*
X4737255Y8507574D01*
X4730926Y8501245D01*
X4727500Y8492975D01*
Y8484024D01*
X4730926Y8475755D01*
X4737255Y8469426D01*
X4745524Y8466000D01*
X4754475D01*
X4762745Y8469426D01*
X4769074Y8475755D01*
X4772500Y8484024D01*
Y8492975D01*
X4769074Y8501245D01*
X4762745Y8507574D01*
X4754475Y8511000D01*
D02*
G37*
G36*
X4954475Y8462500D02*
X4945525D01*
X4937255Y8459075D01*
X4930926Y8452745D01*
X4927500Y8444476D01*
Y8435525D01*
X4930926Y8427255D01*
X4937255Y8420926D01*
X4945525Y8417500D01*
X4954475D01*
X4962745Y8420926D01*
X4969074Y8427255D01*
X4972500Y8435525D01*
Y8444476D01*
X4969074Y8452745D01*
X4962745Y8459075D01*
X4954475Y8462500D01*
D02*
G37*
G36*
X5304476Y8397500D02*
X5295525D01*
X5287255Y8394074D01*
X5280926Y8387745D01*
X5277500Y8379475D01*
Y8370525D01*
X5280926Y8362255D01*
X5287255Y8355926D01*
X5295525Y8352500D01*
X5304476D01*
X5312745Y8355926D01*
X5319074Y8362255D01*
X5322500Y8370525D01*
Y8379475D01*
X5319074Y8387745D01*
X5312745Y8394074D01*
X5304476Y8397500D01*
D02*
G37*
G36*
X4911975Y8380000D02*
X4903024D01*
X4894755Y8376575D01*
X4888426Y8370245D01*
X4885000Y8361976D01*
Y8353025D01*
X4888426Y8344755D01*
X4894755Y8338426D01*
X4903024Y8335000D01*
X4911975D01*
X4920245Y8338426D01*
X4926574Y8344755D01*
X4930000Y8353025D01*
Y8361976D01*
X4926574Y8370245D01*
X4920245Y8376575D01*
X4911975Y8380000D01*
D02*
G37*
G36*
X5174476Y8362500D02*
X5165525D01*
X5157255Y8359074D01*
X5150926Y8352745D01*
X5147500Y8344476D01*
Y8335525D01*
X5150926Y8327255D01*
X5157255Y8320926D01*
X5165525Y8317500D01*
X5174476D01*
X5182745Y8320926D01*
X5189074Y8327255D01*
X5192500Y8335525D01*
Y8344476D01*
X5189074Y8352745D01*
X5182745Y8359074D01*
X5174476Y8362500D01*
D02*
G37*
%LPD*%
D26*
X5030000Y8880000D02*
X5080000Y8930000D01*
X4770000Y8880000D02*
X5030000D01*
X4725000Y9121501D02*
X4775000D01*
X4490000Y8735000D02*
X4617500D01*
X4642500Y8760000D01*
X4770000D01*
Y8880000D01*
Y8580000D02*
Y8760000D01*
X5149467Y8772500D02*
X5162500D01*
X5136967Y8760000D02*
X5149467Y8772500D01*
X4770000Y8760000D02*
X5136967D01*
X5162500Y8772500D02*
X5165000Y8775000D01*
X4827500Y8357500D02*
Y8522500D01*
X4770000Y8580000D02*
X4827500Y8522500D01*
X4700000Y8950000D02*
Y9063250D01*
Y8950000D02*
X4770000Y8880000D01*
X4700000Y9063250D02*
X4725000Y9088250D01*
Y9121501D01*
D27*
X4432944Y8933920D02*
Y8992944D01*
X4525000Y9085000D02*
Y9121500D01*
X4432944Y8992944D02*
X4525000Y9085000D01*
X4344020Y8844996D02*
X4432944Y8933920D01*
D29*
X4475000Y9121500D02*
D03*
X4344020Y8894996D02*
D03*
Y8644996D02*
D03*
X4749628Y8335000D02*
D03*
X4950000Y8440000D02*
D03*
X5050000Y8440000D02*
D03*
X5170000Y8340000D02*
D03*
X4547500Y8357500D02*
D03*
X5230000Y8930000D02*
D03*
X4890000Y8960000D02*
D03*
X4940000Y8810000D02*
D03*
X4830000D02*
D03*
X4698702Y8701298D02*
D03*
X4750000Y8488500D02*
D03*
X4700000Y8810000D02*
D03*
X4344020Y8744996D02*
D03*
Y8794996D02*
D03*
X5080000Y8930000D02*
D03*
X5300000Y8975000D02*
D03*
Y8525000D02*
D03*
Y8675000D02*
D03*
X4907500Y8357500D02*
D03*
X4787500D02*
D03*
X4947500D02*
D03*
X4827500D02*
D03*
X5067500Y9032500D02*
D03*
X4627500D02*
D03*
X5300000Y8375000D02*
D03*
Y9125000D02*
D03*
Y8825000D02*
D03*
X5165000Y8575000D02*
D03*
Y8735000D02*
D03*
Y8775000D02*
D03*
Y8895000D02*
D03*
Y8935000D02*
D03*
X5107500Y9032500D02*
D03*
X5165000Y8975000D02*
D03*
X4787500Y9032500D02*
D03*
X4747500D02*
D03*
X4547500D02*
D03*
X4940000Y8610000D02*
D03*
X4830000D02*
D03*
X4940000Y8690000D02*
D03*
X4827500Y8695000D02*
D03*
X4587500Y9032500D02*
D03*
X4490000Y8975000D02*
D03*
Y8935000D02*
D03*
Y8735000D02*
D03*
Y8695000D02*
D03*
X4350000Y8360000D02*
D03*
X4400000D02*
D03*
Y8410000D02*
D03*
X4350000D02*
D03*
X4344020Y8494996D02*
D03*
Y9044996D02*
D03*
X4340000Y9130000D02*
D03*
X4390000D02*
D03*
Y9180000D02*
D03*
X4340000D02*
D03*
X4344020Y8844996D02*
D03*
X4525000Y9121500D02*
D03*
X4725000Y9121501D02*
D03*
X4775000D02*
D03*
X5175000Y9121500D02*
D03*
X5125000Y9178500D02*
D03*
X5025000D02*
D03*
X4925000D02*
D03*
X4975000Y9121501D02*
D03*
X4875000D02*
D03*
X4675000D02*
D03*
X4575000D02*
D03*
X4825000Y9178499D02*
D03*
X4725000Y9178500D02*
D03*
X4625000Y9178499D02*
D03*
X4525000Y9178500D02*
D03*
%TF.MD5,33ad647d3f96fe82e5ab45d062d70507*%
M02*
