%TF.GenerationSoftware,Altium Limited,Altium Designer,24.8.2 (39)*%
G04 Layer_Physical_Order=2*
G04 Layer_Color=36540*
%FSLAX45Y45*%
%MOMM*%
%TF.SameCoordinates,62BC436B-7982-48EA-BC41-0FA37A5750A2*%
%TF.FilePolarity,Positive*%
%TF.FileFunction,Copper,L2,Inr,Signal*%
%TF.Part,Single*%
G01*
G75*
%TA.AperFunction,Conductor*%
%ADD26C,0.30000*%
%ADD28C,0.20000*%
%TA.AperFunction,ViaPad*%
%ADD29C,0.25000*%
G36*
X5374451Y8275549D02*
X4250549D01*
Y8364676D01*
X4309020D01*
X4316674Y8367846D01*
X4319844Y8375500D01*
Y8462500D01*
X4316674Y8470154D01*
X4309020Y8473324D01*
X4250549D01*
Y9067176D01*
X4309020D01*
X4316674Y9070346D01*
X4319844Y9078000D01*
Y9128000D01*
X4316674Y9135654D01*
X4309020Y9138824D01*
X4250549D01*
Y9224451D01*
X5374451D01*
Y8275549D01*
D02*
G37*
%LPC*%
G36*
X4824475Y9102500D02*
X4815525D01*
X4807255Y9099074D01*
X4800926Y9092745D01*
X4797500Y9084475D01*
Y9075524D01*
X4800926Y9067255D01*
X4807255Y9060925D01*
X4815525Y9057500D01*
X4824475D01*
X4832745Y9060925D01*
X4839074Y9067255D01*
X4842500Y9075524D01*
Y9084475D01*
X4839074Y9092745D01*
X4832745Y9099074D01*
X4824475Y9102500D01*
D02*
G37*
G36*
X4921316Y9147760D02*
X4911562Y9145820D01*
X4903292Y9140295D01*
X4897767Y9132025D01*
X4895826Y9122271D01*
Y9061874D01*
X4839442Y9005490D01*
X4690558D01*
X4645524Y9050524D01*
X4637255Y9056049D01*
X4627500Y9057990D01*
X4617745Y9056049D01*
X4609476Y9050524D01*
X4603951Y9042255D01*
X4602010Y9032500D01*
X4603951Y9022745D01*
X4609476Y9014476D01*
X4661976Y8961976D01*
X4663499Y8960958D01*
X4661557Y8952481D01*
X4656994Y8951844D01*
X4568682Y9040157D01*
X4566575Y9045245D01*
X4560245Y9051574D01*
X4551976Y9055000D01*
X4543025D01*
X4534755Y9051574D01*
X4528426Y9045245D01*
X4525000Y9036976D01*
Y9028025D01*
X4528426Y9019755D01*
X4534755Y9013426D01*
X4539844Y9011318D01*
X4635581Y8915581D01*
X4635581Y8915581D01*
X4642197Y8911160D01*
X4650000Y8909608D01*
X4751553D01*
X4854608Y8806553D01*
Y8709564D01*
X4852500Y8704475D01*
Y8695524D01*
X4855926Y8687255D01*
X4862255Y8680925D01*
X4870524Y8677500D01*
X4879475D01*
X4887745Y8680925D01*
X4894074Y8687255D01*
X4897500Y8695524D01*
Y8704475D01*
X4895392Y8709564D01*
Y8814999D01*
X4895392Y8815000D01*
X4893840Y8822804D01*
X4889419Y8829419D01*
X4889418Y8829420D01*
X4774419Y8944419D01*
X4771481Y8946382D01*
X4773947Y8954510D01*
X4850000D01*
X4859372Y8956375D01*
X4860364Y8956439D01*
X4868692Y8952647D01*
X4870926Y8947255D01*
X4877255Y8940926D01*
X4885525Y8937500D01*
X4894476D01*
X4902745Y8940926D01*
X4909075Y8947255D01*
X4912500Y8955525D01*
Y8964476D01*
X4909075Y8972745D01*
X4902745Y8979074D01*
X4898412Y8980870D01*
X4896057Y8990009D01*
X4939340Y9033292D01*
X4944865Y9041562D01*
X4946806Y9051316D01*
Y9122271D01*
X4944865Y9132025D01*
X4939340Y9140295D01*
X4931070Y9145820D01*
X4921316Y9147760D01*
D02*
G37*
G36*
X5234475Y8952500D02*
X5225524D01*
X5217255Y8949074D01*
X5210926Y8942745D01*
X5207500Y8934475D01*
Y8925524D01*
X5210926Y8917255D01*
X5217255Y8910926D01*
X5225524Y8907500D01*
X5234475D01*
X5242745Y8910926D01*
X5249074Y8917255D01*
X5252500Y8925524D01*
Y8934475D01*
X5249074Y8942745D01*
X5242745Y8949074D01*
X5234475Y8952500D01*
D02*
G37*
G36*
X5084475D02*
X5075525D01*
X5067255Y8949074D01*
X5060926Y8942745D01*
X5057500Y8934475D01*
Y8925524D01*
X5060926Y8917255D01*
X5067255Y8910926D01*
X5075525Y8907500D01*
X5084475D01*
X5092745Y8910926D01*
X5099074Y8917255D01*
X5102500Y8925524D01*
Y8934475D01*
X5099074Y8942745D01*
X5092745Y8949074D01*
X5084475Y8952500D01*
D02*
G37*
G36*
X4344020Y8920486D02*
X4334266Y8918545D01*
X4325996Y8913020D01*
X4271976Y8859000D01*
X4266451Y8850730D01*
X4264510Y8840976D01*
Y8699016D01*
X4266451Y8689262D01*
X4271976Y8680992D01*
X4325996Y8626972D01*
X4410992Y8541976D01*
X4419262Y8536451D01*
X4429016Y8534510D01*
X5022426D01*
X5032181Y8536451D01*
X5040450Y8541976D01*
X5058024Y8559550D01*
X5062910Y8566862D01*
X5093024Y8596976D01*
X5098550Y8605246D01*
X5100490Y8615001D01*
Y8700000D01*
X5098550Y8709754D01*
X5093024Y8718024D01*
X5084755Y8723549D01*
X5075001Y8725490D01*
X5065246Y8723549D01*
X5056977Y8718024D01*
X5051451Y8709754D01*
X5049511Y8700000D01*
Y8625559D01*
X5021976Y8598024D01*
X5017090Y8590712D01*
X5011868Y8585490D01*
X4692452D01*
X4689086Y8593618D01*
X4690397Y8594929D01*
X4693822Y8603198D01*
Y8612149D01*
X4690397Y8620419D01*
X4684068Y8626748D01*
X4675798Y8630174D01*
X4666847D01*
X4658578Y8626748D01*
X4652248Y8620419D01*
X4648823Y8612149D01*
Y8603198D01*
X4652248Y8594929D01*
X4653560Y8593618D01*
X4650193Y8585490D01*
X4571304D01*
X4567937Y8593618D01*
X4569074Y8594755D01*
X4572500Y8603024D01*
Y8611975D01*
X4569074Y8620245D01*
X4562745Y8626574D01*
X4554476Y8630000D01*
X4545525D01*
X4537255Y8626574D01*
X4530926Y8620245D01*
X4527500Y8611975D01*
Y8603024D01*
X4530926Y8594755D01*
X4532063Y8593618D01*
X4528696Y8585490D01*
X4439574D01*
X4357464Y8667600D01*
X4362068Y8674490D01*
X4365450Y8673090D01*
X4374401D01*
X4382670Y8676515D01*
X4389000Y8682844D01*
X4392425Y8691114D01*
Y8700065D01*
X4389000Y8708334D01*
X4382670Y8714664D01*
X4374401Y8718089D01*
X4365450D01*
X4357180Y8714664D01*
X4350851Y8708334D01*
X4347425Y8700065D01*
Y8691114D01*
X4348826Y8687733D01*
X4341935Y8683128D01*
X4315490Y8709574D01*
Y8733840D01*
X4323618Y8735457D01*
X4324946Y8732251D01*
X4331275Y8725922D01*
X4339545Y8722496D01*
X4348496D01*
X4356765Y8725922D01*
X4363095Y8732251D01*
X4366520Y8740520D01*
Y8749471D01*
X4363095Y8757741D01*
X4356765Y8764070D01*
X4353080Y8765597D01*
Y8774395D01*
X4356765Y8775921D01*
X4363095Y8782251D01*
X4366520Y8790520D01*
Y8799471D01*
X4363095Y8807741D01*
X4356765Y8814070D01*
X4348496Y8817496D01*
X4339545D01*
X4331275Y8814070D01*
X4324946Y8807741D01*
X4323618Y8804535D01*
X4315490Y8806152D01*
Y8830418D01*
X4362044Y8876972D01*
X4367570Y8885241D01*
X4369510Y8894996D01*
X4367570Y8904751D01*
X4362044Y8913020D01*
X4353775Y8918545D01*
X4344020Y8920486D01*
D02*
G37*
G36*
X5169476Y8757500D02*
X5160525D01*
X5152255Y8754074D01*
X5145926Y8747745D01*
X5142500Y8739476D01*
Y8730525D01*
X5145926Y8722255D01*
X5152255Y8715926D01*
X5160525Y8712500D01*
X5169476D01*
X5177745Y8715926D01*
X5184074Y8722255D01*
X5187500Y8730525D01*
Y8739476D01*
X5184074Y8747745D01*
X5177745Y8754074D01*
X5169476Y8757500D01*
D02*
G37*
G36*
X4771975Y8712500D02*
X4763025D01*
X4754755Y8709075D01*
X4748426Y8702745D01*
X4745000Y8694476D01*
Y8685525D01*
X4748426Y8677255D01*
X4754755Y8670926D01*
X4763025Y8667500D01*
X4771975D01*
X4780245Y8670926D01*
X4786574Y8677255D01*
X4790000Y8685525D01*
Y8694476D01*
X4786574Y8702745D01*
X4780245Y8709075D01*
X4771975Y8712500D01*
D02*
G37*
G36*
X4754475Y8511000D02*
X4745524D01*
X4737255Y8507574D01*
X4730926Y8501245D01*
X4727500Y8492975D01*
Y8484024D01*
X4730926Y8475755D01*
X4737255Y8469426D01*
X4745524Y8466000D01*
X4754475D01*
X4762745Y8469426D01*
X4769074Y8475755D01*
X4772500Y8484024D01*
Y8492975D01*
X4769074Y8501245D01*
X4762745Y8507574D01*
X4754475Y8511000D01*
D02*
G37*
G36*
X4864475Y8502500D02*
X4855524D01*
X4847255Y8499074D01*
X4840926Y8492745D01*
X4837500Y8484476D01*
Y8475525D01*
X4840926Y8467255D01*
X4847255Y8460926D01*
X4855524Y8457500D01*
X4864475D01*
X4872745Y8460926D01*
X4879074Y8467255D01*
X4882500Y8475525D01*
Y8484476D01*
X4879074Y8492745D01*
X4872745Y8499074D01*
X4864475Y8502500D01*
D02*
G37*
G36*
X4954475Y8462500D02*
X4945525D01*
X4937255Y8459075D01*
X4930926Y8452745D01*
X4927500Y8444476D01*
Y8435525D01*
X4930926Y8427255D01*
X4937255Y8420926D01*
X4945525Y8417500D01*
X4954475D01*
X4962745Y8420926D01*
X4969074Y8427255D01*
X4972500Y8435525D01*
Y8444476D01*
X4969074Y8452745D01*
X4962745Y8459075D01*
X4954475Y8462500D01*
D02*
G37*
G36*
X5054476Y8462500D02*
X5045525D01*
X5037255Y8459074D01*
X5030926Y8452745D01*
X5027500Y8444475D01*
Y8435524D01*
X5030926Y8427255D01*
X5037255Y8420925D01*
X5045525Y8417500D01*
X5054476D01*
X5062745Y8420925D01*
X5069074Y8427255D01*
X5072500Y8435524D01*
Y8444475D01*
X5069074Y8452745D01*
X5062745Y8459074D01*
X5054476Y8462500D01*
D02*
G37*
G36*
X4804476Y8454000D02*
X4795525D01*
X4787255Y8450575D01*
X4780926Y8444245D01*
X4777500Y8435976D01*
Y8427025D01*
X4780926Y8418755D01*
X4787255Y8412426D01*
X4795525Y8409000D01*
X4804476D01*
X4812745Y8412426D01*
X4819074Y8418755D01*
X4822500Y8427025D01*
Y8435976D01*
X4819074Y8444245D01*
X4812745Y8450575D01*
X4804476Y8454000D01*
D02*
G37*
G36*
X4754475Y8401000D02*
X4745524D01*
X4737255Y8397574D01*
X4730926Y8391245D01*
X4729399Y8387559D01*
X4720601D01*
X4719074Y8391244D01*
X4712745Y8397574D01*
X4704475Y8400999D01*
X4695525D01*
X4687255Y8397574D01*
X4680926Y8391244D01*
X4677500Y8382975D01*
Y8374024D01*
X4680926Y8365754D01*
X4687255Y8359425D01*
X4695525Y8356000D01*
X4704475D01*
X4712745Y8359425D01*
X4719074Y8365754D01*
X4720601Y8369440D01*
X4729399D01*
X4730926Y8365755D01*
X4737255Y8359425D01*
X4745524Y8356000D01*
X4754475D01*
X4762745Y8359425D01*
X4769074Y8365755D01*
X4772500Y8374024D01*
Y8382975D01*
X4769074Y8391245D01*
X4762745Y8397574D01*
X4754475Y8401000D01*
D02*
G37*
G36*
X4804476Y8342500D02*
X4795525D01*
X4787255Y8339075D01*
X4780926Y8332745D01*
X4777500Y8324476D01*
Y8315525D01*
X4780926Y8307255D01*
X4787255Y8300926D01*
X4795525Y8297500D01*
X4804476D01*
X4812745Y8300926D01*
X4819074Y8307255D01*
X4822500Y8315525D01*
Y8324476D01*
X4819074Y8332745D01*
X4812745Y8339075D01*
X4804476Y8342500D01*
D02*
G37*
%LPD*%
D26*
X4290000Y8699016D02*
X4344020Y8644996D01*
X4290000Y8699016D02*
Y8840976D01*
X4344020Y8644996D02*
X4429016Y8560000D01*
X5022426D01*
X5040000Y8577574D02*
Y8580000D01*
X5075001Y8615001D01*
X5022426Y8560000D02*
X5040000Y8577574D01*
X4921316Y9051316D02*
Y9122271D01*
X4680000Y8980000D02*
X4850000D01*
X4921316Y9051316D01*
X5075001Y8615001D02*
Y8700000D01*
X4290000Y8840976D02*
X4344020Y8894996D01*
X4627500Y9032500D02*
X4680000Y8980000D01*
D28*
X4760000Y8930000D02*
X4875000Y8815000D01*
Y8700000D02*
Y8815000D01*
X4650000Y8930000D02*
X4760000D01*
X4547500Y9032500D02*
X4650000Y8930000D01*
D29*
X4369925Y8695589D02*
D03*
X4344020Y8894996D02*
D03*
Y8644996D02*
D03*
X4950000Y8440000D02*
D03*
X5050000Y8440000D02*
D03*
X4700000Y8320000D02*
D03*
X4671323Y8607674D02*
D03*
X5230000Y8930000D02*
D03*
X4860000Y8480000D02*
D03*
X4610000D02*
D03*
X4487500Y8342500D02*
D03*
X5220000Y8655000D02*
D03*
Y9105000D02*
D03*
X4975000Y9000000D02*
D03*
X4492500Y8850000D02*
D03*
X4767500Y8690000D02*
D03*
X4800000Y8320000D02*
D03*
X4890000Y8960000D02*
D03*
X4940000Y8810000D02*
D03*
X4820000Y9080000D02*
D03*
X4698702Y8701298D02*
D03*
X4550000Y8607500D02*
D03*
X4800000Y8431500D02*
D03*
X4750000Y8378500D02*
D03*
X4700000Y8378499D02*
D03*
X4750000Y8488500D02*
D03*
X4700000Y8810000D02*
D03*
X5075001Y8700000D02*
D03*
X4921316Y9122271D02*
D03*
X4875000Y8700000D02*
D03*
X4344020Y8744996D02*
D03*
Y8794996D02*
D03*
X5080000Y8930000D02*
D03*
X4627500Y9032500D02*
D03*
X5165000Y8735000D02*
D03*
X4547500Y9032500D02*
D03*
X4940000Y8690000D02*
D03*
X4350000Y8360000D02*
D03*
X4400000D02*
D03*
Y8410000D02*
D03*
X4350000D02*
D03*
X4344020Y8494996D02*
D03*
Y8644996D02*
D03*
Y8894996D02*
D03*
Y9044996D02*
D03*
X4340000Y9130000D02*
D03*
X4390000D02*
D03*
Y9180000D02*
D03*
X4340000D02*
D03*
%TF.MD5,05b6c4476f49b1bc227cdab270ec3b6c*%
M02*
