%TF.GenerationSoftware,Altium Limited,Altium Designer,24.8.2 (39)*%
G04 Layer_Color=32896*
%FSLAX45Y45*%
%MOMM*%
%TF.SameCoordinates,62BC436B-7982-48EA-BC41-0FA37A5750A2*%
%TF.FilePolarity,Positive*%
%TF.FileFunction,Legend,Bot*%
%TF.Part,Single*%
G01*
G75*
%TA.AperFunction,NonConductor*%
%ADD35C,0.25000*%
%ADD37C,0.12500*%
%ADD39C,0.20000*%
%ADD41C,0.15000*%
D35*
X5270000Y9045000D02*
G03*
X5270000Y9045000I-12500J0D01*
G01*
D37*
X4503000Y9199000D02*
X4547000D01*
X4503000Y9101000D02*
X4547000D01*
Y9132500D01*
Y9167500D02*
Y9199000D01*
X4503000Y9101000D02*
Y9132500D01*
Y9167500D02*
Y9199000D01*
X5053000D02*
X5097000D01*
X5053000Y9101000D02*
X5097000D01*
Y9132500D01*
Y9167500D02*
Y9199000D01*
X5053000Y9101000D02*
Y9132500D01*
Y9167500D02*
Y9199000D01*
X4853000Y9167500D02*
Y9199000D01*
Y9101000D02*
Y9132500D01*
X4897000Y9167500D02*
Y9199000D01*
Y9101000D02*
Y9132500D01*
X4853000Y9101000D02*
X4897000D01*
X4853000Y9199000D02*
X4897000D01*
X4703000Y9167500D02*
Y9199000D01*
Y9101000D02*
Y9132500D01*
X4747000Y9167500D02*
Y9199000D01*
Y9101000D02*
Y9132500D01*
X4703000Y9101000D02*
X4747000D01*
X4703000Y9199000D02*
X4747000D01*
X4753000Y9167500D02*
Y9199000D01*
Y9101000D02*
Y9132500D01*
X4797000Y9167500D02*
Y9199000D01*
Y9101000D02*
Y9132500D01*
X4753000Y9101000D02*
X4797000D01*
X4753000Y9199000D02*
X4797000D01*
X5003000Y9167500D02*
Y9199000D01*
Y9101000D02*
Y9132500D01*
X5047000Y9167500D02*
Y9199000D01*
Y9101000D02*
Y9132500D01*
X5003000Y9101000D02*
X5047000D01*
X5003000Y9199000D02*
X5047000D01*
X4903000Y9167500D02*
Y9199000D01*
Y9101000D02*
Y9132500D01*
X4947000Y9167500D02*
Y9199000D01*
Y9101000D02*
Y9132500D01*
X4903000Y9101000D02*
X4947000D01*
X4903000Y9199000D02*
X4947000D01*
X4803000Y9101000D02*
X4847000D01*
X4803000Y9199000D02*
X4847000D01*
X4803000Y9167500D02*
Y9199000D01*
Y9101000D02*
Y9132500D01*
X4847000Y9167500D02*
Y9199000D01*
Y9101000D02*
Y9132500D01*
X4647000Y9101000D02*
Y9132500D01*
Y9167500D02*
Y9199000D01*
X4603000Y9101000D02*
Y9132500D01*
Y9167500D02*
Y9199000D01*
X4647000D01*
X4603000Y9101000D02*
X4647000D01*
X5197000D02*
Y9132500D01*
Y9167500D02*
Y9199000D01*
X5153000Y9101000D02*
Y9132500D01*
Y9167500D02*
Y9199000D01*
X5197000D01*
X5153000Y9101000D02*
X5197000D01*
X4453000Y9167500D02*
Y9199000D01*
Y9101000D02*
Y9132500D01*
X4497000Y9167500D02*
Y9199000D01*
Y9101000D02*
Y9132500D01*
X4453000Y9101000D02*
X4497000D01*
X4453000Y9199000D02*
X4497000D01*
X4653000Y9167500D02*
Y9199000D01*
Y9101000D02*
Y9132500D01*
X4697000Y9167500D02*
Y9199000D01*
Y9101000D02*
Y9132500D01*
X4653000Y9101000D02*
X4697000D01*
X4653000Y9199000D02*
X4697000D01*
X4553000Y9167500D02*
Y9199000D01*
Y9101000D02*
Y9132500D01*
X4597000Y9167500D02*
Y9199000D01*
Y9101000D02*
Y9132500D01*
X4553000Y9101000D02*
X4597000D01*
X4553000Y9199000D02*
X4597000D01*
X4953000Y9167500D02*
Y9199000D01*
Y9101000D02*
Y9132500D01*
X4997000Y9167500D02*
Y9199000D01*
Y9101000D02*
Y9132500D01*
X4953000Y9101000D02*
X4997000D01*
X4953000Y9199000D02*
X4997000D01*
X5103000Y9167500D02*
Y9199000D01*
Y9101000D02*
Y9132500D01*
X5147000Y9167500D02*
Y9199000D01*
Y9101000D02*
Y9132500D01*
X5103000Y9101000D02*
X5147000D01*
X5103000Y9199000D02*
X5147000D01*
D39*
X5192500Y9025000D02*
Y9060000D01*
X5157500D02*
X5192500D01*
X4462500D02*
X4497500D01*
X4462500Y9025000D02*
Y9060000D01*
Y8330000D02*
Y8365000D01*
Y8330000D02*
X4497500D01*
X5192500D02*
Y8365000D01*
X5157500Y8330000D02*
X5192500D01*
D41*
X5376200Y8825000D02*
G03*
X5376200Y8825000I-76200J0D01*
G01*
Y9125000D02*
G03*
X5376200Y9125000I-76200J0D01*
G01*
Y8375000D02*
G03*
X5376200Y8375000I-76200J0D01*
G01*
Y8975000D02*
G03*
X5376200Y8975000I-76200J0D01*
G01*
Y8525000D02*
G03*
X5376200Y8525000I-76200J0D01*
G01*
Y8675000D02*
G03*
X5376200Y8675000I-76200J0D01*
G01*
%TF.MD5,528a5f19af2476242c0c63753963633d*%
M02*
