%TF.GenerationSoftware,Altium Limited,Altium Designer,24.8.2 (39)*%
G04 Layer_Color=128*
%FSLAX45Y45*%
%MOMM*%
%TF.SameCoordinates,62BC436B-7982-48EA-BC41-0FA37A5750A2*%
%TF.FilePolarity,Positive*%
%TF.FileFunction,Drillmap*%
%TF.Part,Single*%
G01*
G75*
%TA.AperFunction,NonConductor*%
%ADD59C,0.12700*%
D59*
X4364925Y8695589D02*
X4374925D01*
X4369925Y8690589D02*
Y8700589D01*
X4695000Y8320000D02*
X4705000D01*
X4700000Y8315000D02*
Y8325000D01*
X4666323Y8607674D02*
X4676323D01*
X4671323Y8602674D02*
Y8612674D01*
X4855000Y8480000D02*
X4865000D01*
X4860000Y8475000D02*
Y8485000D01*
X4605000Y8480000D02*
X4615000D01*
X4610000Y8475000D02*
Y8485000D01*
X4482500Y8342500D02*
X4492500D01*
X4487500Y8337500D02*
Y8347500D01*
X5215000Y8655000D02*
X5225000D01*
X5220000Y8650000D02*
Y8660000D01*
X5215000Y9105000D02*
X5225000D01*
X5220000Y9100000D02*
Y9110000D01*
X4970000Y9000000D02*
X4980000D01*
X4975000Y8995000D02*
Y9005000D01*
X4487500Y8850000D02*
X4497500D01*
X4492500Y8845000D02*
Y8855000D01*
X4762500Y8690000D02*
X4772500D01*
X4767500Y8685000D02*
Y8695000D01*
X4795000Y8320000D02*
X4805000D01*
X4800000Y8315000D02*
Y8325000D01*
X4815000Y9080000D02*
X4825000D01*
X4820000Y9075000D02*
Y9085000D01*
X4545000Y8607500D02*
X4555000D01*
X4550000Y8602500D02*
Y8612500D01*
X4795000Y8431500D02*
X4805000D01*
X4800000Y8426500D02*
Y8436500D01*
X4745000Y8378500D02*
X4755000D01*
X4750000Y8373500D02*
Y8383500D01*
X4695000Y8378499D02*
X4705000D01*
X4700000Y8373499D02*
Y8383499D01*
X5070001Y8700000D02*
X5080001D01*
X5075001Y8695000D02*
Y8705000D01*
X4916316Y9122271D02*
X4926316D01*
X4921316Y9117271D02*
Y9127271D01*
X4870000Y8700000D02*
X4880000D01*
X4875000Y8695000D02*
Y8705000D01*
X4339020Y8644996D02*
X4349020D01*
X4344020Y8639996D02*
Y8649996D01*
X4339020Y8894996D02*
X4349020D01*
X4344020Y8889996D02*
Y8899996D01*
%TF.MD5,babee8c2f945b712f0f91d12c0a2bb50*%
M02*
