%TF.GenerationSoftware,Altium Limited,Altium Designer,24.8.2 (39)*%
G04 Layer_Color=255*
%FSLAX45Y45*%
%MOMM*%
%TF.SameCoordinates,62BC436B-7982-48EA-BC41-0FA37A5750A2*%
%TF.FilePolarity,Positive*%
%TF.FileFunction,Pads,Top*%
%TF.Part,Single*%
G01*
G75*
%TA.AperFunction,SMDPad,CuDef*%
%ADD10R,0.55000X0.60000*%
%ADD11R,0.30000X0.27000*%
%ADD12R,0.27000X0.30000*%
%ADD13R,0.60000X0.50000*%
%AMCUSTOMSHAPE14*
4,1,5,-0.90000,-1.15000,-0.90000,0.77044,-0.52044,1.15000,0.90000,1.15000,0.90000,-1.15000,-0.90000,-1.15000,0.0*%
%ADD14CUSTOMSHAPE14*%

G04:AMPARAMS|DCode=15|XSize=0.3mm|YSize=0.45mm|CornerRadius=0.075mm|HoleSize=0mm|Usage=FLASHONLY|Rotation=0.000|XOffset=0mm|YOffset=0mm|HoleType=Round|Shape=RoundedRectangle|*
%AMROUNDEDRECTD15*
21,1,0.30000,0.30000,0,0,0.0*
21,1,0.15000,0.45000,0,0,0.0*
1,1,0.15000,0.07500,-0.15000*
1,1,0.15000,-0.07500,-0.15000*
1,1,0.15000,-0.07500,0.15000*
1,1,0.15000,0.07500,0.15000*
%
%ADD15ROUNDEDRECTD15*%
G04:AMPARAMS|DCode=16|XSize=0.3mm|YSize=0.45mm|CornerRadius=0.075mm|HoleSize=0mm|Usage=FLASHONLY|Rotation=90.000|XOffset=0mm|YOffset=0mm|HoleType=Round|Shape=RoundedRectangle|*
%AMROUNDEDRECTD16*
21,1,0.30000,0.30000,0,0,90.0*
21,1,0.15000,0.45000,0,0,90.0*
1,1,0.15000,0.15000,0.07500*
1,1,0.15000,0.15000,-0.07500*
1,1,0.15000,-0.15000,-0.07500*
1,1,0.15000,-0.15000,0.07500*
%
%ADD16ROUNDEDRECTD16*%
%TA.AperFunction,ConnectorPad*%
%ADD17R,1.00000X1.10000*%
%TA.AperFunction,SMDPad,CuDef*%
%ADD18R,0.85000X1.40000*%
%ADD19R,1.30000X0.42000*%
%ADD20R,0.80000X1.70000*%
%ADD21R,0.50000X0.60000*%
G04:AMPARAMS|DCode=22|XSize=1.10712mm|YSize=0.53583mm|CornerRadius=0.26791mm|HoleSize=0mm|Usage=FLASHONLY|Rotation=270.000|XOffset=0mm|YOffset=0mm|HoleType=Round|Shape=RoundedRectangle|*
%AMROUNDEDRECTD22*
21,1,1.10712,0.00000,0,0,270.0*
21,1,0.57129,0.53583,0,0,270.0*
1,1,0.53583,0.00000,-0.28565*
1,1,0.53583,0.00000,0.28565*
1,1,0.53583,0.00000,0.28565*
1,1,0.53583,0.00000,-0.28565*
%
%ADD22ROUNDEDRECTD22*%
%ADD23R,0.53583X1.10712*%
%TA.AperFunction,ConnectorPad*%
%ADD24R,1.00000X1.18000*%
%ADD25R,1.50000X0.35000*%
D10*
X4875000Y8875000D02*
D03*
Y8975000D02*
D03*
D11*
X4700000Y8321500D02*
D03*
Y8378499D02*
D03*
X4800000Y8378500D02*
D03*
Y8321500D02*
D03*
X4750000Y8488500D02*
D03*
Y8431500D02*
D03*
Y8321500D02*
D03*
Y8378500D02*
D03*
X4700000Y8488499D02*
D03*
Y8431500D02*
D03*
X4800000Y8488500D02*
D03*
Y8431500D02*
D03*
D12*
X4803500Y8550000D02*
D03*
X4746500D02*
D03*
X5171500Y8740000D02*
D03*
X5228500D02*
D03*
D13*
X5075001Y8700000D02*
D03*
X4975000D02*
D03*
X5075000Y9000000D02*
D03*
X4975000D02*
D03*
X5075000Y8925000D02*
D03*
X4975000D02*
D03*
X4975000Y8775000D02*
D03*
X5075001D02*
D03*
X4975000Y8850000D02*
D03*
X5075001D02*
D03*
D14*
X4630000Y8770000D02*
D03*
D15*
X4550000Y8607500D02*
D03*
X4630000D02*
D03*
X4710000D02*
D03*
X4710000Y8932500D02*
D03*
X4630000D02*
D03*
X4550000D02*
D03*
D16*
X4767500Y8690000D02*
D03*
Y8770000D02*
D03*
Y8850000D02*
D03*
X4492500Y8690000D02*
D03*
Y8770000D02*
D03*
Y8850000D02*
D03*
D17*
X4612500Y8342500D02*
D03*
Y8507500D02*
D03*
X4487500D02*
D03*
Y8342500D02*
D03*
D18*
X5096316Y9122271D02*
D03*
X4921316D02*
D03*
D19*
X5220000Y8655000D02*
D03*
Y8570000D02*
D03*
Y8485000D02*
D03*
Y8400000D02*
D03*
Y8850000D02*
D03*
Y8935000D02*
D03*
Y9020000D02*
D03*
Y9105000D02*
D03*
D20*
X4810000Y9115000D02*
D03*
X4470000D02*
D03*
D21*
X4875000Y8800000D02*
D03*
Y8700000D02*
D03*
D22*
X5095000Y8364945D02*
D03*
X4905000D02*
D03*
Y8585055D02*
D03*
X5000000D02*
D03*
D23*
X5095000D02*
D03*
D24*
X4369020Y9139000D02*
D03*
Y8401000D02*
D03*
D25*
X4344020Y8494996D02*
D03*
Y8544996D02*
D03*
Y8594996D02*
D03*
Y8644996D02*
D03*
Y8694996D02*
D03*
Y8744996D02*
D03*
Y8794996D02*
D03*
Y8844996D02*
D03*
Y8894996D02*
D03*
Y8944996D02*
D03*
Y8994996D02*
D03*
Y9044996D02*
D03*
%TF.MD5,42fc81651ff4c228f969c4d08ad744b5*%
M02*
