%TF.GenerationSoftware,Altium Limited,Altium Designer,24.8.2 (39)*%
G04 Layer_Color=32768*
%FSLAX45Y45*%
%MOMM*%
%TF.SameCoordinates,62BC436B-7982-48EA-BC41-0FA37A5750A2*%
%TF.FilePolarity,Positive*%
%TF.FileFunction,Other,Mechanical_7*%
%TF.Part,Single*%
G01*
G75*
%TA.AperFunction,NonConductor*%
%ADD61C,0.10000*%
%ADD62C,0.05080*%
D61*
X5376200Y8825000D02*
G03*
X5376200Y8825000I-76200J0D01*
G01*
X5350000D02*
G03*
X5350000Y8825000I-50000J0D01*
G01*
X5376200Y9125000D02*
G03*
X5376200Y9125000I-76200J0D01*
G01*
X5350000D02*
G03*
X5350000Y9125000I-50000J0D01*
G01*
X5376200Y8375000D02*
G03*
X5376200Y8375000I-76200J0D01*
G01*
X5350000D02*
G03*
X5350000Y8375000I-50000J0D01*
G01*
X5376200Y8975000D02*
G03*
X5376200Y8975000I-76200J0D01*
G01*
X5350000D02*
G03*
X5350000Y8975000I-50000J0D01*
G01*
X5376200Y8525000D02*
G03*
X5376200Y8525000I-76200J0D01*
G01*
X5350000D02*
G03*
X5350000Y8525000I-50000J0D01*
G01*
X5376200Y8675000D02*
G03*
X5376200Y8675000I-76200J0D01*
G01*
X5350000D02*
G03*
X5350000Y8675000I-50000J0D01*
G01*
X4847500Y8872500D02*
X4902500D01*
X4847500Y8977500D02*
X4902500D01*
X4847500Y8872500D02*
Y8977500D01*
X4902500Y8872500D02*
Y8977500D01*
X4683500Y8381500D02*
X4716500D01*
X4683500Y8318500D02*
X4716500D01*
Y8381500D01*
X4683500Y8318500D02*
Y8381500D01*
X4783500Y8318500D02*
Y8381500D01*
X4816500Y8318500D02*
Y8381500D01*
X4783500Y8318500D02*
X4816500D01*
X4783500Y8381500D02*
X4816500D01*
X4733500Y8428500D02*
Y8491500D01*
X4766500Y8428500D02*
Y8491500D01*
X4733500Y8428500D02*
X4766500D01*
X4733500Y8491500D02*
X4766500D01*
X4743500Y8533500D02*
Y8566500D01*
X4806500Y8533500D02*
Y8566500D01*
X4743500D02*
X4806500D01*
X4743500Y8533500D02*
X4806500D01*
X4972500Y8672500D02*
X5077500D01*
X4972500Y8727500D02*
X5077500Y8727500D01*
X5077500Y8672500D02*
X5077500Y8727500D01*
X4972500Y8672500D02*
Y8727500D01*
X4972500Y8972500D02*
X5077500D01*
X4972500Y9027500D02*
X5077500Y9027500D01*
X5077500Y8972500D02*
X5077500Y9027500D01*
X4972500Y8972500D02*
Y9027500D01*
X4508500Y9118500D02*
Y9181500D01*
X4541500Y9118500D02*
Y9181500D01*
X4508500D02*
X4541500D01*
X4508500Y9118500D02*
X4541500D01*
X4733500Y8381500D02*
X4766500D01*
X4733500Y8318500D02*
X4766500D01*
Y8381500D01*
X4733500Y8318500D02*
Y8381500D01*
X5231500Y8723500D02*
Y8756500D01*
X5168500Y8723500D02*
Y8756500D01*
Y8723500D02*
X5231500D01*
X5168500Y8756500D02*
X5231500D01*
X5058500Y9118500D02*
Y9181500D01*
X5091500Y9118500D02*
Y9181500D01*
X5058500D02*
X5091500D01*
X5058500Y9118500D02*
X5091500D01*
X4683500Y8428500D02*
Y8491500D01*
X4716500Y8428500D02*
Y8491500D01*
X4683500Y8428500D02*
X4716500D01*
X4683500Y8491500D02*
X4716500D01*
X4783500Y8428500D02*
Y8491500D01*
X4816500Y8428500D02*
Y8491500D01*
X4783500Y8428500D02*
X4816500D01*
X4783500Y8491500D02*
X4816500D01*
X4972500Y8897500D02*
X5077500D01*
X4972500Y8952500D02*
X5077500Y8952501D01*
X5077500Y8897500D02*
X5077500Y8952501D01*
X4972500Y8897500D02*
Y8952500D01*
X4847500Y8802500D02*
X4902500D01*
X4847500Y8697500D02*
X4902500Y8697500D01*
X4902500Y8802500D02*
X4902500Y8697500D01*
X4847500Y8697500D02*
Y8802500D01*
X4858500Y9118500D02*
X4891500D01*
X4858500Y9181500D02*
X4891500D01*
Y9118500D02*
Y9181500D01*
X4858500Y9118500D02*
Y9181500D01*
X4708500Y9118500D02*
X4741500D01*
X4708500Y9181500D02*
X4741500D01*
Y9118500D02*
Y9181500D01*
X4708500Y9118500D02*
Y9181500D01*
X4758500Y9118500D02*
X4791500D01*
X4758500Y9181500D02*
X4791500D01*
Y9118500D02*
Y9181500D01*
X4758500Y9118500D02*
Y9181500D01*
X5008500Y9118500D02*
X5041500D01*
X5008500Y9181500D02*
X5041500D01*
Y9118500D02*
Y9181500D01*
X5008500Y9118500D02*
Y9181500D01*
X4908500Y9118500D02*
X4941500D01*
X4908500Y9181500D02*
X4941500D01*
Y9118500D02*
Y9181500D01*
X4908500Y9118500D02*
Y9181500D01*
X4841500Y9118500D02*
Y9181500D01*
X4808500Y9118500D02*
Y9181500D01*
Y9118500D02*
X4841500D01*
X4808500Y9181500D02*
X4841500D01*
X4608500D02*
X4641500D01*
X4608500Y9118500D02*
X4641500D01*
X4608500D02*
Y9181500D01*
X4641500Y9118500D02*
Y9181500D01*
X5158500D02*
X5191500D01*
X5158500Y9118500D02*
X5191500D01*
X5158500D02*
Y9181500D01*
X5191500Y9118500D02*
Y9181500D01*
X4458500Y9118500D02*
X4491500D01*
X4458500Y9181500D02*
X4491500D01*
Y9118500D02*
Y9181500D01*
X4458500Y9118500D02*
Y9181500D01*
X4658500Y9118500D02*
X4691500D01*
X4658500Y9181500D02*
X4691500D01*
Y9118500D02*
Y9181500D01*
X4658500Y9118500D02*
Y9181500D01*
X4558500Y9118500D02*
X4591500D01*
X4558500Y9181500D02*
X4591500D01*
Y9118500D02*
Y9181500D01*
X4558500Y9118500D02*
Y9181500D01*
X4958500Y9118500D02*
X4991500D01*
X4958500Y9181500D02*
X4991500D01*
Y9118500D02*
Y9181500D01*
X4958500Y9118500D02*
Y9181500D01*
X5108500Y9118500D02*
X5141500D01*
X5108500Y9181500D02*
X5141500D01*
Y9118500D02*
Y9181500D01*
X5108500Y9118500D02*
Y9181500D01*
X4972500Y8747500D02*
Y8802500D01*
X5077500Y8747500D02*
X5077500Y8802500D01*
X4972500Y8802500D02*
X5077500Y8802500D01*
X4972500Y8747500D02*
X5077500D01*
X4972500Y8822500D02*
Y8877500D01*
X5077500Y8822500D02*
X5077500Y8877500D01*
X4972500Y8877500D02*
X5077500Y8877500D01*
X4972500Y8822500D02*
X5077500D01*
D62*
X4890240Y8881820D02*
X4859770D01*
Y8897055D01*
X4864848Y8902133D01*
X4875005D01*
X4880083Y8897055D01*
Y8881820D01*
Y8891977D02*
X4890240Y8902133D01*
X4859770Y8932603D02*
Y8912290D01*
X4875005D01*
X4869927Y8922447D01*
Y8927525D01*
X4875005Y8932603D01*
X4885161D01*
X4890240Y8927525D01*
Y8917368D01*
X4885161Y8912290D01*
X4712692Y8380487D02*
X4717770Y8385565D01*
Y8395722D01*
X4712692Y8400800D01*
X4692378D01*
X4687300Y8395722D01*
Y8385565D01*
X4692378Y8380487D01*
X4687300Y8355095D02*
X4717770D01*
X4702535Y8370330D01*
Y8350017D01*
X4787300Y8400800D02*
X4817770D01*
Y8385565D01*
X4812692Y8380487D01*
X4802535D01*
X4797457Y8385565D01*
Y8400800D01*
Y8390643D02*
X4787300Y8380487D01*
Y8355095D02*
X4817770D01*
X4802535Y8370330D01*
Y8350017D01*
X4737300Y8510800D02*
X4767770D01*
Y8495565D01*
X4762692Y8490487D01*
X4752535D01*
X4747457Y8495565D01*
Y8510800D01*
Y8500643D02*
X4737300Y8490487D01*
Y8480330D02*
Y8470173D01*
Y8475252D01*
X4767770D01*
X4762692Y8480330D01*
X4724200Y8537300D02*
Y8567770D01*
X4739435D01*
X4744513Y8562692D01*
Y8552535D01*
X4739435Y8547457D01*
X4724200D01*
X4734357D02*
X4744513Y8537300D01*
X4754670Y8562692D02*
X4759749Y8567770D01*
X4769905D01*
X4774984Y8562692D01*
Y8557613D01*
X4769905Y8552535D01*
X4774984Y8547457D01*
Y8542378D01*
X4769905Y8537300D01*
X4759749D01*
X4754670Y8542378D01*
Y8547457D01*
X4759749Y8552535D01*
X4754670Y8557613D01*
Y8562692D01*
X4759749Y8552535D02*
X4769905D01*
X4994514Y8712692D02*
X4989435Y8717770D01*
X4979279D01*
X4974200Y8712692D01*
Y8692379D01*
X4979279Y8687300D01*
X4989435D01*
X4994514Y8692379D01*
X5004670Y8712692D02*
X5009749Y8717770D01*
X5019905D01*
X5024984Y8712692D01*
Y8707614D01*
X5019905Y8702535D01*
X5014827D01*
X5019905D01*
X5024984Y8697457D01*
Y8692379D01*
X5019905Y8687300D01*
X5009749D01*
X5004670Y8692379D01*
X4994513Y9012692D02*
X4989435Y9017770D01*
X4979278D01*
X4974200Y9012692D01*
Y8992379D01*
X4979278Y8987300D01*
X4989435D01*
X4994513Y8992379D01*
X5004670Y8987300D02*
X5014827D01*
X5009748D01*
Y9017770D01*
X5004670Y9012692D01*
X5050375Y9017770D02*
X5040219Y9012692D01*
X5030062Y9002535D01*
Y8992379D01*
X5035140Y8987300D01*
X5045297D01*
X5050375Y8992379D01*
Y8997457D01*
X5045297Y9002535D01*
X5030062D01*
X4512300Y9099200D02*
X4542770D01*
Y9114435D01*
X4537692Y9119513D01*
X4527535D01*
X4522457Y9114435D01*
Y9099200D01*
Y9109357D02*
X4512300Y9119513D01*
X4542770Y9129670D02*
Y9149983D01*
X4537692D01*
X4517379Y9129670D01*
X4512300D01*
X4737300Y8400800D02*
X4767770D01*
Y8385565D01*
X4762692Y8380487D01*
X4752535D01*
X4747457Y8385565D01*
Y8400800D01*
Y8390643D02*
X4737300Y8380487D01*
Y8350017D02*
Y8370330D01*
X4757613Y8350017D01*
X4762692D01*
X4767770Y8355095D01*
Y8365251D01*
X4762692Y8370330D01*
X5250800Y8752700D02*
Y8722230D01*
X5235565D01*
X5230487Y8727308D01*
Y8737465D01*
X5235565Y8742543D01*
X5250800D01*
X5240643D02*
X5230487Y8752700D01*
X5200017Y8722230D02*
X5210173Y8727308D01*
X5220330Y8737465D01*
Y8747622D01*
X5215251Y8752700D01*
X5205095D01*
X5200017Y8747622D01*
Y8742543D01*
X5205095Y8737465D01*
X5220330D01*
X5062300Y9099200D02*
X5092770D01*
Y9114435D01*
X5087692Y9119513D01*
X5077535D01*
X5072457Y9114435D01*
Y9099200D01*
Y9109357D02*
X5062300Y9119513D01*
X5067379Y9129670D02*
X5062300Y9134749D01*
Y9144905D01*
X5067379Y9149983D01*
X5087692D01*
X5092770Y9144905D01*
Y9134749D01*
X5087692Y9129670D01*
X5082614D01*
X5077535Y9134749D01*
Y9149983D01*
X4712692Y8490487D02*
X4717770Y8495565D01*
Y8505722D01*
X4712692Y8510800D01*
X4692378D01*
X4687300Y8505722D01*
Y8495565D01*
X4692378Y8490487D01*
X4717770Y8460017D02*
Y8480330D01*
X4702535D01*
X4707613Y8470173D01*
Y8465095D01*
X4702535Y8460017D01*
X4692378D01*
X4687300Y8465095D01*
Y8475252D01*
X4692378Y8480330D01*
X4958016Y9140041D02*
Y9109571D01*
X4978329D01*
X4988486Y9134963D02*
X4993565Y9140041D01*
X5003721D01*
X5008799Y9134963D01*
Y9129884D01*
X5003721Y9124806D01*
X4998643D01*
X5003721D01*
X5008799Y9119728D01*
Y9114649D01*
X5003721Y9109571D01*
X4993565D01*
X4988486Y9114649D01*
X4787300Y8510800D02*
X4817770D01*
Y8495565D01*
X4812692Y8490487D01*
X4802535D01*
X4797457Y8495565D01*
Y8510800D01*
Y8500643D02*
X4787300Y8490487D01*
Y8480330D02*
Y8470173D01*
Y8475252D01*
X4817770D01*
X4812692Y8480330D01*
Y8454938D02*
X4817770Y8449860D01*
Y8439703D01*
X4812692Y8434625D01*
X4792379D01*
X4787300Y8439703D01*
Y8449860D01*
X4792379Y8454938D01*
X4812692D01*
X4994513Y8937692D02*
X4989435Y8942770D01*
X4979278D01*
X4974200Y8937692D01*
Y8917379D01*
X4979278Y8912300D01*
X4989435D01*
X4994513Y8917379D01*
X5004670Y8912300D02*
X5014827D01*
X5009748D01*
Y8942770D01*
X5004670Y8937692D01*
X5030062Y8942770D02*
X5050375D01*
Y8937692D01*
X5030062Y8917379D01*
Y8912300D01*
X4887692Y8780487D02*
X4892770Y8785565D01*
Y8795722D01*
X4887692Y8800800D01*
X4867378D01*
X4862300Y8795722D01*
Y8785565D01*
X4867378Y8780487D01*
X4862300Y8770330D02*
Y8760173D01*
Y8765251D01*
X4892770D01*
X4887692Y8770330D01*
Y8744938D02*
X4892770Y8739860D01*
Y8729703D01*
X4887692Y8724625D01*
X4882613D01*
X4877535Y8729703D01*
X4872457Y8724625D01*
X4867378D01*
X4862300Y8729703D01*
Y8739860D01*
X4867378Y8744938D01*
X4872457D01*
X4877535Y8739860D01*
X4882613Y8744938D01*
X4887692D01*
X4877535Y8739860D02*
Y8729703D01*
X4887692Y9119513D02*
X4892770Y9114435D01*
Y9104278D01*
X4887692Y9099200D01*
X4867379D01*
X4862300Y9104278D01*
Y9114435D01*
X4867379Y9119513D01*
X4892770Y9149983D02*
X4887692Y9139827D01*
X4877535Y9129670D01*
X4867379D01*
X4862300Y9134749D01*
Y9144905D01*
X4867379Y9149983D01*
X4872457D01*
X4877535Y9144905D01*
Y9129670D01*
X4737692Y9119513D02*
X4742770Y9114435D01*
Y9104278D01*
X4737692Y9099200D01*
X4717379D01*
X4712300Y9104278D01*
Y9114435D01*
X4717379Y9119513D01*
X4712300Y9129670D02*
Y9139827D01*
Y9134749D01*
X4742770D01*
X4737692Y9129670D01*
Y9155062D02*
X4742770Y9160140D01*
Y9170297D01*
X4737692Y9175375D01*
X4732614D01*
X4727535Y9170297D01*
Y9165219D01*
Y9170297D01*
X4722457Y9175375D01*
X4717379D01*
X4712300Y9170297D01*
Y9160140D01*
X4717379Y9155062D01*
X4787692Y9119513D02*
X4792770Y9114435D01*
Y9104278D01*
X4787692Y9099200D01*
X4767379D01*
X4762300Y9104278D01*
Y9114435D01*
X4767379Y9119513D01*
X4762300Y9129670D02*
Y9139827D01*
Y9134749D01*
X4792770D01*
X4787692Y9129670D01*
X4762300Y9170297D02*
X4792770D01*
X4777535Y9155062D01*
Y9175375D01*
X5037692Y9119513D02*
X5042770Y9114435D01*
Y9104278D01*
X5037692Y9099200D01*
X5017379D01*
X5012300Y9104278D01*
Y9114435D01*
X5017379Y9119513D01*
Y9129670D02*
X5012300Y9134749D01*
Y9144905D01*
X5017379Y9149983D01*
X5037692D01*
X5042770Y9144905D01*
Y9134749D01*
X5037692Y9129670D01*
X5032614D01*
X5027536Y9134749D01*
Y9149983D01*
X4937692Y9119513D02*
X4942770Y9114435D01*
Y9104278D01*
X4937692Y9099200D01*
X4917379D01*
X4912300Y9104278D01*
Y9114435D01*
X4917379Y9119513D01*
X4912300Y9129670D02*
Y9139827D01*
Y9134749D01*
X4942770D01*
X4937692Y9129670D01*
Y9155062D02*
X4942770Y9160140D01*
Y9170297D01*
X4937692Y9175375D01*
X4917379D01*
X4912300Y9170297D01*
Y9160140D01*
X4917379Y9155062D01*
X4937692D01*
X4812308Y9180487D02*
X4807230Y9185565D01*
Y9195722D01*
X4812308Y9200800D01*
X4832622D01*
X4837700Y9195722D01*
Y9185565D01*
X4832622Y9180487D01*
X4837700Y9170330D02*
Y9160173D01*
Y9165251D01*
X4807230D01*
X4812308Y9170330D01*
X4612308Y9180487D02*
X4607230Y9185565D01*
Y9195722D01*
X4612308Y9200800D01*
X4632622D01*
X4637700Y9195722D01*
Y9185565D01*
X4632622Y9180487D01*
X4637700Y9170330D02*
Y9160173D01*
Y9165251D01*
X4607230D01*
X4612308Y9170330D01*
X4632622Y9144938D02*
X4637700Y9139860D01*
Y9129703D01*
X4632622Y9124625D01*
X4612308D01*
X4607230Y9129703D01*
Y9139860D01*
X4612308Y9144938D01*
X4617387D01*
X4622465Y9139860D01*
Y9124625D01*
X5162308Y9180487D02*
X5157230Y9185565D01*
Y9195722D01*
X5162308Y9200800D01*
X5182622D01*
X5187700Y9195722D01*
Y9185565D01*
X5182622Y9180487D01*
X5187700Y9150016D02*
Y9170330D01*
X5167387Y9150016D01*
X5162308D01*
X5157230Y9155095D01*
Y9165251D01*
X5162308Y9170330D01*
Y9139860D02*
X5157230Y9134781D01*
Y9124625D01*
X5162308Y9119546D01*
X5182622D01*
X5187700Y9124625D01*
Y9134781D01*
X5182622Y9139860D01*
X5162308D01*
X4462300Y9099200D02*
X4492770D01*
Y9114435D01*
X4487692Y9119513D01*
X4477535D01*
X4472457Y9114435D01*
Y9099200D01*
Y9109357D02*
X4462300Y9119513D01*
X4487692Y9129670D02*
X4492770Y9134749D01*
Y9144905D01*
X4487692Y9149983D01*
X4482614D01*
X4477535Y9144905D01*
Y9139827D01*
Y9144905D01*
X4472457Y9149983D01*
X4467379D01*
X4462300Y9144905D01*
Y9134749D01*
X4467379Y9129670D01*
X4687692Y9119513D02*
X4692770Y9114435D01*
Y9104278D01*
X4687692Y9099200D01*
X4667379D01*
X4662300Y9104278D01*
Y9114435D01*
X4667379Y9119513D01*
X4662300Y9129670D02*
Y9139827D01*
Y9134749D01*
X4692770D01*
X4687692Y9129670D01*
X4662300Y9175375D02*
Y9155062D01*
X4682614Y9175375D01*
X4687692D01*
X4692770Y9170297D01*
Y9160140D01*
X4687692Y9155062D01*
X4587692Y9119513D02*
X4592770Y9114435D01*
Y9104278D01*
X4587692Y9099200D01*
X4567379D01*
X4562300Y9104278D01*
Y9114435D01*
X4567379Y9119513D01*
X4562300Y9129670D02*
Y9139827D01*
Y9134749D01*
X4592770D01*
X4587692Y9129670D01*
X4562300Y9155062D02*
Y9165219D01*
Y9160140D01*
X4592770D01*
X4587692Y9155062D01*
X4987692Y9119513D02*
X4992770Y9114435D01*
Y9104278D01*
X4987692Y9099200D01*
X4967379D01*
X4962300Y9104278D01*
Y9114435D01*
X4967379Y9119513D01*
X4987692Y9129670D02*
X4992770Y9134749D01*
Y9144905D01*
X4987692Y9149983D01*
X4982614D01*
X4977535Y9144905D01*
X4972457Y9149983D01*
X4967379D01*
X4962300Y9144905D01*
Y9134749D01*
X4967379Y9129670D01*
X4972457D01*
X4977535Y9134749D01*
X4982614Y9129670D01*
X4987692D01*
X4977535Y9134749D02*
Y9144905D01*
X5137692Y9119513D02*
X5142770Y9114435D01*
Y9104278D01*
X5137692Y9099200D01*
X5117379D01*
X5112300Y9104278D01*
Y9114435D01*
X5117379Y9119513D01*
X5142770Y9129670D02*
Y9149983D01*
X5137692D01*
X5117379Y9129670D01*
X5112300D01*
X4994514Y8787692D02*
X4989435Y8792770D01*
X4979279D01*
X4974200Y8787692D01*
Y8767378D01*
X4979279Y8762300D01*
X4989435D01*
X4994514Y8767378D01*
X5024984Y8762300D02*
X5004670D01*
X5024984Y8782613D01*
Y8787692D01*
X5019905Y8792770D01*
X5009749D01*
X5004670Y8787692D01*
X4994514Y8862692D02*
X4989435Y8867770D01*
X4979279D01*
X4974200Y8862692D01*
Y8842379D01*
X4979279Y8837300D01*
X4989435D01*
X4994514Y8842379D01*
X5004670Y8837300D02*
X5014827D01*
X5009749D01*
Y8867770D01*
X5004670Y8862692D01*
X5050375Y8867770D02*
X5030062D01*
Y8852535D01*
X5040219Y8857613D01*
X5045297D01*
X5050375Y8852535D01*
Y8842379D01*
X5045297Y8837300D01*
X5035141D01*
X5030062Y8842379D01*
%TF.MD5,a5ddc96b6f8499da816f650ab1ca810c*%
M02*
