%TF.GenerationSoftware,Altium Limited,Altium Designer,24.8.2 (39)*%
G04 Layer_Physical_Order=8*
G04 Layer_Color=16711680*
%FSLAX45Y45*%
%MOMM*%
%TF.SameCoordinates,62BC436B-7982-48EA-BC41-0FA37A5750A2*%
%TF.FilePolarity,Positive*%
%TF.FileFunction,Copper,L8,Bot,Signal*%
%TF.Part,Single*%
G01*
G75*
%TA.AperFunction,SMDPad,CuDef*%
%ADD11R,0.30000X0.27000*%
%TA.AperFunction,ConnectorPad*%
%ADD25R,1.50000X0.35000*%
%TA.AperFunction,Conductor*%
%ADD27C,0.15240*%
%ADD28C,0.20000*%
%TA.AperFunction,ViaPad*%
%ADD29C,0.25000*%
%TA.AperFunction,SMDPad,CuDef*%
%ADD30O,0.70000X0.20000*%
%ADD31O,0.20000X0.70000*%
%ADD32R,3.40000X3.40000*%
%ADD33C,1.00000*%
%TA.AperFunction,ConnectorPad*%
%ADD34R,1.00000X0.90000*%
D11*
X4525000Y9121500D02*
D03*
Y9178500D02*
D03*
X5075000Y9121500D02*
D03*
Y9178500D02*
D03*
X4875000D02*
D03*
Y9121501D02*
D03*
X4725000Y9178500D02*
D03*
Y9121501D02*
D03*
X4775000Y9178500D02*
D03*
Y9121501D02*
D03*
X5025000Y9178500D02*
D03*
Y9121501D02*
D03*
X4925000Y9178500D02*
D03*
Y9121501D02*
D03*
X4825000Y9178499D02*
D03*
Y9121500D02*
D03*
X4625000D02*
D03*
Y9178499D02*
D03*
X5175000Y9121500D02*
D03*
Y9178499D02*
D03*
X4475000Y9178500D02*
D03*
Y9121500D02*
D03*
X4675000Y9178500D02*
D03*
Y9121501D02*
D03*
X4575000Y9178500D02*
D03*
Y9121501D02*
D03*
X4975000Y9178500D02*
D03*
Y9121501D02*
D03*
X5125000Y9178500D02*
D03*
Y9121501D02*
D03*
D25*
X4344020Y8494996D02*
D03*
Y8544996D02*
D03*
Y8594996D02*
D03*
Y8644996D02*
D03*
Y8694996D02*
D03*
Y8844996D02*
D03*
Y8894996D02*
D03*
Y8944996D02*
D03*
Y8994996D02*
D03*
Y9044996D02*
D03*
D27*
X4740000Y8300000D02*
X5130000D01*
X5170000Y8340000D01*
X4707500Y8332500D02*
X4740000Y8300000D01*
X4707500Y8332500D02*
Y8357500D01*
X4750000Y8488500D02*
X4781500D01*
X4867500Y8402500D01*
Y8357500D02*
Y8402500D01*
D28*
X5067500Y9114000D02*
X5070000Y9116500D01*
X5073500Y9121500D02*
X5075000D01*
X5070000Y9118000D02*
X5073500Y9121500D01*
X5070000Y9116500D02*
Y9118000D01*
X5067500Y9032500D02*
Y9114000D01*
X4725000Y9121501D02*
X4775000D01*
X4720000Y9116501D02*
Y9118001D01*
X4723500Y9121501D02*
X4725000D01*
X4720000Y9118001D02*
X4723500Y9121501D01*
X4720000Y9116500D02*
X4720000Y9116501D01*
X4720000Y9090000D02*
Y9116500D01*
X4707500Y9077500D02*
X4720000Y9090000D01*
X4707500Y9032500D02*
Y9077500D01*
X4825000Y9178499D02*
X5175000D01*
X4625000D02*
X4825000D01*
X4391501D02*
X4625000D01*
X4390000Y9180000D02*
X4391501Y9178499D01*
X5175000Y9121500D02*
X5175000Y9121500D01*
X5125000Y9121501D02*
X5125000Y9121500D01*
X5175000D01*
X4873500D02*
X4873500Y9121501D01*
X4867500Y9115500D02*
X4873500Y9121500D01*
X4875000D02*
X5025000D01*
X4825001D02*
X4873500D01*
X4867500Y9032500D02*
Y9115500D01*
X4873500Y9121501D02*
X4875000D01*
X4825001Y9121500D02*
X4827500Y9119001D01*
Y9032500D02*
Y9119001D01*
X5025000Y9121500D02*
X5025000Y9121501D01*
X4673500D02*
X4675000D01*
X4575000D02*
X4673500D01*
X4667500Y9115500D02*
X4673500Y9121501D01*
X4667500Y9032500D02*
Y9115500D01*
D29*
X4475000Y9121500D02*
D03*
X4344020Y8894996D02*
D03*
Y8644996D02*
D03*
X4749628Y8335000D02*
D03*
X4950000Y8440000D02*
D03*
X5050000Y8440000D02*
D03*
X5170000Y8340000D02*
D03*
X4547500Y8357500D02*
D03*
X5230000Y8930000D02*
D03*
X4890000Y8960000D02*
D03*
X4940000Y8810000D02*
D03*
X4830000D02*
D03*
X4698702Y8701298D02*
D03*
X4750000Y8488500D02*
D03*
X4700000Y8810000D02*
D03*
X4344020Y8744996D02*
D03*
Y8794996D02*
D03*
X5080000Y8930000D02*
D03*
X5300000Y8975000D02*
D03*
Y8525000D02*
D03*
Y8675000D02*
D03*
X4907500Y8357500D02*
D03*
X4787500D02*
D03*
X4947500D02*
D03*
X4827500D02*
D03*
X5067500Y9032500D02*
D03*
X4627500D02*
D03*
X5300000Y8375000D02*
D03*
Y9125000D02*
D03*
Y8825000D02*
D03*
X5165000Y8575000D02*
D03*
Y8735000D02*
D03*
Y8775000D02*
D03*
Y8895000D02*
D03*
Y8935000D02*
D03*
X5107500Y9032500D02*
D03*
X5165000Y8975000D02*
D03*
X4787500Y9032500D02*
D03*
X4747500D02*
D03*
X4547500D02*
D03*
X4940000Y8610000D02*
D03*
X4830000D02*
D03*
X4940000Y8690000D02*
D03*
X4827500Y8695000D02*
D03*
X4587500Y9032500D02*
D03*
X4490000Y8975000D02*
D03*
Y8935000D02*
D03*
Y8735000D02*
D03*
Y8695000D02*
D03*
X4350000Y8360000D02*
D03*
X4400000D02*
D03*
Y8410000D02*
D03*
X4350000D02*
D03*
X4344020Y8494996D02*
D03*
Y9044996D02*
D03*
X4340000Y9130000D02*
D03*
X4390000D02*
D03*
Y9180000D02*
D03*
X4340000D02*
D03*
X4344020Y8844996D02*
D03*
X4525000Y9121500D02*
D03*
X4725000Y9121501D02*
D03*
X4775000D02*
D03*
X5175000Y9121500D02*
D03*
X5125000Y9178500D02*
D03*
X5025000D02*
D03*
X4925000D02*
D03*
X4975000Y9121501D02*
D03*
X4875000D02*
D03*
X4675000D02*
D03*
X4575000D02*
D03*
X4825000Y9178499D02*
D03*
X4725000Y9178500D02*
D03*
X4625000Y9178499D02*
D03*
X4525000Y9178500D02*
D03*
D30*
X5165000Y8975000D02*
D03*
Y8935000D02*
D03*
Y8895000D02*
D03*
Y8855000D02*
D03*
Y8815000D02*
D03*
Y8775000D02*
D03*
Y8735000D02*
D03*
Y8695000D02*
D03*
Y8655000D02*
D03*
Y8615000D02*
D03*
Y8575000D02*
D03*
Y8535000D02*
D03*
Y8495000D02*
D03*
Y8455000D02*
D03*
Y8415000D02*
D03*
X4490000D02*
D03*
Y8455000D02*
D03*
Y8495000D02*
D03*
Y8535000D02*
D03*
Y8575000D02*
D03*
Y8615000D02*
D03*
Y8655000D02*
D03*
Y8695000D02*
D03*
Y8735000D02*
D03*
Y8775000D02*
D03*
Y8815000D02*
D03*
Y8855000D02*
D03*
Y8895000D02*
D03*
Y8935000D02*
D03*
Y8975000D02*
D03*
D31*
X5107500Y8357500D02*
D03*
X5067500D02*
D03*
X5027500D02*
D03*
X4987500D02*
D03*
X4947500D02*
D03*
X4907500D02*
D03*
X4867500D02*
D03*
X4827500D02*
D03*
X4787500D02*
D03*
X4747500D02*
D03*
X4707500D02*
D03*
X4667500D02*
D03*
X4627500D02*
D03*
X4587500D02*
D03*
X4547500D02*
D03*
Y9032500D02*
D03*
X4587500D02*
D03*
X4627500D02*
D03*
X4667500D02*
D03*
X4707500D02*
D03*
X4747500D02*
D03*
X4787500D02*
D03*
X4827500D02*
D03*
X4867500D02*
D03*
X4907500D02*
D03*
X4947500D02*
D03*
X4987500D02*
D03*
X5027500D02*
D03*
X5067500D02*
D03*
X5107500D02*
D03*
D32*
X4827500Y8695000D02*
D03*
D33*
X5300000Y8825000D02*
D03*
Y9125000D02*
D03*
Y8375000D02*
D03*
Y8975000D02*
D03*
Y8525000D02*
D03*
Y8675000D02*
D03*
D34*
X4369020Y8387500D02*
D03*
Y9152500D02*
D03*
%TF.MD5,ef990ff848002f98fc0e202b82e9fa63*%
M02*
