%TF.GenerationSoftware,Altium Limited,Altium Designer,24.8.2 (39)*%
G04 Layer_Physical_Order=6*
G04 Layer_Color=128*
%FSLAX45Y45*%
%MOMM*%
%TF.SameCoordinates,62BC436B-7982-48EA-BC41-0FA37A5750A2*%
%TF.FilePolarity,Positive*%
%TF.FileFunction,Copper,L6,Inr,Signal*%
%TF.Part,Single*%
G01*
G75*
%TA.AperFunction,Conductor*%
%ADD27C,0.15240*%
%TA.AperFunction,ViaPad*%
%ADD29C,0.25000*%
G36*
X5374451Y8275549D02*
X4250549D01*
Y8364676D01*
X4309020D01*
X4316674Y8367846D01*
X4319844Y8375500D01*
Y8462500D01*
X4316674Y8470154D01*
X4309020Y8473324D01*
X4250549D01*
Y9067176D01*
X4309020D01*
X4316674Y9070346D01*
X4319844Y9078000D01*
Y9128000D01*
X4316674Y9135654D01*
X4309020Y9138824D01*
X4250549D01*
Y9224451D01*
X5374451D01*
Y8275549D01*
D02*
G37*
%LPC*%
G36*
X4779476Y9144001D02*
X4770525D01*
X4762255Y9140575D01*
X4755926Y9134246D01*
X4754399Y9130560D01*
X4745601D01*
X4744075Y9134246D01*
X4737745Y9140575D01*
X4729476Y9144001D01*
X4720525D01*
X4712255Y9140575D01*
X4705926Y9134246D01*
X4704399Y9130560D01*
X4695601D01*
X4694075Y9134246D01*
X4687745Y9140575D01*
X4679476Y9144001D01*
X4670525D01*
X4662255Y9140575D01*
X4655926Y9134246D01*
X4652500Y9125976D01*
Y9117025D01*
X4655926Y9108756D01*
X4662255Y9102426D01*
X4670525Y9099001D01*
X4679476D01*
X4687745Y9102426D01*
X4694075Y9108756D01*
X4695601Y9112441D01*
X4704399D01*
X4705926Y9108756D01*
X4712255Y9102426D01*
X4720525Y9099001D01*
X4729476D01*
X4737745Y9102426D01*
X4744075Y9108756D01*
X4745601Y9112441D01*
X4754399D01*
X4755926Y9108756D01*
X4762255Y9102426D01*
X4770525Y9099001D01*
X4779476D01*
X4787745Y9102426D01*
X4794074Y9108756D01*
X4797500Y9117025D01*
Y9125976D01*
X4794074Y9134246D01*
X4787745Y9140575D01*
X4779476Y9144001D01*
D02*
G37*
G36*
X4579476D02*
X4570525D01*
X4562255Y9140575D01*
X4555926Y9134246D01*
X4554399Y9130560D01*
X4545601D01*
X4544074Y9134245D01*
X4537745Y9140575D01*
X4529476Y9144000D01*
X4520525D01*
X4512255Y9140575D01*
X4505926Y9134245D01*
X4504399Y9130560D01*
X4495601D01*
X4494075Y9134245D01*
X4487745Y9140575D01*
X4479476Y9144000D01*
X4470525D01*
X4462255Y9140575D01*
X4455926Y9134245D01*
X4452500Y9125976D01*
Y9117025D01*
X4455926Y9108755D01*
X4462255Y9102426D01*
X4470525Y9099000D01*
X4479476D01*
X4487745Y9102426D01*
X4494075Y9108755D01*
X4495601Y9112441D01*
X4504399D01*
X4505926Y9108755D01*
X4512255Y9102426D01*
X4520525Y9099000D01*
X4529476D01*
X4537745Y9102426D01*
X4544074Y9108755D01*
X4545601Y9112441D01*
X4554399D01*
X4555926Y9108756D01*
X4562255Y9102426D01*
X4570525Y9099001D01*
X4579476D01*
X4587745Y9102426D01*
X4594075Y9108756D01*
X4597500Y9117025D01*
Y9125976D01*
X4594075Y9134246D01*
X4587745Y9140575D01*
X4579476Y9144001D01*
D02*
G37*
G36*
X5304476Y9147500D02*
X5295525D01*
X5287255Y9144074D01*
X5280926Y9137745D01*
X5277500Y9129476D01*
Y9120525D01*
X5280926Y9112255D01*
X5287255Y9105926D01*
X5295525Y9102500D01*
X5304476D01*
X5312745Y9105926D01*
X5319074Y9112255D01*
X5322500Y9120525D01*
Y9129476D01*
X5319074Y9137745D01*
X5312745Y9144074D01*
X5304476Y9147500D01*
D02*
G37*
G36*
X4979476Y9144001D02*
X4970525D01*
X4962255Y9140575D01*
X4955926Y9134246D01*
X4952500Y9125976D01*
Y9117025D01*
X4955926Y9108756D01*
X4962255Y9102426D01*
X4970525Y9099001D01*
X4979476D01*
X4987745Y9102426D01*
X4994075Y9108756D01*
X4997500Y9117025D01*
Y9125976D01*
X4994075Y9134246D01*
X4987745Y9140575D01*
X4979476Y9144001D01*
D02*
G37*
G36*
X4879476D02*
X4870525D01*
X4862255Y9140575D01*
X4855926Y9134246D01*
X4852500Y9125976D01*
Y9117025D01*
X4855926Y9108756D01*
X4862255Y9102426D01*
X4870525Y9099001D01*
X4879476D01*
X4887745Y9102426D01*
X4894075Y9108756D01*
X4897500Y9117025D01*
Y9125976D01*
X4894075Y9134246D01*
X4887745Y9140575D01*
X4879476Y9144001D01*
D02*
G37*
G36*
X5179476Y9144000D02*
X5170525D01*
X5162255Y9140575D01*
X5155926Y9134245D01*
X5152500Y9125976D01*
Y9117025D01*
X5155926Y9108755D01*
X5162255Y9102426D01*
X5170525Y9099000D01*
X5179476D01*
X5187745Y9102426D01*
X5194075Y9108755D01*
X5197500Y9117025D01*
Y9125976D01*
X5194075Y9134245D01*
X5187745Y9140575D01*
X5179476Y9144000D01*
D02*
G37*
G36*
X4791976Y9055000D02*
X4783025D01*
X4774755Y9051574D01*
X4772810Y9049629D01*
X4767500Y9045896D01*
X4762190Y9049629D01*
X4760245Y9051574D01*
X4751976Y9055000D01*
X4743025D01*
X4734755Y9051574D01*
X4728426Y9045245D01*
X4725000Y9036976D01*
Y9028025D01*
X4728426Y9019755D01*
X4734755Y9013426D01*
X4743025Y9010000D01*
X4751976D01*
X4760245Y9013426D01*
X4762190Y9015371D01*
X4767500Y9019104D01*
X4772810Y9015371D01*
X4774755Y9013426D01*
X4783025Y9010000D01*
X4791976D01*
X4800245Y9013426D01*
X4806575Y9019755D01*
X4810000Y9028025D01*
Y9036976D01*
X4806575Y9045245D01*
X4800245Y9051574D01*
X4791976Y9055000D01*
D02*
G37*
G36*
X5111976D02*
X5103025D01*
X5094755Y9051574D01*
X5092810Y9049629D01*
X5087500Y9045896D01*
X5082190Y9049629D01*
X5080245Y9051574D01*
X5071976Y9055000D01*
X5063025D01*
X5054755Y9051574D01*
X5048426Y9045245D01*
X5045000Y9036976D01*
Y9028025D01*
X5048426Y9019755D01*
X5054755Y9013426D01*
X5063025Y9010000D01*
X5071976D01*
X5080245Y9013426D01*
X5082190Y9015371D01*
X5087500Y9019104D01*
X5092810Y9015371D01*
X5094755Y9013426D01*
X5103025Y9010000D01*
X5111976D01*
X5120245Y9013426D01*
X5126574Y9019755D01*
X5130000Y9028025D01*
Y9036976D01*
X5126574Y9045245D01*
X5120245Y9051574D01*
X5111976Y9055000D01*
D02*
G37*
G36*
X4631975D02*
X4623025D01*
X4614755Y9051574D01*
X4608426Y9045245D01*
X4605000Y9036976D01*
Y9028025D01*
X4608426Y9019755D01*
X4614755Y9013426D01*
X4623025Y9010000D01*
X4631975D01*
X4640245Y9013426D01*
X4646574Y9019755D01*
X4650000Y9028025D01*
Y9036976D01*
X4646574Y9045245D01*
X4640245Y9051574D01*
X4631975Y9055000D01*
D02*
G37*
G36*
X4551976D02*
X4543025D01*
X4534755Y9051574D01*
X4528426Y9045245D01*
X4525000Y9036976D01*
Y9028025D01*
X4528426Y9019755D01*
X4534755Y9013426D01*
X4543025Y9010000D01*
X4551976D01*
X4560245Y9013426D01*
X4566575Y9019755D01*
X4570000Y9028025D01*
Y9036976D01*
X4566575Y9045245D01*
X4560245Y9051574D01*
X4551976Y9055000D01*
D02*
G37*
G36*
X5304476Y8997500D02*
X5295525D01*
X5287255Y8994074D01*
X5280926Y8987745D01*
X5277500Y8979476D01*
Y8970525D01*
X5280926Y8962255D01*
X5287255Y8955926D01*
X5295525Y8952500D01*
X5304476D01*
X5312745Y8955926D01*
X5319074Y8962255D01*
X5322500Y8970525D01*
Y8979476D01*
X5319074Y8987745D01*
X5312745Y8994074D01*
X5304476Y8997500D01*
D02*
G37*
G36*
X4894476Y8982500D02*
X4885525D01*
X4877255Y8979074D01*
X4870926Y8972745D01*
X4867500Y8964476D01*
Y8955525D01*
X4870926Y8947255D01*
X4877255Y8940926D01*
X4885525Y8937500D01*
X4894476D01*
X4902745Y8940926D01*
X4909075Y8947255D01*
X4912500Y8955525D01*
Y8964476D01*
X4909075Y8972745D01*
X4902745Y8979074D01*
X4894476Y8982500D01*
D02*
G37*
G36*
X4494476Y8997500D02*
X4485525D01*
X4477255Y8994074D01*
X4470926Y8987745D01*
X4467500Y8979476D01*
Y8970525D01*
X4470926Y8962255D01*
X4472871Y8960310D01*
X4476604Y8955000D01*
X4472871Y8949690D01*
X4470926Y8947745D01*
X4467500Y8939476D01*
Y8930525D01*
X4470926Y8922255D01*
X4477255Y8915926D01*
X4485525Y8912500D01*
X4494476D01*
X4502745Y8915926D01*
X4509075Y8922255D01*
X4512500Y8930525D01*
Y8939476D01*
X4509075Y8947745D01*
X4507129Y8949690D01*
X4503396Y8955000D01*
X4507129Y8960310D01*
X4509075Y8962255D01*
X4512500Y8970525D01*
Y8979476D01*
X4509075Y8987745D01*
X4502745Y8994074D01*
X4494476Y8997500D01*
D02*
G37*
G36*
X5234475Y8952500D02*
X5225524D01*
X5217255Y8949074D01*
X5210926Y8942745D01*
X5207500Y8934475D01*
Y8925524D01*
X5210926Y8917255D01*
X5217255Y8910926D01*
X5225524Y8907500D01*
X5234475D01*
X5242745Y8910926D01*
X5249074Y8917255D01*
X5252500Y8925524D01*
Y8934475D01*
X5249074Y8942745D01*
X5242745Y8949074D01*
X5234475Y8952500D01*
D02*
G37*
G36*
X5084475D02*
X5075525D01*
X5067255Y8949074D01*
X5060926Y8942745D01*
X5057500Y8934475D01*
Y8925524D01*
X5060926Y8917255D01*
X5067255Y8910926D01*
X5075525Y8907500D01*
X5084475D01*
X5092745Y8910926D01*
X5099074Y8917255D01*
X5102500Y8925524D01*
Y8934475D01*
X5099074Y8942745D01*
X5092745Y8949074D01*
X5084475Y8952500D01*
D02*
G37*
G36*
X5169476Y8997500D02*
X5160525D01*
X5152255Y8994074D01*
X5145926Y8987745D01*
X5142500Y8979476D01*
Y8970525D01*
X5145926Y8962255D01*
X5147871Y8960310D01*
X5151604Y8955000D01*
X5147871Y8949690D01*
X5145926Y8947745D01*
X5142500Y8939476D01*
Y8930525D01*
X5145926Y8922255D01*
X5147871Y8920310D01*
X5151604Y8915000D01*
X5147871Y8909690D01*
X5145926Y8907745D01*
X5142500Y8899475D01*
Y8890525D01*
X5145926Y8882255D01*
X5152255Y8875926D01*
X5160525Y8872500D01*
X5169476D01*
X5177745Y8875926D01*
X5184074Y8882255D01*
X5187500Y8890525D01*
Y8899475D01*
X5184074Y8907745D01*
X5182129Y8909690D01*
X5178396Y8915000D01*
X5182129Y8920310D01*
X5184074Y8922255D01*
X5187500Y8930525D01*
Y8939476D01*
X5184074Y8947745D01*
X5182129Y8949690D01*
X5178396Y8955000D01*
X5182129Y8960310D01*
X5184074Y8962255D01*
X5187500Y8970525D01*
Y8979476D01*
X5184074Y8987745D01*
X5177745Y8994074D01*
X5169476Y8997500D01*
D02*
G37*
G36*
X5304476Y8847500D02*
X5295525D01*
X5287255Y8844074D01*
X5280926Y8837745D01*
X5277500Y8829475D01*
Y8820524D01*
X5280926Y8812255D01*
X5287255Y8805925D01*
X5295525Y8802500D01*
X5304476D01*
X5312745Y8805925D01*
X5319074Y8812255D01*
X5322500Y8820524D01*
Y8829475D01*
X5319074Y8837745D01*
X5312745Y8844074D01*
X5304476Y8847500D01*
D02*
G37*
G36*
X4348496Y8917496D02*
X4339545D01*
X4331275Y8914070D01*
X4324946Y8907741D01*
X4321520Y8899471D01*
Y8890520D01*
X4324946Y8882251D01*
X4331275Y8875922D01*
X4334961Y8874395D01*
Y8865597D01*
X4331275Y8864070D01*
X4324946Y8857741D01*
X4321520Y8849471D01*
Y8840520D01*
X4324946Y8832251D01*
X4331275Y8825921D01*
X4334961Y8824395D01*
Y8815597D01*
X4331275Y8814070D01*
X4324946Y8807741D01*
X4321520Y8799471D01*
Y8790520D01*
X4324946Y8782251D01*
X4331275Y8775921D01*
X4334961Y8774395D01*
Y8765597D01*
X4331275Y8764070D01*
X4324946Y8757741D01*
X4321520Y8749471D01*
Y8740520D01*
X4324946Y8732251D01*
X4331275Y8725922D01*
X4339545Y8722496D01*
X4348496D01*
X4356765Y8725922D01*
X4363095Y8732251D01*
X4366520Y8740520D01*
Y8749471D01*
X4363095Y8757741D01*
X4356765Y8764070D01*
X4353080Y8765597D01*
Y8774395D01*
X4356765Y8775921D01*
X4363095Y8782251D01*
X4366520Y8790520D01*
Y8799471D01*
X4363095Y8807741D01*
X4356765Y8814070D01*
X4353080Y8815597D01*
Y8824395D01*
X4356765Y8825921D01*
X4363095Y8832251D01*
X4366520Y8840520D01*
Y8849471D01*
X4363095Y8857741D01*
X4356765Y8864070D01*
X4353079Y8865597D01*
Y8874395D01*
X4356765Y8875922D01*
X4363095Y8882251D01*
X4366520Y8890520D01*
Y8899471D01*
X4363095Y8907741D01*
X4356765Y8914070D01*
X4348496Y8917496D01*
D02*
G37*
G36*
X5169476Y8797500D02*
X5160525D01*
X5152255Y8794074D01*
X5145926Y8787745D01*
X5142500Y8779475D01*
Y8770524D01*
X5145926Y8762255D01*
X5147871Y8760310D01*
X5151604Y8755000D01*
X5147871Y8749690D01*
X5145926Y8747745D01*
X5142500Y8739476D01*
Y8730525D01*
X5145926Y8722255D01*
X5152255Y8715926D01*
X5160525Y8712500D01*
X5169476D01*
X5177745Y8715926D01*
X5184074Y8722255D01*
X5187500Y8730525D01*
Y8739476D01*
X5184074Y8747745D01*
X5182129Y8749690D01*
X5178396Y8755000D01*
X5182129Y8760310D01*
X5184074Y8762255D01*
X5187500Y8770524D01*
Y8779475D01*
X5184074Y8787745D01*
X5177745Y8794074D01*
X5169476Y8797500D01*
D02*
G37*
G36*
X4494476Y8757500D02*
X4485525D01*
X4477255Y8754074D01*
X4470926Y8747745D01*
X4467500Y8739476D01*
Y8730525D01*
X4470926Y8722255D01*
X4472871Y8720310D01*
X4476604Y8715000D01*
X4472871Y8709690D01*
X4470926Y8707745D01*
X4467500Y8699476D01*
Y8690525D01*
X4470926Y8682255D01*
X4477255Y8675926D01*
X4485525Y8672500D01*
X4494476D01*
X4502745Y8675926D01*
X4509075Y8682255D01*
X4512500Y8690525D01*
Y8699476D01*
X4509075Y8707745D01*
X4507129Y8709690D01*
X4503396Y8715000D01*
X4507129Y8720310D01*
X4509075Y8722255D01*
X4512500Y8730525D01*
Y8739476D01*
X4509075Y8747745D01*
X4502745Y8754074D01*
X4494476Y8757500D01*
D02*
G37*
G36*
X5304476Y8697500D02*
X5295525D01*
X5287255Y8694074D01*
X5280926Y8687745D01*
X5277500Y8679475D01*
Y8670524D01*
X5280926Y8662255D01*
X5287255Y8655926D01*
X5295525Y8652500D01*
X5304476D01*
X5312745Y8655926D01*
X5319074Y8662255D01*
X5322500Y8670524D01*
Y8679475D01*
X5319074Y8687745D01*
X5312745Y8694074D01*
X5304476Y8697500D01*
D02*
G37*
G36*
X4348496Y8667496D02*
X4339545D01*
X4331275Y8664070D01*
X4324946Y8657741D01*
X4321520Y8649471D01*
Y8640520D01*
X4324946Y8632251D01*
X4331275Y8625922D01*
X4339545Y8622496D01*
X4348496D01*
X4356765Y8625922D01*
X4363095Y8632251D01*
X4366520Y8640520D01*
Y8649471D01*
X4363095Y8657741D01*
X4356765Y8664070D01*
X4348496Y8667496D01*
D02*
G37*
G36*
X5169476Y8597500D02*
X5160525D01*
X5152255Y8594075D01*
X5145926Y8587745D01*
X5142500Y8579476D01*
Y8570525D01*
X5145926Y8562255D01*
X5152255Y8555926D01*
X5160525Y8552500D01*
X5169476D01*
X5177745Y8555926D01*
X5184074Y8562255D01*
X5187500Y8570525D01*
Y8579476D01*
X5184074Y8587745D01*
X5177745Y8594075D01*
X5169476Y8597500D01*
D02*
G37*
G36*
X5304476Y8547500D02*
X5295525D01*
X5287255Y8544074D01*
X5280926Y8537745D01*
X5277500Y8529475D01*
Y8520524D01*
X5280926Y8512255D01*
X5287255Y8505926D01*
X5295525Y8502500D01*
X5304476D01*
X5312745Y8505926D01*
X5319074Y8512255D01*
X5322500Y8520524D01*
Y8529475D01*
X5319074Y8537745D01*
X5312745Y8544074D01*
X5304476Y8547500D01*
D02*
G37*
G36*
X4754475Y8511000D02*
X4745524D01*
X4737255Y8507574D01*
X4730926Y8501245D01*
X4727500Y8492975D01*
Y8484024D01*
X4730926Y8475755D01*
X4737255Y8469426D01*
X4745524Y8466000D01*
X4754475D01*
X4762745Y8469426D01*
X4769074Y8475755D01*
X4772500Y8484024D01*
Y8492975D01*
X4769074Y8501245D01*
X4762745Y8507574D01*
X4754475Y8511000D01*
D02*
G37*
G36*
X5054476Y8462500D02*
X5045525D01*
X5037255Y8459074D01*
X5030926Y8452745D01*
X5027500Y8444475D01*
Y8435524D01*
X5030926Y8427255D01*
X5037255Y8420925D01*
X5045525Y8417500D01*
X5054476D01*
X5062745Y8420925D01*
X5069074Y8427255D01*
X5072500Y8435524D01*
Y8444475D01*
X5069074Y8452745D01*
X5062745Y8459074D01*
X5054476Y8462500D01*
D02*
G37*
G36*
X4951976Y8380000D02*
X4943025D01*
X4934755Y8376575D01*
X4932810Y8374629D01*
X4927500Y8370896D01*
X4922190Y8374629D01*
X4920245Y8376575D01*
X4911975Y8380000D01*
X4903024D01*
X4894755Y8376575D01*
X4888426Y8370245D01*
X4885000Y8361976D01*
Y8353025D01*
X4888426Y8344755D01*
X4894755Y8338426D01*
X4903024Y8335000D01*
X4911975D01*
X4920245Y8338426D01*
X4922190Y8340371D01*
X4927500Y8344104D01*
X4932810Y8340371D01*
X4934755Y8338426D01*
X4943025Y8335000D01*
X4951976D01*
X4960245Y8338426D01*
X4966575Y8344755D01*
X4970000Y8353025D01*
Y8361976D01*
X4966575Y8370245D01*
X4960245Y8376575D01*
X4951976Y8380000D01*
D02*
G37*
G36*
X4831976D02*
X4823025D01*
X4814755Y8376575D01*
X4812810Y8374629D01*
X4807500Y8370896D01*
X4802190Y8374629D01*
X4800245Y8376575D01*
X4791976Y8380000D01*
X4783025D01*
X4774755Y8376575D01*
X4768426Y8370245D01*
X4765000Y8361976D01*
Y8361784D01*
X4756872Y8356353D01*
X4754103Y8357500D01*
X4745152D01*
X4736883Y8354074D01*
X4730553Y8347745D01*
X4727128Y8339476D01*
Y8330525D01*
X4730553Y8322255D01*
X4736883Y8315926D01*
X4745152Y8312500D01*
X4754103D01*
X4762373Y8315926D01*
X4768702Y8322255D01*
X4772128Y8330525D01*
Y8330716D01*
X4780256Y8336147D01*
X4783025Y8335000D01*
X4791976D01*
X4800245Y8338426D01*
X4802190Y8340371D01*
X4807500Y8344104D01*
X4812810Y8340371D01*
X4814755Y8338426D01*
X4823025Y8335000D01*
X4831976D01*
X4840245Y8338426D01*
X4846575Y8344755D01*
X4850000Y8353025D01*
Y8361976D01*
X4846575Y8370245D01*
X4840245Y8376575D01*
X4831976Y8380000D01*
D02*
G37*
G36*
X4551976D02*
X4543025D01*
X4534755Y8376575D01*
X4528426Y8370245D01*
X4525000Y8361976D01*
Y8353025D01*
X4528426Y8344755D01*
X4534755Y8338426D01*
X4543025Y8335000D01*
X4551976D01*
X4560245Y8338426D01*
X4566575Y8344755D01*
X4570000Y8353025D01*
Y8361976D01*
X4566575Y8370245D01*
X4560245Y8376575D01*
X4551976Y8380000D01*
D02*
G37*
G36*
X4954475Y8462500D02*
X4945525D01*
X4937255Y8459075D01*
X4930926Y8452745D01*
X4927500Y8444476D01*
Y8435525D01*
X4930926Y8427255D01*
X4937255Y8420926D01*
X4945525Y8417500D01*
X4947093D01*
X5037297Y8327297D01*
X5043125Y8323402D01*
X5050000Y8322035D01*
X5156146D01*
X5157255Y8320926D01*
X5165525Y8317500D01*
X5174476D01*
X5182745Y8320926D01*
X5189074Y8327255D01*
X5192500Y8335525D01*
Y8344476D01*
X5189074Y8352745D01*
X5182745Y8359074D01*
X5174476Y8362500D01*
X5165525D01*
X5157255Y8359074D01*
X5156146Y8357965D01*
X5057441D01*
X4972500Y8442907D01*
Y8444476D01*
X4969074Y8452745D01*
X4962745Y8459075D01*
X4954475Y8462500D01*
D02*
G37*
%LPD*%
D27*
X4950000Y8440000D02*
X5050000Y8340000D01*
X5170000D01*
D29*
X4475000Y9121500D02*
D03*
X4344020Y8894996D02*
D03*
Y8644996D02*
D03*
X4749628Y8335000D02*
D03*
X4950000Y8440000D02*
D03*
X5050000Y8440000D02*
D03*
X5170000Y8340000D02*
D03*
X4547500Y8357500D02*
D03*
X5230000Y8930000D02*
D03*
X4890000Y8960000D02*
D03*
X4940000Y8810000D02*
D03*
X4830000D02*
D03*
X4698702Y8701298D02*
D03*
X4750000Y8488500D02*
D03*
X4700000Y8810000D02*
D03*
X4344020Y8744996D02*
D03*
Y8794996D02*
D03*
X5080000Y8930000D02*
D03*
X5300000Y8975000D02*
D03*
Y8525000D02*
D03*
Y8675000D02*
D03*
X4907500Y8357500D02*
D03*
X4787500D02*
D03*
X4947500D02*
D03*
X4827500D02*
D03*
X5067500Y9032500D02*
D03*
X4627500D02*
D03*
X5300000Y8375000D02*
D03*
Y9125000D02*
D03*
Y8825000D02*
D03*
X5165000Y8575000D02*
D03*
Y8735000D02*
D03*
Y8775000D02*
D03*
Y8895000D02*
D03*
Y8935000D02*
D03*
X5107500Y9032500D02*
D03*
X5165000Y8975000D02*
D03*
X4787500Y9032500D02*
D03*
X4747500D02*
D03*
X4547500D02*
D03*
X4940000Y8610000D02*
D03*
X4830000D02*
D03*
X4940000Y8690000D02*
D03*
X4827500Y8695000D02*
D03*
X4587500Y9032500D02*
D03*
X4490000Y8975000D02*
D03*
Y8935000D02*
D03*
Y8735000D02*
D03*
Y8695000D02*
D03*
X4350000Y8360000D02*
D03*
X4400000D02*
D03*
Y8410000D02*
D03*
X4350000D02*
D03*
X4344020Y8494996D02*
D03*
Y9044996D02*
D03*
X4340000Y9130000D02*
D03*
X4390000D02*
D03*
Y9180000D02*
D03*
X4340000D02*
D03*
X4344020Y8844996D02*
D03*
X4525000Y9121500D02*
D03*
X4725000Y9121501D02*
D03*
X4775000D02*
D03*
X5175000Y9121500D02*
D03*
X5125000Y9178500D02*
D03*
X5025000D02*
D03*
X4925000D02*
D03*
X4975000Y9121501D02*
D03*
X4875000D02*
D03*
X4675000D02*
D03*
X4575000D02*
D03*
X4825000Y9178499D02*
D03*
X4725000Y9178500D02*
D03*
X4625000Y9178499D02*
D03*
X4525000Y9178500D02*
D03*
%TF.MD5,bc0b9ba04bd62e065db6f8f22fc33779*%
M02*
