%TF.GenerationSoftware,Altium Limited,Altium Designer,24.8.2 (39)*%
G04 Layer_Color=128*
%FSLAX45Y45*%
%MOMM*%
%TF.SameCoordinates,62BC436B-7982-48EA-BC41-0FA37A5750A2*%
%TF.FilePolarity,Positive*%
%TF.FileFunction,Drillmap*%
%TF.Part,Single*%
G01*
G75*
%TA.AperFunction,NonConductor*%
%ADD59C,0.12700*%
D59*
X4744628Y8335000D02*
X4754628D01*
X4749628Y8330000D02*
Y8340000D01*
X5165000D02*
X5175000D01*
X5170000Y8335000D02*
Y8345000D01*
X4542500Y8357500D02*
X4552500D01*
X4547500Y8352500D02*
Y8362500D01*
X4825000Y8810000D02*
X4835000D01*
X4830000Y8805000D02*
Y8815000D01*
X5295000Y8975000D02*
X5305000D01*
X5300000Y8970000D02*
Y8980000D01*
X5295000Y8525000D02*
X5305000D01*
X5300000Y8520000D02*
Y8530000D01*
X5295000Y8675000D02*
X5305000D01*
X5300000Y8670000D02*
Y8680000D01*
X4782500Y8357500D02*
X4792500D01*
X4787500Y8352500D02*
Y8362500D01*
X4942500Y8357500D02*
X4952500D01*
X4947500Y8352500D02*
Y8362500D01*
X4822500Y8357500D02*
X4832500D01*
X4827500Y8352500D02*
Y8362500D01*
X5062500Y9032500D02*
X5072500D01*
X5067500Y9027500D02*
Y9037500D01*
X5295000Y8375000D02*
X5305000D01*
X5300000Y8370000D02*
Y8380000D01*
X5295000Y9125000D02*
X5305000D01*
X5300000Y9120000D02*
Y9130000D01*
X5295000Y8825000D02*
X5305000D01*
X5300000Y8820000D02*
Y8830000D01*
X5160000Y8575000D02*
X5170000D01*
X5165000Y8570000D02*
Y8580000D01*
X5160000Y8775000D02*
X5170000D01*
X5165000Y8770000D02*
Y8780000D01*
X5160000Y8975000D02*
X5170000D01*
X5165000Y8970000D02*
Y8980000D01*
X4782500Y9032500D02*
X4792500D01*
X4787500Y9027500D02*
Y9037500D01*
X4742500Y9032500D02*
X4752500D01*
X4747500Y9027500D02*
Y9037500D01*
X4935000Y8610000D02*
X4945000D01*
X4940000Y8605000D02*
Y8615000D01*
X4825000Y8610000D02*
X4835000D01*
X4830000Y8605000D02*
Y8615000D01*
X4822500Y8695000D02*
X4832500D01*
X4827500Y8690000D02*
Y8700000D01*
X4582500Y9032500D02*
X4592500D01*
X4587500Y9027500D02*
Y9037500D01*
X4485000Y8975000D02*
X4495000D01*
X4490000Y8970000D02*
Y8980000D01*
X4485000Y8935000D02*
X4495000D01*
X4490000Y8930000D02*
Y8940000D01*
X4485000Y8735000D02*
X4495000D01*
X4490000Y8730000D02*
Y8740000D01*
X4339020Y8844996D02*
X4349020D01*
X4344020Y8839996D02*
Y8849996D01*
X4520000Y9121500D02*
X4530000D01*
X4525000Y9116500D02*
Y9126500D01*
X4720000Y9121501D02*
X4730000D01*
X4725000Y9116501D02*
Y9126501D01*
X4770000Y9121501D02*
X4780000D01*
X4775000Y9116501D02*
Y9126501D01*
X5170000Y9121500D02*
X5180000D01*
X5175000Y9116500D02*
Y9126500D01*
X5120000Y9178500D02*
X5130000D01*
X5125000Y9173500D02*
Y9183500D01*
X5020000Y9178500D02*
X5030000D01*
X5025000Y9173500D02*
Y9183500D01*
X4920000Y9178500D02*
X4930000D01*
X4925000Y9173500D02*
Y9183500D01*
X4970000Y9121501D02*
X4980000D01*
X4975000Y9116501D02*
Y9126501D01*
X4870000Y9121501D02*
X4880000D01*
X4875000Y9116501D02*
Y9126501D01*
X4670000Y9121501D02*
X4680000D01*
X4675000Y9116501D02*
Y9126501D01*
X4570000Y9121501D02*
X4580000D01*
X4575000Y9116501D02*
Y9126501D01*
X4820000Y9178499D02*
X4830000D01*
X4825000Y9173499D02*
Y9183499D01*
X4720000Y9178500D02*
X4730000D01*
X4725000Y9173500D02*
Y9183500D01*
X4620000Y9178499D02*
X4630000D01*
X4625000Y9173499D02*
Y9183499D01*
X4520000Y9178500D02*
X4530000D01*
X4525000Y9173500D02*
Y9183500D01*
%TF.MD5,a6e8cbc8c1558a741a42d6aff0b2c0c3*%
M02*
